<svg xmlns="http://www.w3.org/2000/svg" viewBox="0 0 58.72 87.69"><defs><style>.cls-1{fill:#c98686;}.cls-2{fill:none;}.cls-3{fill:#5d5d5e;}</style></defs><title>aboutLogo</title><g id="Isolation_Mode" data-name="Isolation Mode"><path class="cls-1" d="M16.4,25a20.5,20.5,0,0,1,3.65-10.8A26.61,26.61,0,0,1,30.27,5.31,31.49,31.49,0,0,1,45.76,2,32.9,32.9,0,0,1,60.15,5.28a23.36,23.36,0,0,1,9.52,8.4A20.13,20.13,0,0,1,72.88,25a17.65,17.65,0,0,1-2.11,8.38A26.09,26.09,0,0,1,66,39.56q-2.73,2.56-9.79,8.65a39.47,39.47,0,0,0-3.14,3,11.83,11.83,0,0,0-1.76,2.39,11.36,11.36,0,0,0-.92,2.19c-.22.73-.56,2-1,3.84q-1.18,5.87-6.82,5.75a6.91,6.91,0,0,1-4.91-2,7.55,7.55,0,0,1-1.89-5.74,21.09,21.09,0,0,1,1.62-8.19,20.77,20.77,0,0,1,4-6,88.34,88.34,0,0,1,6.67-6.12c2.44-2.06,4.22-3.61,5.31-4.67a16.34,16.34,0,0,0,2.78-3.53,8.67,8.67,0,0,0,1.18-4.27,10,10,0,0,0-3.22-7.68,12.18,12.18,0,0,0-8.6-3.27q-6.21-.12-9.21,3A25,25,0,0,0,31.18,26q-2,6.35-7.4,6.24a7.13,7.13,0,0,1-5.29-2.33A6.8,6.8,0,0,1,16.4,25Zm26.38,62.4a8.9,8.9,0,0,1-6-2.35,7.8,7.8,0,0,1-2.45-6.28A8,8,0,0,1,37,72.86a8.34,8.34,0,0,1,6.14-2.31,8.28,8.28,0,0,1,8.25,8.57,7.89,7.89,0,0,1-2.66,6.16A8.59,8.59,0,0,1,42.78,87.43Z" transform="translate(-15.53 -0.71)"/><path class="cls-2" d="M16.4,25a20.5,20.5,0,0,1,3.65-10.8A26.61,26.61,0,0,1,30.27,5.31,31.49,31.49,0,0,1,45.76,2,32.9,32.9,0,0,1,60.15,5.28a23.36,23.36,0,0,1,9.52,8.4A20.13,20.13,0,0,1,72.88,25a17.65,17.65,0,0,1-2.11,8.38A26.09,26.09,0,0,1,66,39.56q-2.73,2.56-9.79,8.65a39.47,39.47,0,0,0-3.14,3,11.83,11.83,0,0,0-1.76,2.39,11.36,11.36,0,0,0-.92,2.19c-.22.73-.56,2-1,3.84q-1.18,5.87-6.82,5.75a6.91,6.91,0,0,1-4.91-2,7.55,7.55,0,0,1-1.89-5.74,21.09,21.09,0,0,1,1.62-8.19,20.77,20.77,0,0,1,4-6,88.34,88.34,0,0,1,6.67-6.12c2.44-2.06,4.22-3.61,5.31-4.67a16.34,16.34,0,0,0,2.78-3.53,8.67,8.67,0,0,0,1.18-4.27,10,10,0,0,0-3.22-7.68,12.18,12.18,0,0,0-8.6-3.27q-6.21-.12-9.21,3A25,25,0,0,0,31.18,26q-2,6.35-7.4,6.24a7.13,7.13,0,0,1-5.29-2.33A6.8,6.8,0,0,1,16.4,25Zm26.38,62.4a8.9,8.9,0,0,1-6-2.35,7.8,7.8,0,0,1-2.45-6.28A8,8,0,0,1,37,72.86a8.34,8.34,0,0,1,6.14-2.31,8.28,8.28,0,0,1,8.25,8.57,7.89,7.89,0,0,1-2.66,6.16A8.59,8.59,0,0,1,42.78,87.43Z" transform="translate(-15.53 -0.71)"/><path class="cls-3" d="M42.79,86.76c0,.09,0,.28.06.24l0-.33Z" transform="translate(-15.53 -0.71)"/><path class="cls-3" d="M43.3,87.37a1.17,1.17,0,0,0,.1-.75c-.07.32-.1.19-.18.57-.07,0-.13-.11-.12-.23,0,.09-.12-.07-.16.14s.23.27.36.05A.54.54,0,0,1,43.3,87.37Z" transform="translate(-15.53 -0.71)"/><path class="cls-3" d="M50.21,84.33l-.06,0Z" transform="translate(-15.53 -0.71)"/><path class="cls-3" d="M52,79.7s0,0,.07.06S52,79.69,52,79.7Z" transform="translate(-15.53 -0.71)"/><path class="cls-3" d="M52.36,78.84l0,.06S52.38,78.86,52.36,78.84Z" transform="translate(-15.53 -0.71)"/><path class="cls-3" d="M50.21,84.33l.16,0C50.29,84.21,50.27,84.29,50.21,84.33Z" transform="translate(-15.53 -0.71)"/><path class="cls-3" d="M44.21,86.48a.46.46,0,0,0-.05.1l.06,0Z" transform="translate(-15.53 -0.71)"/><path class="cls-3" d="M48.84,86.1l0,0,0,.13Z" transform="translate(-15.53 -0.71)"/><path class="cls-3" d="M47.43,87.1s-.08-.27-.13-.38c0,.11,0,.17,0,.21Z" transform="translate(-15.53 -0.71)"/><path class="cls-3" d="M44.75,87.54l0,0Z" transform="translate(-15.53 -0.71)"/><path class="cls-3" d="M49.8,85.32l.09.05Z" transform="translate(-15.53 -0.71)"/><path class="cls-3" d="M41.22,85.93v0S41.23,85.93,41.22,85.93Z" transform="translate(-15.53 -0.71)"/><polygon class="cls-3" points="27.25 86.79 27.22 86.8 27.21 86.96 27.25 86.79"/><path class="cls-3" d="M52.58,77.16h0S52.6,77.18,52.58,77.16Z" transform="translate(-15.53 -0.71)"/><path class="cls-3" d="M40.93,69.56c.21.22-.21.37.09.6C41,70.06,41.17,69.69,40.93,69.56Z" transform="translate(-15.53 -0.71)"/><path class="cls-3" d="M44.26,86.51h0Z" transform="translate(-15.53 -0.71)"/><path class="cls-3" d="M41,70.16h0l0,0Z" transform="translate(-15.53 -0.71)"/><path class="cls-3" d="M51,73.59a.58.58,0,0,0-.08.1A.22.22,0,0,0,51,73.59Z" transform="translate(-15.53 -0.71)"/><path class="cls-3" d="M51.81,76.33l0-.08A.15.15,0,0,0,51.81,76.33Z" transform="translate(-15.53 -0.71)"/><path class="cls-3" d="M49.76,72.69s0-.08,0-.09a.08.08,0,0,0,0,0S49.77,72.63,49.76,72.69Z" transform="translate(-15.53 -0.71)"/><path class="cls-3" d="M48.67,71.68v.06l.05,0Z" transform="translate(-15.53 -0.71)"/><path class="cls-3" d="M38,84.52a2.56,2.56,0,0,1-.11.24C38,84.59,38.16,84.64,38,84.52Z" transform="translate(-15.53 -0.71)"/><path class="cls-3" d="M44.24,86.64c0-.07,0-.11,0-.13l0,0S44.22,86.62,44.24,86.64Z" transform="translate(-15.53 -0.71)"/><path class="cls-3" d="M48.1,74.16,48,74A.7.7,0,0,0,48.1,74.16Z" transform="translate(-15.53 -0.71)"/><path class="cls-3" d="M35.78,76.88l0,.05S35.8,76.9,35.78,76.88Z" transform="translate(-15.53 -0.71)"/><path class="cls-3" d="M47.58,73.65a.52.52,0,0,0,.05-.21l-.06,0Z" transform="translate(-15.53 -0.71)"/><path class="cls-3" d="M37.87,84.76Z" transform="translate(-15.53 -0.71)"/><path class="cls-3" d="M39.26,84.9c-.15-.1-.25.27-.39.43-.24,0,.05-.28.09-.48-.16,0-.43.24-.51.17s0-.08.09-.13c-.29.16-.36-.23-.71,0a.19.19,0,0,1,0-.09,3.13,3.13,0,0,1-.3.41c-.07,0-.27.08-.15-.12,0,0,.11,0,.17-.08l-.13,0c.15-.32.17,0,.33-.21-.21,0-.55.06-.59-.1.21-.28.31.11.38-.23l.07.23c.23-.51.07.11.33-.42-.13-.24-.34-.06-.44-.3-.18.1-.18.22-.36.31-.51,0,.42-.79-.08-.67-.21.1-.56.35-.51.05l.34-.18c-.11-.21-.52.22-.47-.14.15,0,.22.08.23,0,.16-.31-.24,0-.32-.07l.27-.22c-.18-.17-.54-.3-.72-.54.1,0,.21,0,.28-.14A1,1,0,0,1,36,81.27l-.32,0s.12-.09.18-.07c.08-.16-.18,0-.31,0s.14-.14.24-.11c-.31-.17-.67-.61-.39-.91l.1,0c.09-.21-.62-.17-.37-.4l.06,0c.09-.46-.18-1,.28-1.32-.42-.09.22-.41-.36-.5.33-.22.41-.14.67-.45,0-.08-.34-.2-.37-.33l.3.06L35.47,77h.38l-.05-.12a.31.31,0,0,1-.24,0c-.09-.2.32-.34.47-.29a3.43,3.43,0,0,1-.11-.46c.11.06.12.13.18.21-.22-.31.32.08.12-.2-.08,0-.17-.08-.22-.11a.35.35,0,0,0,.29-.38l.18.12c.17-.22.18-.57.38-.84-.15,0-.44-.18-.42-.29l.29.16c-.13-.17-.16,0-.28-.24.1-.08.35.15.39.27v-.19c.08.05.1.11.2.19-.12-.17.4,0,.18-.28l.08,0c.21-.24.22-.42.4-.62-.2-.21-.08-.24-.18-.46.22-.08.53-.07.7-.23s-.11-.22-.15-.4c.16.19.34,0,.35.25a2.14,2.14,0,0,0,.47-.63c-.09-.07-.16-.08-.18-.17s.19,0,.24.12v0c.2-.57,1.16.23,1.23-.36v0l.22-.37c.17,0,0,.21.13.32.23-.51.56-.09.79-.43.35.69.82-.17,1.18.3l0-.18c.07-.18.1.1.16.14,0-.14-.09-.16,0-.26.71-.24,1.45.29,2,.6.22.1.36-.87.56-.37l-.17.29c.6-.23.94.34,1.52.28-.06,0-.11.14-.15.12,0,.25.32.2.43,0,.05.06-.08.16-.1.27s.39-.11.3.12c0,0-.07,0-.09,0s.23.21.35,0c.07.21.36.13.37.35.28-.17.14.32.47,0-.32.32,0,.49.22.44-.13.06,0,.17-.21.26.1.1.25.13.41,0-.26.54.67.14.2.67a2.84,2.84,0,0,1,1,.72c-.4.19-.23-.35-.64-.1.32.2.77.22.81.59,0,.11-.2,0-.29,0,.32.26.2.64.51.87a.21.21,0,0,1-.13,0c0,.05,0,.15.17.09l-.07,0c.26-.18.66.1.82.08-.59,0-.08.36-.84.33a.34.34,0,0,0,.28,0c0,.07-.1.1-.26.07.15.2.35.09.37.29-.1,0-.14,0-.26,0,.21.07.42.15.35.34-.06,0-.14,0-.14,0,.06.29.56.49.37.84-.43-.09-.14.12-.51.14l.11.18.18-.07c0,.16.25.31.13.45l-.15-.13c0,.1,0,.2,0,.3l.16-.16c.17.18.47,0,.35.23,0,0,0,.17-.25.23h0c.11.09.22.2.11.31s-.4-.08-.48-.07c.3.12,0,.38.34.54a.68.68,0,0,0-.31-.08l.24.11c-.09.06-.13.06-.28,0-.1.21.47,0,.22.24,0,0-.06,0-.09-.07-.16.24,0,.55-.16.75-.38,0,0-.23-.35-.24,0,.33.2.83,0,1.1l.07,0c.45.27-.35.12-.21.38,0-.06-.23-.19-.18-.15-.18.16-.11.46-.18.85l-.09-.11c-.17,0-.26.24-.4.32.08.12,0,.17.19.26-.45-.08-.5.14-.57.37s-.14.48-.5.37c0,0,0-.17,0-.14l-.19.32c.17.16.12.08.29.17a.33.33,0,0,1,0,.34c0-.22-.23-.29-.36-.36a1.88,1.88,0,0,1,.12.18c-.39-.22.26.4-.12.33l-.06-.11c0,.11,0,.29-.13.32-.19-.2,0-.16-.11-.35-.1.1,0,.59-.22.43,0-.09.09-.14.1-.24-.29-.19-.25-.11-.37-.1h-.26l.09,0c.19.7-.25.29-.26.8,0-.49-.08-.24-.19-.52-.09,0-.21-.09-.23-.18,0,.26-.24-.11-.23.28-.05-.08-.12,0-.19-.2-.1.12.1.15.13.26-.09.4-.61-.19-.77.33-.21.26-.19.58-.43.8-.12-.13,0-.36,0-.36a.24.24,0,0,0-.38.07.41.41,0,0,0-.09-.26c-.1,0,0,.36-.18.24a2.73,2.73,0,0,1,0-.4,3.87,3.87,0,0,1-.33.4c0-.17.06-.26.09-.38-.14.09-.36.19-.39.46l.1.09c-.05,0,0-.23,0-.28.1-.22.18.08.2.17l-.09.07c.16.57.38-.13.57-.12l0,.42.14-.37c.06.1.13.32,0,.4.18.17.1-.17.26,0,0,0,0,.06,0,.07l.12-.15c0,.1.08.29,0,.25.31.17.34-.4.51-.12l0,0c.31-.24,0-.31.11-.72l.39.66-.06-.3a.12.12,0,0,1,.14.12c.07-.24-.06-.12-.05-.33.26.2.4-.29.62.14,0-.24-.22-.1-.12-.32.26.45.16-.17.41,0,.07.27-.14.2.12.35-.11-.46.33,0,.42-.2-.17-.33.2-.28.33-.51.05.12.48-.06.73-.09l0,.06c-.17-.32,0-.4.13-.56.13.18.16.26.14.4l.13-.1a.33.33,0,0,1,0-.29l.15.24c.15-.15.11-.52.43-.56-.17-.2-.63-.39-.56-.69.11.09.28.26.26.35s0-.14.06-.14l.08.25c.16,0-.09-.18,0-.23.14.14.15,0,.25.17s-.11,0-.09.08a.48.48,0,0,1,.42,0c-.08-.08-.19-.19-.15-.26s.22.1.38.08c-.07-.13.13-.14-.09-.34,0,0,.16,0,.23.07,0-.17.29-.43,0-.52h0v0h0c0-.45.56-.5.62-.88l.08,0c0-.23.16-.44,0-.66,0,0,.23-.06.33,0,0-.18-.11-.23.13-.39.1.21.16,0,0,.2.16-.16.33-.16.14-.46.22.15.36,0,.31-.18l-.21.09a.58.58,0,0,1,.09-.29L52,82c.52-.35-.49-.92.23-1.11-.21-.15-.2.2-.45.06.08-.18.58-.32.59-.39.22-.25-.44-.31-.3-.57-.12,0-.44,0-.53-.18.06-.18.51-.2.6-.08s0,.07-.07.07.08.15.21.08l-.11,0c.13-.09.13-.36.32-.29-.11-.16-.19-.07-.26,0,.18-.24,0-.39.14-.65-.07,0-.21.08-.21,0,.15-.39-.22-.17-.28-.42.17-.15.43,0,.27-.22.11-.17.31-.06.41,0-.24-.23.11-.48.14-.63l.11.12a.31.31,0,0,1-.08-.21l-.22.11c0-.08,0-.15.12-.16-.17-.06-.39.11-.62,0,.11-.12-.17-.28.13-.37,0,.33.31-.09.4.18a.19.19,0,0,1,0-.2.08.08,0,0,1,.09,0c.21-.36-.38-.08-.43-.39.18,0,.31-.15.26-.19,0,.13-.28.12-.44,0,.09-.23-.15-.19-.16-.29l0,.13c-.18,0-.19-.09-.28-.21.13,0,.13.1.17,0-.34,0,.21-.43-.06-.57.07-.13.31-.12.35-.23-.3-.16.12-.35-.15-.53-.19.17-.13.15-.42.09.11.1.21.21.32.32l-.42-.12c0,.12.24.19.23.28-.23,0-.17-.06-.33.07.26-.29-.32-.22-.18-.49l.54-.25c.1-.4-.51-.35-.59-.76l0,.16c-.23.08-.15-.18-.3-.24a.64.64,0,0,0,.26-.32c-.12.09-.15-.25-.49,0l.1-.29c-.11-.32-.66.07-.79-.2.22-.07.24-.26.48-.21-.06-.08-.09-.17-.2-.08.06-.13-.38,0-.3-.22-.1,0-.25.16-.32.07a.21.21,0,0,1,.07-.07c-.07.07-.21,0-.3.19.22-.65-.62-.53-.49-1.09a6.21,6.21,0,0,1-.63-.29s.06-.08.08,0c-.13-.3-.45.38-.59,0,0-.35.23-.07.21-.22.3-.57-.36-.12-.37-.54h.07c0-.28-.47,0-.69-.11a.31.31,0,0,0,0-.09,1.46,1.46,0,0,1-.9.22c.15-.22.15-.09.19-.35-.12,0-.11.4-.34.4a1.32,1.32,0,0,1-.08-.58l.21,0c0-.37-.27-.06-.36-.15l.06-.15c-.34,0-.43.35-.76.25v.12c-.25.35-.11-.24-.34,0v-.4a4,4,0,0,1-.69.38c.14-.28.42-.4.61-.55-.13,0-.43,0-.51.17,0,0,.12-.13.16-.06a.7.7,0,0,1-.62.41c.08-.77-.61-.22-.8-.8-.43.3-.89-.08-1.42,0,.27.56-.15,0,0,.64-.11.06-.15.06-.17,0l-.43-.28c-.12-.15.08-.16,0-.29-.27,0-.17-.23-.39-.34.09.2,0,.32-.19.29l.29.21c-.28.42-.47-.41-.75,0l.06-.22c-.16.17-.72.26-.7.79-.06,0-.17-.18-.11-.26-.49.13-.69.93-1.15.86l0-.14c0,.08,0,.32-.15.25s-.05-.14-.09-.13,0,.35-.19.35l0-.2c-.49.12-.31.75-.51,1.07a.65.65,0,0,0-.83-.12l0,0c-.44.35-.38.92-.53,1.41-.58,0-.77.73-1.23,1.05.11,0,.3.17.3.27s.14.41-.22.23l0,0c-.4-.09-.41.19-.49.36l.48.22c-.44.09-.49.43-.49.73s0,.57-.34.63c.11.14.08.28.19.42l-.28-.06a1.69,1.69,0,0,0-.15.89l-.19-.1c0,.23.79.35.8.54l-.43,0c0,.38-.37.78,0,1.15-.06,0-.18,0-.2-.07,0,.18-.23.74.34.61-.39,0,0,.41.2.58h-.28c.38.12.48.11.62.32,0,.07-.21.1-.15,0-.11.22.28.09.19.34l-.19,0c0,.2.11.16.34.21s0,.37-.2.47c.15,0,.38,0,.35.15a.19.19,0,0,1-.19,0c-.06.39.48.34.31.66-.08,0-.12.07-.13.1-.1-.25-.17-.45-.14-.44-.25.09-.2.31-.6.28.26.1.75.21.74.45a.22.22,0,0,1-.07.06h0s0,.08.1.1a.33.33,0,0,0,0,.2c-.17.12,0,.28.08.38.23-.15.27,0,.4-.24,0,0,0,0-.09,0a.09.09,0,0,0-.05,0h0l-.15-.22c.17,0,.32,0,.24.2l.46-.1c-.26.31-.28.67-.45.85.32.18.57.58,1.1.37.11,0,0,.18-.08.26s-.11,0-.19,0c.23,0,.42.37.71.12,0,.28-.33.16,0,.34l-.11.05c.1.88,1.33-.09,1.43.89a.2.2,0,0,1,0-.15c.48.72,1.49.51,2,1.25.18.17.28,0,.45-.18l0,.3.31-.27c.35-.17.37.86.87.46l0-.21c.14.07.47,0,.41.18,0,0,.08-.2.12-.09l0,.15.38-.23c.26.14-.1.63.31.68.16-.05.45-.44.39-.55s-.14-.1-.14-.26l.13-.08a1.75,1.75,0,0,0-.14-1.27l-.22.28,0-.24h.17c-.08-.21-.15,0-.23.09a.38.38,0,0,0-.06-.25l-.23.42c0-.18.12-.35,0-.46-.12.19,0,.41-.13.53-.07-.22,0-.39-.15-.22a.3.3,0,0,1,.08-.24c-.11.13-.26,0-.35.25-.05-.27-.34,0-.24-.42-.05.09-.24.3-.33.3.28-.47-.32-.12-.13-.65-.24.42-.45.08-.74.25,0,0,.07-.1.08-.07s-.07-.22-.11-.33c-.16.35-.37.37-.56.54,0-.41.27-.38.37-.73-.12.29-.35.18-.42.44a.79.79,0,0,1,.06-.46c-.24.43-.13,0-.35.25,0-.29.18-.42,0-.38C39,85,39.26,84.9,39.26,84.9Zm-3.43-2.34h0l0,.07Zm-.15-.33a1.31,1.31,0,0,0,0,.15c-.08.05-.18.08-.19,0S35.63,82.31,35.68,82.23Zm-1.36,1.64c-.07,0,0-.09,0-.13l.09.1h0A.38.38,0,0,1,34.32,83.87Z" transform="translate(-15.53 -0.71)"/><path class="cls-3" d="M34.7,83.81h0l0-.07-.09,0Z" transform="translate(-15.53 -0.71)"/><path class="cls-3" d="M50.14,84.35h0Z" transform="translate(-15.53 -0.71)"/><polygon class="cls-3" points="20.29 76.58 20.22 76.56 20.27 76.6 20.29 76.58"/><path class="cls-3" d="M47.89,85.22l-.07,0S47.86,85.21,47.89,85.22Z" transform="translate(-15.53 -0.71)"/><path class="cls-3" d="M47.1,85.68l-.16,0A.6.6,0,0,0,47.1,85.68Z" transform="translate(-15.53 -0.71)"/><path class="cls-3" d="M46.44,85.89l0,.11h0Z" transform="translate(-15.53 -0.71)"/><path class="cls-3" d="M50,76.88a0,0,0,0,0,0,0C49.92,76.82,50,76.85,50,76.88Z" transform="translate(-15.53 -0.71)"/><path class="cls-3" d="M50.87,80a.68.68,0,0,1-.12-.12C50.72,80,50.71,80,50.87,80Z" transform="translate(-15.53 -0.71)"/><polygon class="cls-3" points="32.58 73.47 32.59 73.46 32.57 73.45 32.58 73.47"/><path class="cls-3" d="M50.76,79.76a.09.09,0,0,0,0,.15S50.8,79.81,50.76,79.76Z" transform="translate(-15.53 -0.71)"/><path class="cls-3" d="M43.62,86.52h0a0,0,0,0,1,0,0Z" transform="translate(-15.53 -0.71)"/><path class="cls-3" d="M43.58,86.56l0,0S43.58,86.59,43.58,86.56Z" transform="translate(-15.53 -0.71)"/><path class="cls-3" d="M43.48,86.67l.07-.07S43.49,86.59,43.48,86.67Z" transform="translate(-15.53 -0.71)"/><path class="cls-3" d="M44.52,86.53v-.1A.41.41,0,0,0,44.52,86.53Z" transform="translate(-15.53 -0.71)"/><path class="cls-3" d="M44.78,86.45c-.07,0-.21-.17-.28-.1v.08C44.52,86.28,44.75,86.63,44.78,86.45Z" transform="translate(-15.53 -0.71)"/><path class="cls-3" d="M46.32,87.29l-.28,0c.08.08.19.2.08.26C46.56,87.76,46,87.37,46.32,87.29Z" transform="translate(-15.53 -0.71)"/><path class="cls-3" d="M47.13,87.09c-.1.11.08.14.1.2C47.27,87.16,47.27,87.13,47.13,87.09Z" transform="translate(-15.53 -0.71)"/><path class="cls-3" d="M51.26,82.83l.23.12C51.5,82.83,51.4,82.91,51.26,82.83Z" transform="translate(-15.53 -0.71)"/><polygon class="cls-3" points="34.83 80.68 34.65 80.73 34.87 80.84 34.83 80.68"/><polygon class="cls-3" points="36.75 80.47 36.78 80.52 36.72 80.31 36.75 80.47"/><path class="cls-3" d="M49,71.66l-.18.26C49,71.92,49.2,71.67,49,71.66Z" transform="translate(-15.53 -0.71)"/><path class="cls-3" d="M44.88,70c0-.16-.12-.28-.22-.14C44.75,69.9,44.83,70,44.88,70Z" transform="translate(-15.53 -0.71)"/><polygon class="cls-3" points="18.17 74.84 18.1 74.71 18.13 74.91 18.17 74.84"/><path class="cls-3" d="M17.07,25.05c-.08-.14-.28-.06-.24.27l.34.21C17.13,25.38,17.1,25.21,17.07,25.05Z" transform="translate(-15.53 -0.71)"/><path class="cls-3" d="M16.88,27.37c.31.34.78.59.93.23-.45-.2-.37-.33-.87-.6-.15-.32-.06-.6.08-.57-.12-.1,0-.51-.25-.67a1.45,1.45,0,0,0,.33,1.55C17.08,27.46,17,27.38,16.88,27.37Z" transform="translate(-15.53 -0.71)"/><path class="cls-3" d="M40.75,14.88l-.22,0Z" transform="translate(-15.53 -0.71)"/><path class="cls-3" d="M56.66,23.64c0-.15-.06-.21-.1-.21S56.63,23.68,56.66,23.64Z" transform="translate(-15.53 -0.71)"/><path class="cls-3" d="M56,27l.08-.18C56,26.85,56,26.91,56,27Z" transform="translate(-15.53 -0.71)"/><path class="cls-3" d="M40.75,14.88l.56,0C41.33,14.73,41,14.83,40.75,14.88Z" transform="translate(-15.53 -0.71)"/><path class="cls-3" d="M20.33,30.36a.83.83,0,0,0-.28-.09l.24.12Z" transform="translate(-15.53 -0.71)"/><path class="cls-3" d="M34.26,20.89l-.08.15a.67.67,0,0,0,0,.19Z" transform="translate(-15.53 -0.71)"/><path class="cls-3" d="M31.43,27.56c.08-.16-.16-.32-.25-.43a.56.56,0,0,1,0,.42A.28.28,0,0,0,31.43,27.56Z" transform="translate(-15.53 -0.71)"/><path class="cls-3" d="M21.23,32.07,21,32Z" transform="translate(-15.53 -0.71)"/><path class="cls-3" d="M37.35,17a.2.2,0,0,0,.11,0A.2.2,0,0,0,37.35,17Z" transform="translate(-15.53 -0.71)"/><path class="cls-3" d="M19.72,17.46s0,0,0,0S19.69,17.5,19.72,17.46Z" transform="translate(-15.53 -0.71)"/><path class="cls-3" d="M16.33,25v-.12l-.16,0Z" transform="translate(-15.53 -0.71)"/><path class="cls-3" d="M52.27,31.82l0,0C52.4,31.66,52.33,31.73,52.27,31.82Z" transform="translate(-15.53 -0.71)"/><path class="cls-3" d="M53.85,52.13c-.32.16-.2-.09-.11-.32s.18-.42-.29-.15C53.59,51.67,53.18,52.64,53.85,52.13Z" transform="translate(-15.53 -0.71)"/><path class="cls-3" d="M20.45,30.48l.23.13A1,1,0,0,0,20.45,30.48Z" transform="translate(-15.53 -0.71)"/><path class="cls-3" d="M53.45,51.66h0l-.09.06Z" transform="translate(-15.53 -0.71)"/><path class="cls-3" d="M40.74,42.41a.51.51,0,0,0,.2,0S40.86,42.36,40.74,42.41Z" transform="translate(-15.53 -0.71)"/><path class="cls-3" d="M49.69,34.84l-.24.16Z" transform="translate(-15.53 -0.71)"/><path class="cls-3" d="M37.34,47.74a1,1,0,0,0-.22.38l.06,0A.49.49,0,0,1,37.34,47.74Z" transform="translate(-15.53 -0.71)"/><path class="cls-3" d="M35.29,53.93a.67.67,0,0,0,.07-.11l0-.21Z" transform="translate(-15.53 -0.71)"/><path class="cls-3" d="M32.86,5.41a1.17,1.17,0,0,1-.35-.13C32.67,5.43,31.88,5.84,32.86,5.41Z" transform="translate(-15.53 -0.71)"/><path class="cls-3" d="M20.24,30.49a.22.22,0,0,1,.21,0l-.16-.09S20.22,30.45,20.24,30.49Z" transform="translate(-15.53 -0.71)"/><path class="cls-3" d="M39.19,49c-.15.28-.3.55-.44.83C38.88,49.58,39,49.28,39.19,49Z" transform="translate(-15.53 -0.71)"/><path class="cls-3" d="M70.33,17.42l-.12-.19A.44.44,0,0,0,70.33,17.42Z" transform="translate(-15.53 -0.71)"/><path class="cls-3" d="M37.87,52.39a1.29,1.29,0,0,0-.31.46.42.42,0,0,0,0,.12Z" transform="translate(-15.53 -0.71)"/><path class="cls-3" d="M32.5,5.28h0Z" transform="translate(-15.53 -0.71)"/><path class="cls-3" d="M27.35,9c.75-.5.14-.53.18-.82.86-.7.58-.05,1-.1.51-.44.79-1,1.24-1.25.07,0,.16,0,.1.13.49-.62,1.88-1,2.5-1.68a.21.21,0,0,1,.14,0,.65.65,0,0,1-.32-.42c.38-.16.63-.51.87-.35-.24.09-.22.19-.31.31l.37-.27c.49.18-.51.34-.41.58A8,8,0,0,1,34.94,4c.22.27-1.41.59-.49.6-.33.06-.66.14-1,.22.9.23-.58.18.28.47a23.42,23.42,0,0,1,2.59-.92c.23-.25-.17-.24.07-.5,1.76-.77,1.61.5,2.86-.19.31-.28.39-.73,1.4-.63l-.29.42c1.27-.1.67-.64,2-.49-.22.17-1,.21-.79.24.89.24.59-.28,1.26-.31l.16.33a39.61,39.61,0,0,1,4.39-.33c-.09.09-.36.18,0,.31a16.3,16.3,0,0,1,5.76,1l.75-.12c.15,0,.25.2.07.21.65.29.08-.17.44-.19s.47.3.2.32A9.55,9.55,0,0,1,59.26,6L59,6c.86.55,1.32,0,2,.69l-.18-.05c1.89,1.18,4,2.51,4.92,4,.55-.09,1.34,1.71,1.86,1.46.54,1.19.28.94,1.06,2.52.22.41.68.41,1,.9l-.26.16.65.56-.16.54.29.46c-.07-.2,0-.48,0-.48a2.89,2.89,0,0,1,.41,2.08c.28.61.54,1.23.76,1.87-.13,0-.25-.34-.38-.57.53,1-.26.25.2,1.14.05-.14.19,0,.26.05a10.28,10.28,0,0,0,.15,2.43l-.22-.15a23.4,23.4,0,0,1-.22,4.75c.2-.56.54-.37.49.13l-.36.13c.13.35.22-.49.33.21-.18.61-.45.32-.48,0,0,.25,0,.5-.07.75-.1,0-.11-.17-.22-.24.13.36-.66,1.12-.49,1.63H70.3c-.29.75-.53,1.28-.77,1.77a16,16,0,0,1-.87,1.57c.22.18-.13.6-.18,1.06-.67.79-1.54,1.54-2.35,2.43-.49.72,0,.35-.16.74-.21-.13-1.1.73-.75.16a35.83,35.83,0,0,0-2.74,2.76c.23-.06.44-.18.41,0-.24.27-.68.45-.72.33l0-.08C60.85,43.34,58,44.38,57,45.92l0-.08-1.16,1.4c-.65.51.25-.48-.32-.19-1.15,1.67-2.33,2.14-3.31,3.48a4.66,4.66,0,0,0-2.12,2.34,17.49,17.49,0,0,0-.76,1.75l-.32.83a3.23,3.23,0,0,1-.3.65l.2-.05c.06.47-.23.49-.35.79.14,0,.27-.42.29-.13-.18.92-.41,1.85-.66,2.76a6.88,6.88,0,0,1-.94,2.28,4.38,4.38,0,0,1-3.67,2,1.21,1.21,0,0,0-.92.44c-.2.18-.49.33-1.2,0a4.87,4.87,0,0,0,.45-.27,4.26,4.26,0,0,1-3.12-1.14,6.69,6.69,0,0,1-1.77-2.83c.11.12.21.1.26.32a3,3,0,0,0-.14-1.08c-.1-.38-.22-.73-.31-.73,0-.38.17-.09.26-.33.13-.48-.27-1.36,0-1.63,0-.05.07.15.09.26-.11-.37.16-1.65-.15-1.34a15.06,15.06,0,0,1,.47-2.56c-.2-.57.57-1.52.21-1.8.39.19.92-1.4,1-2,0,.24.37-.41.43-.11.31-.61.57-1.19.3-1.21,1.1-.79,1.1-2.39,2.11-2.5a34.33,34.33,0,0,1,3.92-4.57c.25.37-1.55,1.48-1.16,1.77a20.53,20.53,0,0,1,3.21-3.5c.4-.26-.08.33-.15.49,1.27-1.32,2.75-2.33,3.83-3.61,0,0-.08.19-.18.33.24-.23.62-.46.45-.59l-.2.26c-.59.12.56-1.33.5-1.48,0,.8,1.33-1,1.17.15.14-.17.28-.42.14-.49.27-.18.4-.19.27.14.8-.86.35-.72,1.12-1.51.07.07,0,.26,0,.43a6.12,6.12,0,0,1,1.12-1.77c0,.08.15,0,0,.26a7.82,7.82,0,0,0,1-1.95l.87-2.17c.27.64.31-.55.68-.58,0-.34.05-.67.05-1l-.23.37c.13-.86-.14-1.61-.06-2.32a6.29,6.29,0,0,1,.17.62,12,12,0,0,0-.19-1.58,8.72,8.72,0,0,1,0,.9c-.27-.81-.44.13-.48-.95.08.21-.13-.79,0-1.26h0a4,4,0,0,1-.64-1.29c0-.19.42-.05.45-.18-.42-.26-1-1.71-1.63-1.9.16.09.32,0,.32-.09L55.44,18c-.18-.35-.19-.41,0-.47-.75-.89-.09.57-.88-.55.09.06.08,0,.26.13a12.18,12.18,0,0,0-3.16-2.28c-.16-.52,1,.45.8,0A16.42,16.42,0,0,0,47,13.47l.32.08c-.29.49-1.27-.4-2.17-.15.22,0,.29-.29.23-.23a11.56,11.56,0,0,0-4.19.67l.19-.17a9.61,9.61,0,0,0-2.58.66c-.16.21-.56.39-.24.45a4.31,4.31,0,0,0-2.84,1.9,13.42,13.42,0,0,1-2,2.47c.14-.21.23-.56.12-.39-.3.51-.56,1-.82,1.56.27,0,.24-.13.58-.35a2.91,2.91,0,0,1-.35,1.11c.24-.76-.33-.18-.6.07.09,0,.1.12.18.13-.78.62.34.34-.44,1.32l-.09-.11a7.26,7.26,0,0,1-.38,1.34c-.33.08.08-.5-.11-.62-.27.66-.06,1.47-.53,2,0-.3.18-.71.23-1a2.49,2.49,0,0,0-.73,1.1l0,0-.53,1.05.18-.24c.37,1-.46,1.64-.67,2.83.19-1.18-.13-.28-.34-.51-.21.2-.52.48-.53.34-.1.56-.62.54-.86,1.26-.08,0-.4.35-.47.08-.44.44.22,0,.26.17a2.41,2.41,0,0,1-1.46.86,18.9,18.9,0,0,0-2,.52,7.26,7.26,0,0,1-2.84.35c-.35-.28.44-.23.43-.24A10.36,10.36,0,0,0,20.37,31c.15,0,.07-.14,0-.33-.41-.24-.48.12-.91-.4a2.06,2.06,0,0,1,.62,0,6.87,6.87,0,0,1-1.51-.92c0-.23.43.11.66.17-.54-.4-1.22-1.21-1.54-1.27.05.14.1.29.16.43-.15-.21.12-.23.26-.12.5.34.44.72.39.81l-.33-.3c-.08.36.24.71.66,1s.95.51,1.31.75l-.55.14a6.78,6.78,0,0,0,1,.19c.11.19.14.47-.3.3.51.5.59.14,1,.56,0,.06,0,.06-.05.06.23,0,.45.06.67.08-.15.05,0,.32-.35.14,1.15.58,1.95,0,2.38.34l-.1,0c.84-.08.86-.19.85-.29s-.09-.21.47-.47a6.9,6.9,0,0,0,1,.56l.08-.34c.17,0,.48-.15.47,0,.52-.43-.15-.09.12-.4a2.8,2.8,0,0,0,1.29-.64c.39-.28.67-.56.92-.45.05-.36-.7.4-.18-.3.56.17.62-.79,1.19-1.27.11.34-.43.86.2.36-.11-.61.84-1.22,1-1.87-.3-.16.35-1.35.58-2.33.08.1.87-1.71,1.41-2.5l0,.06c-.25-.32.23-1.18.52-1.83.17.14.19.29.1.67l.31-.58a1.34,1.34,0,0,1,.21-.79l.14.28a7.81,7.81,0,0,1,1.53-2.41c-.15-.22-1.14.26-.48-.8.13.05.34.18.18.45a1.17,1.17,0,0,1,.34-.47l-.15.51c.42-.31,0-.33.33-.62.14.14.31-.12.38,0s-.3.2-.35.37a2,2,0,0,1,1-.6c-.11-.07-.18-.2,0-.44.67-.51.37,0,.83-.16.08-.24.62-.36.49-.63.22-.11.32,0,.44,0,.32-.34,1.89-.73,1.33-.88l-.12,0,.07,0h0c1.36-.72,3.06-.43,4.51-.56v.1c.89-.13,1.95,0,2.61-.11.26,0,.58.27.45.37a3.09,3.09,0,0,1,1.64.4c-.68,0,.17.2-.69-.08a5.27,5.27,0,0,0,1.85.64c-.38.1.43.55.8.69-.13-.15-.28-.29-.43-.44a4.67,4.67,0,0,1,1.07.64l-.36.16a10.2,10.2,0,0,0,1.84,1.37,2.26,2.26,0,0,1,1.18,1.61c.45.24-.38-.84.07-.68a4.83,4.83,0,0,1,.47,1.83c.22,1,.84.73,1,1.86.07-.16.38-.38.63.48.06.84-.41,1-.54.54,0-.18,0-.28,0-.27-.06-.25-.17-.57-.25-.25l.13.09c0,.39,0,1.45-.22,1.21.12.58.2.25.26-.19a10.78,10.78,0,0,1-.39,2.49c.1-.13.27-.24.23-.09-.26.7-.29.86-.25,1s.13.21-.08.69c-.44.44-.26-.38-.65.6-.44.48-.33-.06-.29-.32a4.09,4.09,0,0,1-1.47,1.75l.23-.44a2.88,2.88,0,0,1-.44.64l.36-.07c-.22.2-.38.38-.45.31-.09.33.45.09.2.69-.35.21-.79.95-1.13.82,1-.79-.29-.14.43-.9a1.84,1.84,0,0,1-.55.51c-.06,0,0-.08,0-.14-1.13.61-.19.63-1.16,1.48,0-.24-.46,0-.59.12.39-.34.39,0,.12.47-.72.45-.61.67-1,1l.42-.28c0,.24-.34.5-.74.93-.13-.08.34-.42.14-.33-.28.66-1.31.71-1.84,1.47-.39.18-.25-.23-.58-.05-.63.83-1,.53-1.69,1.38.39,0,.39-.11,0,.57l1.22-1.28-.63,1c.4-.35.75-.85,1-1-.28.5-.28.42,0,.41-.78.2-1,1.09-1.74,1.47l-.37-.46c-1.13.65-1.48,1.72-2.77,2.76l.45-.29c0,.32-.71.73-1,1.18-.11-.18-.39,0-.64.09.12.07-.87.89-.67,1.27l-.69.42c-.94,1-.51,1.57-1.25,2.62,0-.45-.42,0-.07-.84-.24.37-.48.69-.36.77-.25.16-.38,1.18-.72,1.45,0,.21.15.35-.07.78-.06,0-.09,0-.09,0s-.19.75.18.45a4.46,4.46,0,0,0-1.11,2.26,8.78,8.78,0,0,1-.73,2.3c-.09,1-.13,2.09-.16,3-.05-.06-.09,0-.07-.17-.22,1.18.51.73.35,2.08-.28.72-.21-.72-.31-.28-.65.24.18,1.67.13,2.68l-.1-.22c0,.81.83,1.71,1.59,2.66,0,0-.08,0-.08.06a14,14,0,0,0,3.16,1.61c-.42.1-.53-.08-.44.24.5.17,0-.41,1-.15.26.24.95.49,1,.77a8.26,8.26,0,0,1-1-.18c.41.49,1.27.25,1.77.33l-.08.15a4,4,0,0,0,1.52-.26,13.08,13.08,0,0,1,1.54-.46L45,65.55c.69-.62.78,0,1.44-.65l.43.2a5.9,5.9,0,0,0,1-1.06,8.78,8.78,0,0,0,.83-1.47,4.44,4.44,0,0,1-1.24,2.35,4.7,4.7,0,0,0,.94-.92,2.13,2.13,0,0,0,.48-1,1.65,1.65,0,0,1-.38.67c.21-.77.53-1.6.88-2.63.32.22.62-.47.81-1.28A4.52,4.52,0,0,1,51,57.87a7.81,7.81,0,0,1,.7-2.59,12.57,12.57,0,0,1,.66-1.18c.23-.36.5-.74.8-1.14-.91.21.34-.47-.2-.76.28-.4.42-.53.48-.54l1.34-.79c.38-.12-.24.42-.11.48.81-.71.51-.13,1.13-.5-.25-.05,0-.48.55-.84l-.81.39c.88-1.28,1.22-.52,2.19-1.8l-.24.48c.52-.62,2.22-2,2.49-2.85.15,0,.4,0,.17.22,1.48-1.22,2.85-3.21,4.17-4v.21c.24-.27.28-.62.71-.81,0,.06,0,.21.13.1a3.75,3.75,0,0,1,1-1.07l-.19.39a6.72,6.72,0,0,0,1-.82,8.86,8.86,0,0,0,.68-.9c.39-.61.7-1.22,1.17-1.88.34.3,1.41-.83,1.89-1.44l0,.06a14.38,14.38,0,0,0,2.24-5.6,7.08,7.08,0,0,0,1-2.86c.2-1.21.26-2.52.38-3.59-.08.33-.34-.05-.41-.42s-.39-1.33,0-1.29v.18c.36-.41.15-1.44,0-2.23l-.54,0a6.52,6.52,0,0,0-.8-3.54,8.52,8.52,0,0,1-1.09-2.74c-.36-.38-.68-.91-1.06-1.26l.25-.13a13.48,13.48,0,0,0-2.3-3.05l.38.13c-.65-.75-1.43-.35-2.06-.94l.09-.49c-1.23-1.13-2.42-2.46-4-3,.05,0,.16-.12.4,0-.65-.45-2.54-1.75-2.55-1.09.16-.35-1.54-.8-2.43-1l.23-.2a4.4,4.4,0,0,1-1.91-.11c-.22-.12-.14-.29.15-.11-.74-.4-.69,0-1.6-.37l.4-.07a1.68,1.68,0,0,0-1.28-.05c-.53,0-1.54-.42-1.62-.69a1.34,1.34,0,0,1-1.11.1c0-.11.13-.14.23-.15-1.38-.42-2.13,0-3.06-.33a.23.23,0,0,0-.15-.18,16.44,16.44,0,0,1,1.93.24c0-.25-.87-.41-.1-.67a11.21,11.21,0,0,1-2.93.23A.31.31,0,0,1,47.18,1l.09,0a1.31,1.31,0,0,0-.56,0A5,5,0,0,0,46,.86c-.1-.22-1-.13-1.51-.13,0,.28-.55.24,0,.46-.08,0,.08,0,.38,0l.2,0,0,0c.29,0,.68,0,1.12,0a1.74,1.74,0,0,1-1.23.09c-.23.18-.48.37-.63.46-.61-.39-1.82-.54-2-.77-1.38.24-3.28.46-4,1.14-.37.15-.47-.06-.63-.11a3.55,3.55,0,0,0,.59-.24c-.76.27-2.29.56-2.37,1-1,.1.45-.48-.85-.05l.14-.16A6.47,6.47,0,0,0,31.8,3.83a10.92,10.92,0,0,1-3.36,1.75c.2-.06.3-.1.37-.06a17.14,17.14,0,0,0-4.27,2.9C23.23,9.58,22,10.83,20.78,12c-.69.69-.55.93-.74,1.5h-.36c-.1.34-.18.69-.25,1-.51,1.3-1.9,1.75-2.18,3.62l.28-.13c-.3.57-.6,1.93-.78,1.76a.43.43,0,0,1,0,.48l-.15,0c-.06.54-.11,1.07-.12,1.6-.34,1.18-.61-.32-.91,1.49,0,.7.33,2,.45,1.7s.12-.68.28-.69l.06.6c.47.14.91.54,1.31-.79-.07-.32-.12-.65-.18-1l.27-.27c0,.26-.06.53-.09.79a1.19,1.19,0,0,0,0-1.07.6.6,0,0,0,.32-.34c-.09-.33-.15-.67-.22-1,.2-.07.24.49.5-.09-.08-.48-.51.31-.44-.44.33-.39.46-.2.45-.77.14,0,.17.1.16.32,0-.51.37-1.21.23-1.54.42-.34.62-1.52,1-1.28A3.22,3.22,0,0,1,20,16.12c0,1,.88-1.43,1.27-.93-.09-.77,1-1.89,1.54-2.85a.43.43,0,0,1-.11.27,4,4,0,0,1,1-.68c-.23-.32.36-1.06.57-1.58.8-.23,0,.64.41.75-.26-.22.72-1.09.36-1.13.59-.19.45-.23.88-.16-.24-.45.35-.39.54-.92.8-.29.43.24,1.08-.4C27.9,8.37,27.35,9,27.35,9ZM47.43,2.8h0ZM49.25,3c-.22,0-.49-.07-.79-.09-.05-.1,0-.19.21-.17C48.56,2.74,49,2.84,49.25,3ZM45.4.78c.3,0,.41,0,.45.08l-.54,0,0,0A.39.39,0,0,1,45.4.78Z" transform="translate(-15.53 -0.71)"/><path class="cls-3" d="M44.85,1.15l-.12,0,.18.06L45,1.14Z" transform="translate(-15.53 -0.71)"/><path class="cls-3" d="M40.49,14.9h0a.13.13,0,0,1-.09,0Z" transform="translate(-15.53 -0.71)"/><polygon class="cls-3" points="53.84 14.99 53.9 14.96 53.77 14.85 53.84 14.99"/><path class="cls-3" d="M32.67,21.15s-.07,0-.13.09A.42.42,0,0,0,32.67,21.15Z" transform="translate(-15.53 -0.71)"/><path class="cls-3" d="M30.8,25.26l-.31.57A6,6,0,0,0,30.8,25.26Z" transform="translate(-15.53 -0.71)"/><path class="cls-3" d="M29.39,28.23a.42.42,0,0,0,.07.12h0Z" transform="translate(-15.53 -0.71)"/><path class="cls-3" d="M51.12,36.09a.76.76,0,0,0-.09.09C50.83,36.43,51,36.27,51.12,36.09Z" transform="translate(-15.53 -0.71)"/><path class="cls-3" d="M57.35,21.56c.09.16.19.32.27.49C57.56,21.75,57.5,21.52,57.35,21.56Z" transform="translate(-15.53 -0.71)"/><polygon class="cls-3" points="23.72 48.18 23.71 48.18 23.66 48.27 23.72 48.18"/><path class="cls-3" d="M57.76,22.83a1.87,1.87,0,0,0-.14-.78A5.1,5.1,0,0,0,57.76,22.83Z" transform="translate(-15.53 -0.71)"/><path class="cls-3" d="M18.41,28.43l-.08-.13a0,0,0,0,1,0,0Z" transform="translate(-15.53 -0.71)"/><path class="cls-3" d="M18.29,28.32l-.12-.12C18.21,28.26,18.25,28.32,18.29,28.32Z" transform="translate(-15.53 -0.71)"/><path class="cls-3" d="M17.93,27.94a2.84,2.84,0,0,0,.24.26C18.1,28.1,18,28,17.93,27.94Z" transform="translate(-15.53 -0.71)"/><path class="cls-3" d="M21.44,31.05l.08-.08A.13.13,0,0,0,21.44,31.05Z" transform="translate(-15.53 -0.71)"/><path class="cls-3" d="M22.63,31.34c-.29-.07-.66-.36-1.05-.44l-.06.07C21.73,30.89,22.31,31.47,22.63,31.34Z" transform="translate(-15.53 -0.71)"/><path class="cls-3" d="M28.25,31.38a6.32,6.32,0,0,1-1.1.56c.24,0,.58,0,.07.28.8-.21.68-.27.57-.29S27.57,31.82,28.25,31.38Z" transform="translate(-15.53 -0.71)"/><path class="cls-3" d="M30.8,28.57c-.28.6.14.07.18.13C31.09,28.28,31.1,28.18,30.8,28.57Z" transform="translate(-15.53 -0.71)"/><path class="cls-3" d="M48.23,14.83l-.11.24C48.57,15.12,48.15,15,48.23,14.83Z" transform="translate(-15.53 -0.71)"/><path class="cls-3" d="M53.26,15.56l-.32-.41-.32.07Z" transform="translate(-15.53 -0.71)"/><path class="cls-3" d="M54.13,18.83,54,18.71c.17.16.35.32.52.5C54.38,19.07,54.25,19,54.13,18.83Z" transform="translate(-15.53 -0.71)"/><path class="cls-3" d="M35.26,52.73l.34-.08C35.62,52.32,35.28,52.16,35.26,52.73Z" transform="translate(-15.53 -0.71)"/><path class="cls-3" d="M45.08,65.84a1.25,1.25,0,0,0,1.16-.3A11.91,11.91,0,0,1,45.08,65.84Z" transform="translate(-15.53 -0.71)"/><path class="cls-3" d="M73.49,19.42l.2.37c-.08-.24-.18-.48-.27-.72Z" transform="translate(-15.53 -0.71)"/></g></svg>