<svg xmlns="http://www.w3.org/2000/svg" viewBox="0 0 88.61 68.53"><defs><style>.cls-1{fill:#f2b880;}.cls-2{fill:#5d5d5e;}.cls-3{fill:#464647;}.cls-4{fill:none;}</style></defs><title>codeLogo</title><g id="Isolation_Mode" data-name="Isolation Mode"><polygon class="cls-1" points="86.81 65.5 3.23 65.5 3.23 10 3.65 2 28.31 2 31.98 10 86.81 10 86.81 65.5"/><path class="cls-2" d="M85.46,75.75c.17.15.56.07.48-.36l-.66-.29Z" transform="translate(0.02 -10.25)"/><path class="cls-2" d="M86.68,72.91c-.32-.49-.88-1.07-1.49-.75.64.5.37.61,1.13,1.14.08.43-.21.74-.46.67.17.15-.14.66.27.88a1.53,1.53,0,0,0,.11-2C86.39,72.72,86.56,72.88,86.68,72.91Z" transform="translate(0.02 -10.25)"/><path class="cls-2" d="M87.72,31.66l-.08.27A.77.77,0,0,0,87.72,31.66Z" transform="translate(0.02 -10.25)"/><path class="cls-2" d="M72.64,19c.19,0,.28-.08.29-.14C72.74,18.86,72.6,18.9,72.64,19Z" transform="translate(0.02 -10.25)"/><path class="cls-2" d="M68.28,18.23l.25,0C68.43,18.21,68.34,18.18,68.28,18.23Z" transform="translate(0.02 -10.25)"/><path class="cls-2" d="M87.72,31.66l.2-.68C87.71,30.93,87.76,31.33,87.72,31.66Z" transform="translate(0.02 -10.25)"/><path class="cls-2" d="M85.09,67.22a.9.9,0,0,0,.17.37c0-.11-.05-.23-.07-.34Z" transform="translate(0.02 -10.25)"/><path class="cls-2" d="M88.25,42.93v.2a1.81,1.81,0,0,0,.27.18Z" transform="translate(0.02 -10.25)"/><path class="cls-2" d="M88.35,51.57c0-.19-.53-.26-.78-.34a.7.7,0,0,1,.39.43A1,1,0,0,0,88.35,51.57Z" transform="translate(0.02 -10.25)"/><path class="cls-2" d="M87.37,65.28l.07.25C87.42,65.46,87.4,65.36,87.37,65.28Z" transform="translate(0.02 -10.25)"/><path class="cls-2" d="M88.37,36.74a.71.71,0,0,0,.21-.08A.37.37,0,0,0,88.37,36.74Z" transform="translate(0.02 -10.25)"/><path class="cls-2" d="M76.77,73.11a.33.33,0,0,0,0,.1C76.82,73.15,76.83,73.11,76.77,73.11Z" transform="translate(0.02 -10.25)"/><path class="cls-2" d="M86.79,75.9l-.14,0c0,.1,0,.21,0,.31Z" transform="translate(0.02 -10.25)"/><path class="cls-2" d="M60.29,17.51h0C60.53,17.46,60.42,17.47,60.29,17.51Z" transform="translate(0.02 -10.25)"/><path class="cls-2" d="M.89,23.7c.5-.82.64,1.37,1.2.13C1.87,23.94,1.21,22.67.89,23.7Z" transform="translate(0.02 -10.25)"/><path class="cls-2" d="M85.16,67c0-.12,0-.24,0-.36A1.06,1.06,0,0,0,85.16,67Z" transform="translate(0.02 -10.25)"/><path class="cls-2" d="M2.09,23.83h0l.06-.13Z" transform="translate(0.02 -10.25)"/><path class="cls-2" d="M41.89,17.85a.63.63,0,0,0,.19.24C42.07,18,42,18,41.89,17.85Z" transform="translate(0.02 -10.25)"/><path class="cls-2" d="M55.6,18.65l-.34-.08A1.27,1.27,0,0,0,55.6,18.65Z" transform="translate(0.02 -10.25)"/><path class="cls-2" d="M34.77,18.64c-.18,0-.25-.12-.5,0l.08.06A.38.38,0,0,1,34.77,18.64Z" transform="translate(0.02 -10.25)"/><path class="cls-2" d="M31.5,15.4a1.16,1.16,0,0,0,0,.18l.12.2Z" transform="translate(0.02 -10.25)"/><path class="cls-2" d="M54.25,73.38a1.63,1.63,0,0,1,.34.51C54.48,73.49,55.57,73.34,54.25,73.38Z" transform="translate(0.02 -10.25)"/><path class="cls-2" d="M85.4,67.22a.3.3,0,0,1-.24-.22l0,.25A.21.21,0,0,0,85.4,67.22Z" transform="translate(0.02 -10.25)"/><path class="cls-2" d="M34.47,23.08l-.3,0-.42,0-1.09,0C33.23,23.05,34.21,23.08,34.47,23.08Z" transform="translate(0.02 -10.25)"/><path class="cls-2" d="M5.5,72.84l.07,0S5.56,72.84,5.5,72.84Z" transform="translate(0.02 -10.25)"/><path class="cls-2" d="M28.49,19.47a1.91,1.91,0,0,0,.08-.77.7.7,0,0,0-.19-.06Z" transform="translate(0.02 -10.25)"/><path class="cls-2" d="M54.6,73.89h0Z" transform="translate(0.02 -10.25)"/><path class="cls-2" d="M62.35,72.56c-1.12,0-.53.72-.77,1.14-1.33.21-.62-.54-1.07-.92-.84.2-1.48.88-2.1.85,0-.12-.17-.17,0-.32-.88.59-2.62,0-3.65.77a.34.34,0,0,1-.13-.19,2,2,0,0,1,.15,1c-.5,0-.93.46-1.12,0,.31,0,.34-.18.48-.33l-.53.21c-.47-.7.72-.24.72-.76-1,.23-2.22.81-3,.61-.16-.68,1.84-.23.79-.83l1.22.26c-.93-1.08.74.07-.12-1.08-1.6-.19-1.79.35-3.39.15-.36.38.12.56-.24.94-2.27.68-1.79-1.71-3.46-.8-.43.45-.6,1.31-1.79.85l.41-.77c-1.56-.07-.89,1.11-2.51.59.28-.3,1.21-.25,1-.34-1-.61-.74.43-1.55.43l-.17-.68c-1.65.11-3.47.6-5.3.72.1-.2.41-.41,0-.62A22.86,22.86,0,0,1,29,73l-.85.59c-.2,0-.37-.26-.15-.38-.87-.22,0,.37-.47.61-.49,0-.65-.34-.33-.52-1.54.5-4.37,1.07-6,.45l.32-.18c-1.26-.24-1.42,1.2-2.59.66l.23-.11c-2.73-.25-5.74.29-7.82-.6-.4.85-2.7-.38-2.88.8a11.9,11.9,0,0,1-1.41-.66c-.16-.09-.42-.17-.63-.26a1.94,1.94,0,0,1-.21-.27s-.57.74-1,.86l.54-.61-.31.22a1.16,1.16,0,0,1-.42.14A5.36,5.36,0,0,1,5.72,73a.6.6,0,0,1-.15-.09,1.61,1.61,0,0,1-.46.42c-.14-.14,0-.52.15-.71.09,0,.2-.36.31-.5s.21-.26.29-.27l-.52-2.5c.24,0,.33.47.49.81-.63-1.34.65-.25.07-1.47-.14.16-.37-.09-.49-.12a5.66,5.66,0,0,0,.22-3l.42.2c.11-1.86-.2-3.92-.19-6-.2.75-.94.57-1,0l.65-.24c-.4-.4-.24.64-.74-.18.08-.78.74-.52,1-.07l-.23-1c.19,0,.3.17.55.23-.41-.39.65-1.63,0-2.19l.19-.06c0-2.08-.22-3-.25-4.73-.56,0-.44-.7-.89-1.21a22.13,22.13,0,0,0,.57-4.13c-.28-1.06-.48-.32-.81-.8.51-.07.46-1.57.83-.79A25.22,25.22,0,0,0,5.11,40c-.21.25-.3.53-.47.38-.09-.42.21-.94.46-.88l.05.11c-.77-2.57,1.5-5.89.43-8l0,.12L5.07,29.6c.09-1,.39.59.71-.12-.86-2.3.12-3.6-.45-5.5.76-.71.73-2,.63-3.36a7.71,7.71,0,0,1,.4-3.71L6,17c-.32-.52.24-.6.34-1-.28,0-.35.53-.53.21l0-.87a2.44,2.44,0,0,1,0-.27,2.35,2.35,0,0,1,.06-.54,52.72,52.72,0,0,0,7.18.92c1.61.09.92-1.85,3-1l-.58.66c3.26-.79,6.67,0,9.86-.64-.19.15-.2.35-.51.35a2.15,2.15,0,0,0,1.49.14,2.71,2.71,0,0,0,.31-.51c.13,0-.09.35-.12.55s0,.07.08,0,.46-.18.2.08a.45.45,0,0,1-.18.08c.06,0,.09,0,.11,0l0,0,0,0,.07.13c.19.36.37.61.54.3.26,1.2,1.18,2,1.28,3a.92.92,0,0,1,.45.44l.08.16.11.27.22.56c.29.73.58,1.39,1,1.16-.25.21-.21.73,0,1.4a9.64,9.64,0,0,0,2.11,0c.38,0,.75-.07,1.07-.12l.45-.09a1.12,1.12,0,0,0,.22-.1c-.25.28.66.29.36.67.86,0,1.66-.18,1.5-.65,1.6,1.08,3.2-.87,4.1.52,2.57-.49,4.94-.82,7.25-1-.08.9-2.55.09-2.45,1,2.19-.38,3.45-1.15,5.62-.93.56.12-.32.39-.51.54,2.19-.37,4.23.09,6.18-.41,0,.09-.22.18-.42.25.39,0,.9.13.85-.28l-.37.11c-.61-.59,1.52-1.24,1.59-1.56-.65,1.18,1.92.3.89,1.79.25-.08.57-.28.51-.55.38.08.49.24.11.55,1.38-.22.89-.66,2.14-.65,0,.2-.26.28-.39.51a3.09,3.09,0,0,1,2.32-.61c-.07.12.06.28-.26.28,1.81-.06,3.08-1,5.06-.66-.58.86.68.28.78,1l1.07-.22-.43-.37c.93,0,1.76-.53,2.56-.28l-.69.31,1.75-.15-1-.28c.94-.38-.1-.94,1.14-.74-.25.08.93,0,1.42.45h0a2.07,2.07,0,0,1,1.62-.31c.18.24-.14.83,0,1,.45-.63,2.18-.18,2.76-.84a.64.64,0,0,0-.14.63l.38-.51c.44.16.5.24.43.55,1.3.1-.41-.94,1.13-.54-.12.05-.06.12-.32.2A10,10,0,0,0,83,21.22l.54,0,.4,0a2.28,2.28,0,0,1,.75.07c-.13.75-.85.18-.77.81.36-.05.82-.19,1.41-.33a3.89,3.89,0,0,1,.33,1,5.16,5.16,0,0,1,.06,1.49l.08-.37c1.06.27-.52,1.48,0,2.48-.08-.24-.59-.32-.47-.25-.17,1.36.26,2.78.59,4.84l-.27-.25a25.77,25.77,0,0,0-.27,3c.28.25.23.75.63.45-1.55,2.67.83,5.1-.46,7.47,0-.28-.24-.68-.24-.45l.25,2c.46-.16.28-.27.64-.69a2,2,0,0,1,.49,1.33c-.31-.91-.75,0-1,.4.14-.07.29.06.44,0-.82,1.06.93.18.37,1.62l-.24-.08a4.79,4.79,0,0,1,.38,1.62c-.54.24-.25-.57-.69-.61,0,.82,1,1.61.48,2.35-.15-.35-.15-.85-.3-1.19a2,2,0,0,0-.57,1.49v-.06l-.28,1.39.17-.35c1.39,1,.25,2.08,1.17,3.45-.87-1.34-.5-.22-1.11-.32-.17.35-.35.88-.53.73.49.65-.38,1.09.33,2-.19,0,0,.69-.5.55.15.84.33-.2.58-.13.67,1.3-.81,3.06.11,4.94.37,1.62,1,1.91,1.36,3.42-.31.5-.71-.42-.71-.42a3.2,3.2,0,0,0,0,2.2c-.17-.15-.32,0-.54.24,0,.62.71.42.43,1.23a2.68,2.68,0,0,1-.79-.62c.18.73.55,1.45.72,2.21-.34.19-.51-.46-.74-.73.16.85.31,2.2.85,2.46l.19-.54c0,.31-.46.16-.56-.07a.68.68,0,0,1,.38-1.09l.13.54c1.14-.55-.18-2.16-.12-3.24l.83.45-.69-1.11c.22-.23.68-.4.81.14.41-.78-.3-.69.16-1.35.07-.08.11,0,.15,0l-.25-.75c.17.15.59-.13.47.34.48-1.36-.63-2.19,0-2.71l0,.12c-.28-1.89-.61-.18-1.32-1.6l1.5-1-.61-.19c0-.19.07-.58.31-.5-.41-.73-.26.12-.66-.3.56-.94-.26-2.58.72-2.79-.47-.34-.36.89-.69-.11,1-.28-.17-1.15.31-2,.54.26.25,1.07.73.22-.91-.52.2-1.67,0-2.39-.73,0-.31-1.57-.55-2.78.25.08.4-2.28.66-3.4l.13,0c-.74-.22-.6-1.38-.75-2.22.44,0,.61.18.81.64v-.8a1.32,1.32,0,0,1-.44-1l.55.2c0-1.06-.65-2.13-.28-3.49-.51-.08-1.43,1.08-1.77-.36.28-.05.75-.1.87.27,0-.12-.23-.44-.12-.69l.47.58c.2-.62-.39-.32-.35-.82.4,0,.29-.37.6-.3,0,.13-.16.44,0,.63a2.53,2.53,0,0,1,.6-1.46.44.44,0,0,1-.58-.41c0-1.06.48-.36.68-1-.27-.26,0-.93-.58-1,0-.31.28-.37.44-.49-.26-.55-.08-2.56-.7-1.94l0,.14s0-.06,0-.09h0c-.59-1.79.33-3.73.08-5.51h.2c-.23-1.07-.14-2.35-.56-3.14,0-.34.36-.93.59-.83a5.08,5.08,0,0,1,0-2.73c.35.83.31-.64.25,1,.1-.86.23-1.48.25-2.05a6.7,6.7,0,0,0-1.88.3c.44-.25.28-.41-.16-.49a5.09,5.09,0,0,0-1.51,0c.35.12.67.24,1,.37a14.65,14.65,0,0,1-2.21,0,4.94,4.94,0,0,1,.43-.66A6.36,6.36,0,0,0,83,18a3.12,3.12,0,0,0-.75,0,9.22,9.22,0,0,0-1.42.36,2.49,2.49,0,0,1-2.58-.19c-.57.46,1.18.33.66.87-1-.09-2-1-2.34-1.05-1.36-.37-1.27,1-2.69.72.18.24.35.87-.71,1.1-1-.09-1.23-1-.6-1.19.24,0,.36.06.35.14.32-.09.74-.19.34-.45l-.12.24c-.5-.24-1.87-.22-1.55-.61-.75.23-.32.39.24.52-1.28-.35-2,0-3.31-.25.21.14.4.41.2.41-1.93-.29-.85.45-2.16.56-.74-.37.27-.87-1-.56-.8-.25-.17-.63.15-.83-1.19.46-2.23-.3-2.92-.38l.63-.19a3.26,3.26,0,0,1-1,.11l.36.47c-.37-.08-.68-.08-.67-.28-.39.31.29.79-.47,1.21-.49-.24-1.5.26-1.67-.37,1.55.22-.17-.63,1.14-.73a2,2,0,0,1-.93,0c-.06-.07,0-.13.15-.17-1.49-.56-.68.71-2.22.7.19-.36-.36-.68-.61-.6.62,0,.3.59-.27.86-1-.27-1.08.21-1.59.18l.59.13c-.2.35-.7.31-1.39.42,0-.28.63-.19.38-.31-.76.62-1.72-.65-2.79-.23-.49-.24,0-.67-.48-.83-1.19.46-1.29-.49-2.55-.11.36.48.43.36-.46.83L51,18.21l-1.33.7c.63,0,1.32-.3,1.69-.22-.63.39-.57.27-.27.67-.85-.72-1.69.41-2.67-.07l0-1.18c-1.48-.53-2.63.6-4.56.31l.62.2c-.26.47-1.18.07-1.81.26.06-.4-.33-.54-.59-.79,0,.3-1.41,0-1.59.77l-.86-.52c-1.55-.22-1.77,1.12-3.26,1,.45-.43-.23-.71.77-1-.5,0-.94-.08-1,.2-.29-.25-1.38.53-1.84.15a3.78,3.78,0,0,0-.29.36.41.41,0,0,1-.38.2.31.31,0,0,1,0-.2c0,.2-.68.27-.44.71a1.27,1.27,0,0,0-.66-.5,3.07,3.07,0,0,0-.28-.79l-.19-.35-.23-.46a3.13,3.13,0,0,1-.45-2c-.29-.47-.6-1-.89-1.5-.15-.25-.28-.49-.47-.87l-.49-1c.13,0,.15-.14.23.13-.28-1.06-.63-1.09-.94-1.07a2,2,0,0,1-1.69.31c-.87-.63,1.18-.34.61-.58.1-.65-.7-.61-1.58-.5a2.22,2.22,0,0,1-1.77-.08l.25-.08c-.8-.44-1.95.49-3.25.4a.24.24,0,0,0,0-.2,9.68,9.68,0,0,1-3.83,1.07c.39-.51.57-.27.33-.79-.56.08.16.83-1,1-.36-.28-1.17-.53-1.28-1.08l1.06,0c-.54-.71-1.37,0-1.93-.1l.08-.31c-1.62.1-1.65.89-3.39.83l.18.24c-1,.78-.8-.44-1.75.14l-.28-.79a21.17,21.17,0,0,1-3.39.91,13.12,13.12,0,0,1,2.83-1.23c-.62,0-2.11.06-2.44.45.25-.08.57-.27.82-.15a3.26,3.26,0,0,1-1.46.69,7.19,7.19,0,0,1-2,.22c-.25-.55-.92-.75-1.87-.84-.23,1.35-.16,3.89-1,4.61.48,2.23-.55,4.38-.4,6.94,1.19-.88,0,.75,1.25.62.08.6.06.83,0,.88l-.73,1.79C1,26,1.09,25,.82,25.09c-.09,1.3-.52.54-.84,1.39.43-.16.62.47.46,1.21l.56-1c.65,1.84-1,1.55-.38,3.4l-.39-.59c.23,1,0,3.49,1,4.43-.14.16-.48.38-.57,0-.14,2.26,1,5,.44,6.78l-.3-.17c.09.42.57.74.27,1.26-.13,0-.3-.17-.32,0a3,3,0,0,1,.35,1.68L.74,43c-.39,2.19.82,3.39,1,5.23C.89,48.17.6,49.89.46,50.76l-.13,0c-.11,2.56.73,4.35,1.08,6.73-1,1.46-.4,5-.94,7.35.16-.37.69.06.78.48-.18.55.61,1.53-.2,1.44l0-.19C.27,67,.48,68.09.46,69l1.06.14A5.33,5.33,0,0,0,1,72.6a29.88,29.88,0,0,1,.14,5.24,1.52,1.52,0,0,1,.93.41C3.23,78,4.41,78,5.38,77.73l-.17.57,1,0,.37,0,.24,0,.94,0c.63,0,1.31,0,2.27-.06l-.39.4c1.08,0,1.37-1.63,2.37-1.67l.3.85c1.89,0,3.81.73,5.68,0a.43.43,0,0,1-.39.4c.89,0,3.45.58,3.12-.58,0,.75,2,.07,3-.26l-.16.55a3.16,3.16,0,0,1,2.1-1.1c.28.07.25.45-.13.3,1,.3.74-.52,1.89-.23l-.43.36c1,0,.9-.15,1.44-.56.62-.23,1.86.14,2,.64a1.15,1.15,0,0,1,1.25-.57c.08.19-.13.31-.24.36,1.64.38,2.44-.64,3.56-.1a.45.45,0,0,0,.19.34,17.45,17.45,0,0,1-2.25-.09c0,.52,1.05.61.22,1.32.84-.39,2.28-1.23,3.31-1a.49.49,0,0,1,.13.18l-.1,0a1,1,0,0,0,.64-.08A3.31,3.31,0,0,0,38,78c.12.43,1.21.23,1.73.25,0-.56.64-.47,0-.93.08,0-.1.07-.45.09a.71.71,0,0,0-.22.06l0,0-1.31,0a1.24,1.24,0,0,1,1.43-.22c.27-.36.56-.73.73-.91.72.79,2.1,1.21,2.29,1.7,1.6-.32,3.77-.21,4.78-1.27.45-.13.52.3.69.47-.26.11-.57.09-.72.24.91-.27,2.7-.1,2.91-.84,1.15.33-.64.68.94.56l-.22.22c3.1,1.18,5-1.88,8.48-.37-.24-.09-.36-.13-.41-.26,3.92.67,8.07-.62,11.94.44,1.09.21,1.21-.26,1.88-.62l.24.6,1.15-.69C75.47,76,76.66,78,78.72,77l-.27-.4c.74.07,2.35-.24,2.22.23.08-.08.24-.43.53-.22l0,.32L83,76.42c1.41.23-.22,1.25,1.83,1.32.77-.13,2.18-.92,1.89-1.14-.31,0-.78-.19-.81-.51l.7-.16c.13-.94.66-1.89-1.05-2.54L84.41,74,84,73.51l1,0c-.57-.43-.94,0-1.34.21a.85.85,0,0,0-.5-.5L82,74.08c-.15-.36.52-.72-.26-.92-.55.41.52.81-.39,1.08-.57-.42-.4-.76-1.07-.4-.1-.24,0-.39.31-.5-.6.29-1.58.12-1.89.62-.59-.53-2,.13-2-.75a3.41,3.41,0,0,1-1.6.73c1-1.06-2.06-.06-1.79-1.19-.74,1-2.68.42-4,.94.07-.07.22-.22.33-.18A4,4,0,0,1,68.29,73c-.09.78-1.24,1-1.86,1.45-.91-.76.55-.92.26-1.65,0,.64-1.57.63-1.26,1.16-.7-.46-.6-.22-1-.87-.12,1-.64.16-1.22.76-1-.48-.26-.91-1.36-.62C61.37,72.9,62.35,72.56,62.35,72.56Zm-26.2,1.69h0l.54,0Zm-2.2,0c.27,0,.6,0,1,0,.07.2,0,.4-.23.39C34.8,74.54,34.28,74.42,34,74.26Zm4.66,3.9c-.35.08-.47,0-.52-.15a6,6,0,0,0,.61-.07l0-.07A1.12,1.12,0,0,1,38.61,78.16Z" transform="translate(0.02 -10.25)"/><path class="cls-2" d="M39.23,77.42a.54.54,0,0,1,.15,0l-.21-.13-.12.18Z" transform="translate(0.02 -10.25)"/><path class="cls-2" d="M87.63,32v0a.34.34,0,0,1-.08.09Z" transform="translate(0.02 -10.25)"/><polygon class="cls-2" points="5.87 62.94 5.75 63.08 5.9 62.95 5.87 62.94"/><path class="cls-2" d="M85.7,44.1a.29.29,0,0,0-.15.16S85.64,44.18,85.7,44.1Z" transform="translate(0.02 -10.25)"/><path class="cls-2" d="M85.57,49.33l-.2.74A4.44,4.44,0,0,0,85.57,49.33Z" transform="translate(0.02 -10.25)"/><path class="cls-2" d="M85.29,53.36a.74.74,0,0,0,.24.08h0Z" transform="translate(0.02 -10.25)"/><path class="cls-2" d="M55.87,22.41l-.15,0C55.35,22.54,55.6,22.5,55.87,22.41Z" transform="translate(0.02 -10.25)"/><path class="cls-2" d="M74.93,21.1a3.38,3.38,0,0,1-.62.26C74.65,21.4,74.92,21.42,74.93,21.1Z" transform="translate(0.02 -10.25)"/><path class="cls-2" d="M34.6,23.09h0Z" transform="translate(0.02 -10.25)"/><path class="cls-2" d="M73.43,21.35a1.39,1.39,0,0,0,.88,0A2.17,2.17,0,0,0,73.43,21.35Z" transform="translate(0.02 -10.25)"/><path class="cls-2" d="M85,70.81l0,.2a.12.12,0,0,1,.09,0Z" transform="translate(0.02 -10.25)"/><path class="cls-2" d="M85.1,71l.07.22C85.17,71.15,85.16,71.06,85.1,71Z" transform="translate(0.02 -10.25)"/><path class="cls-2" d="M85.31,71.7l-.14-.45C85.17,71.4,85.15,71.6,85.31,71.7Z" transform="translate(0.02 -10.25)"/><path class="cls-2" d="M85.3,65.48l-.21-.06A.35.35,0,0,0,85.3,65.48Z" transform="translate(0.02 -10.25)"/><path class="cls-2" d="M85.24,63.86c0,.39-.44,1-.31,1.51l.16,0C84.79,65.17,85.58,64.23,85.24,63.86Z" transform="translate(0.02 -10.25)"/><path class="cls-2" d="M87.76,57.1l-.17,1.36c.22-.24.51-.55.57.07C88.8,56.82,87.67,58.88,87.76,57.1Z" transform="translate(0.02 -10.25)"/><path class="cls-2" d="M88.07,52.89c.1.73.32,0,.44,0C88.31,52.46,88.26,52.35,88.07,52.89Z" transform="translate(0.02 -10.25)"/><path class="cls-2" d="M88.07,22.07l.52,0C88.51,21.18,88.39,22.09,88.07,22.07Z" transform="translate(0.02 -10.25)"/><path class="cls-2" d="M83.2,21.61c.17.11.4.21.45.32a2.72,2.72,0,0,1,.19-.47l-.26.07C83.49,21.56,83.33,21.58,83.2,21.61Z" transform="translate(0.02 -10.25)"/><polygon class="cls-2" points="79.79 7.72 80.03 7.64 79.1 7.83 79.79 7.72"/><path class="cls-2" d="M32.5,16.4l-.5.41C32.26,17.11,32.94,16.89,32.5,16.4Z" transform="translate(0.02 -10.25)"/><path class="cls-2" d="M11.76,10.79a.94.94,0,0,0-1.24-.21C11,10.62,11.51,10.87,11.76,10.79Z" transform="translate(0.02 -10.25)"/><polygon class="cls-2" points="0.75 59.99 0.54 59.55 0.71 60.38 0.75 59.99"/><path class="cls-3" d="M37.94,54.62V60.2L18.11,51.6V46.83l19.83-8.59v5.61L24.13,49.18Z" transform="translate(0.02 -10.25)"/><path class="cls-4" d="M37.94,54.62V60.2L18.11,51.6V46.83l19.83-8.59v5.61L24.13,49.18Z" transform="translate(0.02 -10.25)"/><path class="cls-2" d="M37.7,55.24c.08-.07.12-.26,0-.27l-.21.27Z" transform="translate(0.02 -10.25)"/><path class="cls-2" d="M37.12,54.35a.77.77,0,0,0-.49.61c.26-.24.24-.11.53-.4.14,0,.17.18.11.29.07-.06.16.14.3,0-.06-.3-.26-.39-.54-.27C37,54.46,37.09,54.4,37.12,54.35Z" transform="translate(0.02 -10.25)"/><path class="cls-2" d="M26.32,49.54l0,0S26.33,49.55,26.32,49.54Z" transform="translate(0.02 -10.25)"/><path class="cls-2" d="M30.35,47.47a.09.09,0,0,0-.05.1S30.37,47.49,30.35,47.47Z" transform="translate(0.02 -10.25)"/><path class="cls-2" d="M31.73,47.33h-.08S31.72,47.36,31.73,47.33Z" transform="translate(0.02 -10.25)"/><path class="cls-2" d="M26.32,49.54l.08-.08C26.17,49.49,26.3,49.51,26.32,49.54Z" transform="translate(0.02 -10.25)"/><path class="cls-2" d="M35.21,54.45a.19.19,0,0,0,.14,0h-.12Z" transform="translate(0.02 -10.25)"/><path class="cls-2" d="M28.88,50.26l.06,0,.1-.11Z" transform="translate(0.02 -10.25)"/><path class="cls-2" d="M31.36,51.18c-.05,0-.17.22-.24.33a.25.25,0,0,1,.19-.13A.72.72,0,0,0,31.36,51.18Z" transform="translate(0.02 -10.25)"/><path class="cls-2" d="M35.08,53.18h0Z" transform="translate(0.02 -10.25)"/><path class="cls-2" d="M27.7,49.73l.1-.07Z" transform="translate(0.02 -10.25)"/><path class="cls-2" d="M36.62,57.68h.05S36.63,57.66,36.62,57.68Z" transform="translate(0.02 -10.25)"/><polygon class="cls-2" points="38.04 44.37 38.06 44.41 38.21 44.42 38.04 44.37"/><path class="cls-2" d="M34.13,46.79h0C34.07,46.84,34.1,46.82,34.13,46.79Z" transform="translate(0.02 -10.25)"/><path class="cls-2" d="M26.32,42c.33.13-.25.46.21.56C26.46,42.48,26.68,42,26.32,42Z" transform="translate(0.02 -10.25)"/><path class="cls-2" d="M35.16,54.39l-.1,0S35.13,54.4,35.16,54.39Z" transform="translate(0.02 -10.25)"/><path class="cls-2" d="M26.53,42.57Z" transform="translate(0.02 -10.25)"/><path class="cls-2" d="M39.15,42.92A.38.38,0,0,0,39,43S39.09,43,39.15,42.92Z" transform="translate(0.02 -10.25)"/><path class="cls-2" d="M35.27,45.74h.11A.39.39,0,0,0,35.27,45.74Z" transform="translate(0.02 -10.25)"/><path class="cls-2" d="M38.75,40.66c0-.09.06-.12,0-.23l0,0S38.79,40.56,38.75,40.66Z" transform="translate(0.02 -10.25)"/><path class="cls-2" d="M38.75,37.27l-.06.14,0,.09Z" transform="translate(0.02 -10.25)"/><path class="cls-2" d="M34.41,57.38a.82.82,0,0,1,0,.27C34.46,57.45,34.79,57.52,34.41,57.38Z" transform="translate(0.02 -10.25)"/><path class="cls-2" d="M35.27,54.31c0,.06-.07.08-.11.08l.07,0A.16.16,0,0,0,35.27,54.31Z" transform="translate(0.02 -10.25)"/><path class="cls-2" d="M36.53,40.68a.1.1,0,0,0,0,0Z" transform="translate(0.02 -10.25)"/><path class="cls-2" d="M19.53,51a.06.06,0,0,1,.06,0S19.55,50.94,19.53,51Z" transform="translate(0.02 -10.25)"/><path class="cls-2" d="M36.53,40.5a1.58,1.58,0,0,0,.2-.23l-.08.07A1.11,1.11,0,0,1,36.53,40.5Z" transform="translate(0.02 -10.25)"/><path class="cls-2" d="M34.41,57.65Z" transform="translate(0.02 -10.25)"/><path class="cls-2" d="M36.33,57.75s-.07.37-.12.58c-.17,0,0-.29.06-.48-.24,0-.58.23-.74.14,0-.06,0-.09.06-.15-.37.17-.74-.3-1.18-.09a.17.17,0,0,1,0-.1,1.76,1.76,0,0,1-.16.49c-.14-.06-.35.1-.31-.15.08,0,.13,0,.2-.09l-.19,0c0-.38.25,0,.35-.26-.33,0-.78.1-1-.09.09-.33.56.12.39-.28l.29.26c-.05-.6.19.13.18-.5-.41-.29-.58-.06-1-.35-.18.13-.08.28-.26.4-.77,0-.16-1-.81-.78-.21.15-.43.52-.67.17l.27-.3c-.42-.22-.47.4-.82,0,.14-.1.39,0,.34,0-.17-.4-.29.11-.52,0l.09-.34c-.49-.15-1.1-.14-1.63-.31.07-.08.2-.14.12-.29a4.26,4.26,0,0,1-1.91-1.09l-.36.17a.13.13,0,0,1,0-.2c-.2-.2-.09.17-.25.22a.14.14,0,0,1,0-.27c-.52,0-1.43,0-1.76-.52l.13,0c-.31-.26-.64.38-.86,0l.08,0c-.71-.45-1.66-.57-2.07-1.23-.28.34-.68-.5-1,0-.32-.45-.16-.5-.69-.94-.16-.1-.39.23-.62.2l.12-.29-.41.18V51h-.22a.23.23,0,0,1,.06.27c-.42,0-.24-.34-.14-.46a1,1,0,0,1-.23.07l-.1,0c.12,0,.16,0,.24-.07-.31.08.33-.17,0-.1a1.44,1.44,0,0,1-.25.08.38.38,0,0,0,.16-.15s0-.08,0-.17a.93.93,0,0,0,0-.25l.21.06c.06-.57-.1-1.2-.09-1.84a.28.28,0,0,1-.51,0l.33-.08c-.2-.12-.12.2-.37-.05,0-.24.37-.16.48,0l-.12-.29c.1,0,.15.05.28.07-.21-.2.32,0,0-.17l.1,0a.17.17,0,0,0,0-.05.12.12,0,0,1,0-.13c-.17-.24,0-.26.1-.53A4.64,4.64,0,0,0,21,46.89c.24-.26,0-.26.05-.47.13.23.54,0,.4.29a5,5,0,0,0,1.18-.8c-.11-.07-.21-.07-.2-.17a.23.23,0,0,1,.34.1l0,0c.56-.66,1.95,0,2.31-.77l0,0,.49-.52c.29-.07-.09.25.17.31.47-.67,1-.38,1.46-.87.7.51,1.42-.68,2.17-.48l-.11-.15c.08-.22.22,0,.34,0-.07-.12-.22-.07-.17-.2A15.11,15.11,0,0,1,33.28,42c.48-.15-.1-1,.63-.82l0,.38a3.76,3.76,0,0,1,1.32-.77c.23-.1.47-.19.69-.3a1.34,1.34,0,0,0,.29-.18l.07-.13c0,.09,0,.19,0,.19.07.23.09,0,.17-.27,0,0,0,.2,0,.31s.22-.43.12-.12a.5.5,0,0,1-.07.13c.09-.16.06,0,.27-.38,0,0,0,0,0,0s.12,0,0,.18c.15-.14.11,0,.09,0s0,.1.19,0c-.45.32-.36.32-.15.39-.13,0-.14.06-.33,0l0,.12a.44.44,0,0,0,.06.16.22.22,0,0,0,.24.11c-.54.49.44,1-.25,1.25l.11.4a1.27,1.27,0,0,1,.11.13,1.35,1.35,0,0,1,.17.34.89.89,0,0,1-.19.2c-.22-.31.08-.21,0-.35a.59.59,0,0,0-.18-.13l0,0c.07.18.22.5-.53.68-.19,0,0-.22,0-.31-.55.41-1.22.43-1.68.87,0,0,0-.11.07-.16s-.28,0-.19.22l.09-.09c.28.21-.22.75-.18.9,0-.62-.6.07-.57-.73a.26.26,0,0,0,0,.31c-.12,0-.18-.06-.13-.25-.35.26-.14.41-.49.54,0-.09,0-.16,0-.28-.11.25-.22.5-.55.54,0-.06-.07-.12,0-.16-.51.23-.69.82-1.33.87,0-.47-.24-.06-.4-.4l-.27.22.19.12c-.27.1-.41.44-.68.42l.14-.22-.47.26.33,0c-.2.28.2.43-.19.47.06-.06-.27.1-.48-.05h0c-.09.17-.18.33-.41.32s-.11-.4-.17-.46c0,.34-.6.32-.64.7A.46.46,0,0,0,28,47l0,.28c-.15,0-.19-.06-.22-.22-.51.15.34.38-.3.41,0,0,0-.06.06-.13-.67.15-1,.55-1.61.66-.64-.16.38-.25-.18-.37a5.55,5.55,0,0,0-1,.64,2.68,2.68,0,0,1-1,.5l.23-.05c.52.09.27.11-.13.16s-1,.11-.82.2a1.91,1.91,0,0,0-.51-.06,2.89,2.89,0,0,0-.49.18c.54.17,1.39.35,2.18.53h-.39c.06.15.69.35.93.51.33,0,.47.06.67-.07-.11.37.66.56,1.21.65s1.08.15,1.28.58c-.08,0-.23,0-.17.06l.62.11c0-.24,0-.16-.08-.38a.52.52,0,0,1,.47-.08c-.32,0-.14.35-.07.51,0-.07.07-.13.09-.2.15.5.22-.41.53,0l-.07.1c.18,0,.38-.09.53,0,0,.27-.21,0-.3.25.24.08.64-.29.76,0-.13,0-.27,0-.4,0,.12.38.17.31.32.43v0l.34.29-.07-.12c.55-.53.64.12,1.2-.15-.54.25-.16.2-.3.48.07.11.19.26.11.32.28-.15.24.3.63.07,0,.1.2.09.07.3.27,0,0-.18.07-.28.49-.17.72.71,1.42.5.53,0,.74-.27,1.22-.25.09.2-.25.28-.25.28a.63.63,0,0,0,.63.25c-.08.07-.06.15,0,.28s.25-.29.43-.06a1.5,1.5,0,0,1-.32.29c.24,0,.51-.09.75-.08,0,.18-.22.19-.34.26.27,0,.68.1.86-.12l-.12-.15c.09,0,0,.23-.12.25-.29.12-.27-.2-.24-.3h.17c0-.6-.64-.16-.94-.31l.28-.34-.44.2c0-.13,0-.36.19-.36-.15-.28-.25.06-.36-.23,0,0,0-.05,0-.06l-.27,0c.08-.07.08-.29.19-.18-.3-.38-.74,0-.77-.31h0c-.59-.08-.16.27-.7.44v-.81l-.16.27c-.06,0-.16-.1-.09-.21-.28.12,0,.14-.21.28-.16-.36-.78-.17-.66-.65-.18.18.19.27-.15.31.11-.52-.37-.05-.52-.36.17-.23.35,0,.2-.32-.32.36-.44-.28-.68-.28-.14.33-.5,0-.89-.06.07-.1-.57-.44-.84-.69l0-.05c-.2.32-.5.12-.77.1.09-.2.16-.27.33-.31l-.23-.08a.43.43,0,0,1-.35.1l.16-.24a2.78,2.78,0,0,0-.52,0,.29.29,0,0,1-.32-.13c-.23.19-.15.71-.72.67.08-.12.26-.3.39-.31,0,0-.2,0-.22,0l.32-.12c-.06-.13-.22.12-.33,0,.17-.14,0-.13.2-.24s0,.1.12,0c-.09-.07-.1-.2,0-.31a.65.65,0,0,1-.39.16c-.22-.07.22-.17.25-.26-.22.06-.12-.06-.56.09-.05,0,.15-.09.26-.14-.29,0-.47-.14-1,0v0h-.05c-.42,0-.6-.12-.67-.2s0-.16-.21-.22c0,0,.06,0,.07,0h.26c-.08-.09.29-.19,0-.31a2.79,2.79,0,0,1,.74,0c0-.08-.15-.14.35-.16.14.14.3,0,.06.11.35,0,.57,0,.38-.17.3.16.53.14.5.07l-.32-.07a.47.47,0,0,1,.26-.1,3.61,3.61,0,0,0,.3.25c.3.1.19,0,.26-.22s.06-.16.2-.22a.5.5,0,0,1,.44.08c.08-.28-.39,0-.34-.34.29-.06.76.27.85.24.45,0,.19-.6.64-.64a.38.38,0,0,1,0-.59c.29-.06.52.34.38.49s-.11,0-.12,0-.18.17,0,.24v-.12c.18.06.57-.1.55.11.17-.19,0-.21-.16-.21.42,0,.57-.22,1-.25-.09,0-.19-.15-.13-.17.6-.07.16-.3.51-.5.28.09.08.44.4.15.27,0,.16.28.11.4.26-.34.69-.1.9-.14l-.15.16a.55.55,0,0,1,.27-.16l-.19-.18c.12,0,.21,0,.24.05.06-.18-.22-.33-.08-.61.18,0,.38-.29.54,0-.48.08.16.28-.19.47a.37.37,0,0,1,.27-.09s0,.06,0,.09c.53.1.07-.41.51-.57,0,.19.22.28.28.21-.18.07-.19-.24-.08-.43.33,0,.27-.21.43-.26h-.2c0-.19.15-.22.32-.35.07.12-.14.16,0,.19.11-.38.61.11.84-.2.18,0,.13.3.28.33.26-.34.46.09.75-.23-.19-.18-.19-.12,0-.43l-.53.38.26-.47c-.18.06-.32.28-.45.29.11-.25.12-.19,0-.34.39.23.37-.37.81-.28l.25.54c.63,0,.94-.44,1.37-.7a1.9,1.9,0,0,1,0-.63l-.1.24c-.24-.24,0-.55-.13-.86.2.07.27-.1.39-.22-.07,0-.07-.21-.09-.33a.32.32,0,0,0-.29-.26l.26-.26c.11-.48-.56-.54-.49-1,.21.14.35-.07.5.24,0-.16,0-.29-.09-.3.12-.1-.27-.36-.08-.64-.09-.08-.3-.08-.28-.31a.15.15,0,0,1,.1,0c-.1,0-.14-.31-.35-.05a1.81,1.81,0,0,0,.27-1.26,2.79,2.79,0,0,1,.21-1.41l0-.25c-.42.24-.83.46-1.14.61.06-.09.06-.13.12-.14-.47,0-.56.86-1,.83-.25-.24.33-.33.17-.39,0-.37-.2-.25-.44-.08s-.49.37-.77.28l.1-.08c-.52,0-.57.51-1,.64a.2.2,0,0,0,0-.09,2.19,2.19,0,0,1-.86.95c0-.28.11-.19-.06-.4-.15.1.21.36-.08.56-.16-.08-.43-.09-.57-.33l.29-.15c-.29-.26-.38.18-.56.19l0-.15c-.44.24-.29.61-.78.79l.09.09c-.11.47-.31-.11-.46.28l-.24-.33a4.5,4.5,0,0,1-.75.82,3,3,0,0,1,.53-.9c-.17.07-.58.28-.59.5,0-.07.1-.19.2-.17a1.08,1.08,0,0,1-.66.79c-.25-.73-1,.21-1.47-.22-.51.52-1.27.42-2,.77.49.43-.2.1.08.65-.15.1-.22.12-.25.09l-.65-.11c-.19-.12.11-.2,0-.32-.39.12-.26-.17-.57-.21.14.18,0,.34-.24.36l.41.13c-.39.52-.65-.28-1,.24l.09-.25c-.22.22-1,.42-1,1-.07,0-.2-.17-.1-.26-.66.2-1.2,1.09-1.81,1V44c-.1.09-.1.35-.3.28,0-.06,0-.16-.07-.15s-.21.38-.4.37l.06-.21c-.69.08-.78.78-1.25,1.1-.18-.4-.72-.33-1-.29l0-.06-.17.07-.28.13-.49.27a8,8,0,0,0-.78.54c.1.55.22,1,.29,1.52a.83.83,0,0,0-.14.3,1.61,1.61,0,0,0-.09.26,2.54,2.54,0,0,0-.08.58,4,4,0,0,1-.16,1.22c.08-.11.35,0,.39.15s.31.47-.1.44v-.06c-.2,0-.27.26-.29.52a6.94,6.94,0,0,0,0,.79l.53-.15a2.24,2.24,0,0,0-.24.7,5.53,5.53,0,0,0,1.66.68c.34.08.63.18.66.51.21,0,.41,0,.62,0l-.12.26a4,4,0,0,0,1.17.55l-.19.14c.3.15.71-.58,1-.48l-.09.43c.54.22.93.8,1.6.67,0,.05-.09.16-.19.14.25.12.86.68,1,.11-.15.35.53.27.88.24l-.15.24c.38-.22.43-.31.8-.25.07.06,0,.23-.09.12.21.25.31-.15.57.12l-.19.11c.27.14.28,0,.52-.08s.49.29.43.54c.1-.13.33-.25.46-.11s-.09.12-.14.14c.39.37.82,0,1,.38a.23.23,0,0,0,0,.18,4.08,4.08,0,0,1-.61-.31c-.11.23.17.4-.2.63.31-.08.88-.29,1.12-.06a.33.33,0,0,1,0,.1l0,0a.24.24,0,0,0,.2,0,.56.56,0,0,0,.21.17c-.06.21.29.25.43.33.1-.27.27-.14.19-.43,0,0,0,0-.15,0h-.07l0,0L29,57.24c.17-.08.34-.13.44.08L29.8,57c.05.45.35.81.31,1.06.51.05,1.1.36,1.59,0,.15,0,.09.2.1.29s-.18,0-.25,0c.31,0,.78.28,1,0,.26.29-.31.23.15.36l-.1.08c.63.92,1.79-.25,2.45.86-.05-.07-.07-.1-.06-.17a2.18,2.18,0,0,0,.31.22l.16.09.24.11c.32.15.65.27,1,.38A11.85,11.85,0,0,1,38.5,61a2.1,2.1,0,0,1,.18-.63c.11-.38-.13-.69-.31-1.08l.31.13c-.12-.26-.24-.49-.35-.69-.26-.6.74-1.09.26-1.69l-.21.08c0-.22-.12-.71.12-.67,0,0-.21-.08-.11-.17h.16l-.27-.56c.11-.43.63.07.66-.56-.06-.23-.46-.66-.57-.57a.28.28,0,0,1-.26.24L38,54.66c-.46,0-.94-.2-1.27.32l.29.36-.23.12v-.3c-.21.17,0,.28.1.4a.38.38,0,0,0-.25.16l.45.35c-.18,0-.36-.16-.46.08.2.17.41-.16.54.12-.21.18-.38.12-.2.33a.2.2,0,0,1-.25-.1c.14.19.06.49.31.58-.26.18.07.62-.38.6.11.08.35.13.37.24-.53-.25,0,.23-.6-.12.24.15.29.25.32.34a1,1,0,0,0,.16.39c0-.06-.12-.17-.09-.15s-.14-.11-.22-.22l-.06-.09a1.75,1.75,0,0,1,.38,1c-.34-.56-.22-.6-.52-1.12.24.45.1.39.25.74a1.78,1.78,0,0,1-.25-.59c.12.59,0,.09,0,.41-.11-.31,0-.51-.1-.39A2.62,2.62,0,0,1,36.33,57.75Zm-7.16-2.17h0l.16,0Zm-.62-.27a1.26,1.26,0,0,0,.26.13c0,.1-.08.18-.14.15S28.61,55.43,28.55,55.31Zm.53,2.36c-.11,0-.12-.08-.11-.13l.18,0,0,0Z" transform="translate(0.02 -10.25)"/><path class="cls-2" d="M29.4,57.4h.05l0-.08-.07.06Z" transform="translate(0.02 -10.25)"/><path class="cls-2" d="M26.3,49.58h0l-.06,0Z" transform="translate(0.02 -10.25)"/><polygon class="cls-2" points="20.27 40.88 20.24 40.94 20.32 40.91 20.27 40.88"/><path class="cls-2" d="M28.75,51.58a.1.1,0,0,0,0,.09A.51.51,0,0,0,28.75,51.58Z" transform="translate(0.02 -10.25)"/><path class="cls-2" d="M30.21,52.23l.18.17A.89.89,0,0,0,30.21,52.23Z" transform="translate(0.02 -10.25)"/><path class="cls-2" d="M31.31,52.81a.37.37,0,0,0,.06-.1h0Z" transform="translate(0.02 -10.25)"/><path class="cls-2" d="M34.51,44l0,0C34.63,43.9,34.57,44,34.51,44Z" transform="translate(0.02 -10.25)"/><path class="cls-2" d="M29.32,46.72a1.22,1.22,0,0,1,.12-.19C29.34,46.55,29.26,46.57,29.32,46.72Z" transform="translate(0.02 -10.25)"/><polygon class="cls-2" points="36.55 30.44 36.55 30.44 36.55 30.43 36.55 30.44"/><path class="cls-2" d="M29.7,46.44a.31.31,0,0,0-.26.09A.41.41,0,0,0,29.7,46.44Z" transform="translate(0.02 -10.25)"/><path class="cls-2" d="M36.22,54.88l.05,0a.08.08,0,0,0,0,0Z" transform="translate(0.02 -10.25)"/><path class="cls-2" d="M36.29,54.87h.08S36.31,54.85,36.29,54.87Z" transform="translate(0.02 -10.25)"/><path class="cls-2" d="M36.52,54.85l-.15,0S36.46,54.91,36.52,54.85Z" transform="translate(0.02 -10.25)"/><path class="cls-2" d="M34.75,54.16l0,.09A.31.31,0,0,0,34.75,54.16Z" transform="translate(0.02 -10.25)"/><path class="cls-2" d="M34.28,54c.1.06.2.31.37.31l.05-.07C34.57,54.36,34.45,53.89,34.28,54Z" transform="translate(0.02 -10.25)"/><path class="cls-2" d="M32.82,52.08l.36.23c0-.13-.07-.3.12-.26C32.93,51.56,33.31,52.32,32.82,52.08Z" transform="translate(0.02 -10.25)"/><path class="cls-2" d="M31.68,51.46c.23,0,.06-.15.09-.2C31.6,51.3,31.56,51.31,31.68,51.46Z" transform="translate(0.02 -10.25)"/><path class="cls-2" d="M26.7,48.87l.48.09S27,48.93,26.7,48.87Z" transform="translate(0.02 -10.25)"/><path class="cls-2" d="M26.49,47.54l-.38,0a1.37,1.37,0,0,0,.13.2Z" transform="translate(0.02 -10.25)"/><polygon class="cls-2" points="28.52 38.47 28.47 38.53 28.7 38.34 28.52 38.47"/><path class="cls-2" d="M39,37.58l-.32.45C38.74,38.13,39.09,37.8,39,37.58Z" transform="translate(0.02 -10.25)"/><path class="cls-2" d="M32,40c-.13-.12-.34-.14-.39,0C31.76,40,32,40.08,32,40Z" transform="translate(0.02 -10.25)"/><polygon class="cls-2" points="16.89 42.13 16.79 41.95 16.84 42.2 17.04 42.25 16.89 42.17 16.89 42.13"/><path class="cls-3" d="M50.21,38.12,44.69,60.85c-.19.75-.35,1.34-.49,1.77a2.19,2.19,0,0,1-.63,1,1.84,1.84,0,0,1-1.23.36c-1.34,0-2-.58-2-1.73A15.49,15.49,0,0,1,40.72,60l5.5-22.73a10.13,10.13,0,0,1,.83-2.48,1.63,1.63,0,0,1,1.54-.67,2.15,2.15,0,0,1,1.51.47,1.65,1.65,0,0,1,.52,1.3A11.25,11.25,0,0,1,50.21,38.12Z" transform="translate(0.02 -10.25)"/><path class="cls-4" d="M50.21,38.12,44.69,60.85c-.19.75-.35,1.34-.49,1.77a2.19,2.19,0,0,1-.63,1,1.84,1.84,0,0,1-1.23.36c-1.34,0-2-.58-2-1.73A15.49,15.49,0,0,1,40.72,60l5.5-22.73a10.13,10.13,0,0,1,.83-2.48,1.63,1.63,0,0,1,1.54-.67,2.15,2.15,0,0,1,1.51.47,1.65,1.65,0,0,1,.52,1.3A11.25,11.25,0,0,1,50.21,38.12Z" transform="translate(0.02 -10.25)"/><path class="cls-2" d="M49.56,38c.08.06.27.09.26,0l-.31-.15Z" transform="translate(0.02 -10.25)"/><path class="cls-2" d="M50.31,37.48a1,1,0,0,0-.69-.33c.28.17.15.17.49.37,0,.1-.14.14-.26.1.08.05-.1.12.09.22.28-.06.32-.21.16-.42C50.17,37.4,50.25,37.46,50.31,37.48Z" transform="translate(0.02 -10.25)"/><path class="cls-2" d="M45.7,37.47l0,0A.12.12,0,0,0,45.7,37.47Z" transform="translate(0.02 -10.25)"/><path class="cls-2" d="M44.15,43.08a.07.07,0,0,0,0-.08S44.12,43.08,44.15,43.08Z" transform="translate(0.02 -10.25)"/><path class="cls-2" d="M43.57,44l0-.05S43.54,43.94,43.57,44Z" transform="translate(0.02 -10.25)"/><path class="cls-2" d="M45.7,37.47l-.14.13C45.66,37.63,45.66,37.54,45.7,37.47Z" transform="translate(0.02 -10.25)"/><path class="cls-2" d="M49.75,36.12a.32.32,0,0,0,.08.09l0-.08Z" transform="translate(0.02 -10.25)"/><path class="cls-2" d="M46.21,34.83l0,0-.09-.11A.77.77,0,0,0,46.21,34.83Z" transform="translate(0.02 -10.25)"/><path class="cls-2" d="M48.38,33.34c-.05,0-.05.27-.06.39,0-.11,0-.17.1-.19A.54.54,0,0,0,48.38,33.34Z" transform="translate(0.02 -10.25)"/><path class="cls-2" d="M50.91,35.77l0,.06A.61.61,0,0,1,50.91,35.77Z" transform="translate(0.02 -10.25)"/><path class="cls-2" d="M45.67,36.25h0Z" transform="translate(0.02 -10.25)"/><path class="cls-2" d="M48.39,40h0S48.39,40,48.39,40Z" transform="translate(0.02 -10.25)"/><polygon class="cls-2" points="50.3 27.89 50.31 27.92 50.46 27.96 50.3 27.89"/><path class="cls-2" d="M42.79,45.65h0S42.77,45.61,42.79,45.65Z" transform="translate(0.02 -10.25)"/><path class="cls-2" d="M39.17,62.16c.13-.15.2,0,.29.08s.17.16.31,0C39.65,62.26,39.36,61.82,39.17,62.16Z" transform="translate(0.02 -10.25)"/><path class="cls-2" d="M49.79,36.09a.15.15,0,0,1,0-.07A.06.06,0,0,0,49.79,36.09Z" transform="translate(0.02 -10.25)"/><path class="cls-2" d="M39.77,62.21h0l0,0Z" transform="translate(0.02 -10.25)"/><path class="cls-2" d="M42,49.76l.13,0A.37.37,0,0,0,42,49.76Z" transform="translate(0.02 -10.25)"/><path class="cls-2" d="M43.09,46.82l-.06.06A.11.11,0,0,0,43.09,46.82Z" transform="translate(0.02 -10.25)"/><path class="cls-2" d="M42,51.42s-.07,0,0,.11h0S41.92,51.46,42,51.42Z" transform="translate(0.02 -10.25)"/><path class="cls-2" d="M41.58,53.06h.06V53Z" transform="translate(0.02 -10.25)"/><path class="cls-2" d="M47.31,45a1.11,1.11,0,0,1,.26,0C47.37,45,47.36,44.74,47.31,45Z" transform="translate(0.02 -10.25)"/><path class="cls-2" d="M49.91,36.14a.19.19,0,0,1-.12,0,.06.06,0,0,1,0,0A.22.22,0,0,0,49.91,36.14Z" transform="translate(0.02 -10.25)"/><path class="cls-2" d="M44.11,52l-.1.26A.67.67,0,0,0,44.11,52Z" transform="translate(0.02 -10.25)"/><path class="cls-2" d="M44.49,56.8l0-.07S44.47,56.77,44.49,56.8Z" transform="translate(0.02 -10.25)"/><path class="cls-2" d="M43.86,53a.5.5,0,0,0-.22.1l.06,0Z" transform="translate(0.02 -10.25)"/><path class="cls-2" d="M47.57,45Z" transform="translate(0.02 -10.25)"/><path class="cls-2" d="M47.34,43.15c-.07.24.33.2.52.3,0,.32-.3.07-.51.13,0,.21.35.43.3.56s-.09,0-.16,0c.24.27-.12.58.18.9h-.1a1.82,1.82,0,0,1,.51.08c0,.11.17.26-.07.25,0-.07-.07-.1-.14-.15l.08.14c-.37,0-.08-.18-.33-.24.05.25.27.58.13.73-.34,0,0-.43-.36-.27l.19-.24c-.57.08.08-.15-.53-.1-.18.33.07.44-.11.77.17.12.28,0,.44.16.21.59-.92.2-.57.67.19.15.6.29.32.5l-.35-.18c-.12.33.49.33.15.62-.13-.1-.06-.3-.12-.25-.35.16.17.21.13.39l-.34,0c0,.38.11.84.07,1.26-.1,0-.18-.15-.31-.08a2.46,2.46,0,0,1-.62,1.53l.24.26s-.15.05-.19,0c-.15.16.18,0,.27.17s-.2.1-.27,0c.16.4.29,1.09-.1,1.38l-.07-.09c-.19.25.51.45.18.64l0-.06c-.27.58-.17,1.31-.71,1.66.39.19-.33.55.23.73-.37.28-.44.15-.75.59-.06.12.31.28.33.46l-.3-.07.26.29-.39,0,0,.17a.25.25,0,0,1,.25-.07c.08.27-.34.52-.5.49l.12.62c-.12,0-.14-.15-.2-.24.24.37-.32,0-.11.32.08,0,.17.06.23.08a.65.65,0,0,0-.27.65l-.19-.1c-.15.4-.11.9-.23,1.36.14-.15.49,0,.49.12l-.33,0c.17.14.15-.11.35.13-.08.16-.39,0-.47-.1l.06.24c-.1,0-.14-.08-.25-.12.17.14-.41.29-.1.49h-.1c-.12.43-.06.66-.14,1,.26.08.17.2.36.38a3.24,3.24,0,0,1-.29.34c-.1.08-.18.14-.2.22s.18.15.29.29c-.23-.12-.27,0-.38-.19l0,.08a2.43,2.43,0,0,1-.14.31c0,.09.1.13.1.22s-.14-.08-.15-.21v0c-.13.23-.46,0-.65-.15s-.09-.34-.3-.13l0,0a.64.64,0,0,1-.31.11c0-.1.18-.09.27-.24-.21.09-.24,0-.22-.07s.07-.11-.08-.24c.74,0,.09-1,.66-1.32h-.18c-.15-.14.12-.11.18-.18-.14,0-.18.08-.26,0,0-1,.72-1.9,1.1-2.83.13-.35-.85-.41-.32-.76l.29.2c-.21-.81.37-1.47.21-2.25.06.06.16.08.14.15.27-.1.15-.55,0-.6,0-.1.18,0,.29,0s-.21-.44,0-.47c0,0,.07.06.08.09s.14-.44-.15-.41c.19-.24,0-.54.21-.71-.27-.21.25-.42-.16-.56.43.12.47-.38.3-.6.12.09.17-.11.34,0,0-.2,0-.39-.23-.41.61-.23-.26-.81.47-.85A8.65,8.65,0,0,1,44.25,49c.43.12-.1.58.37.66-.06-.52-.37-.89-.15-1.35.09-.11.17.12.24.18-.07-.53.26-.93.13-1.41,0,0,.07.06.09.12s.12-.19-.08-.22l0,.09c-.32.07-.52-.48-.67-.53.53.28.24-.39.91,0a.28.28,0,0,0-.24-.18c.06-.07.15-.08.28,0,0-.33-.28-.27-.21-.54.1,0,.12.08.23.14-.15-.18-.31-.37-.17-.58.06,0,.14,0,.12.09.07-.41-.34-.8-.05-1.2.39.23.17-.12.54-.05l0-.26-.2,0c.06-.21-.16-.45,0-.6l.11.19,0-.41-.19.19c-.14-.25-.47-.09-.3-.34,0,.07,0-.2.29-.26h0c-.1-.13-.19-.26-.06-.39a4,4,0,0,1,.47.12c-.28-.18,0-.51-.26-.71a.59.59,0,0,0,.3.1l-.23-.14c.11-.08.15-.08.3,0,.11-.28-.49,0-.21-.31,0,0,.06,0,.08.09.19-.32,0-.7.2-1,.39,0,0,.3.36.27,0-.47-.21-1,0-1.47l-.06.07c-.5-.18.34-.26.15-.54,0,.06.27.14.21.11.16-.28,0-.65,0-1.14l.12.09c.16-.15.18-.46.29-.63-.12-.09-.07-.19-.28-.17.89-.37-.11-1.23.69-1.51,0,.06.06.18.08.13a2.86,2.86,0,0,1,0-.42c-.22-.07-.15,0-.35,0A.33.33,0,0,1,47,35c0,.24.33.16.46.19a2,2,0,0,1-.18-.13h0c.33,0-.4-.33,0-.39l.08.1c0-.11,0-.31.13-.35.19.2,0,.17.11.35.07-.08,0-.6.28-.4,0,.09-.14.13-.16.22.27.23.23.16.34.19h0c.08,0,.13.07.22.11l-.07-.08c.11-.72.38-.16.68-.59-.32.41-.06.24-.11.54.06.09.14.19.1.28.15-.23.12.21.34-.1,0,.09.09,0,0,.26.1,0,.05-.16.09-.28s.22,0,.25.16,0,.23.29.22.6.08.81.41c-.15.12-.36-.06-.37-.05-.12.17-.09.26,0,.43-.08,0-.15,0-.27,0s.35.12.18.28a3.14,3.14,0,0,1-.37-.18,3.53,3.53,0,0,1,.28.51c-.17,0-.23-.14-.33-.22,0,.19.06.49.31.61l.12-.1c0,.07-.24,0-.27-.07s.13-.21.23-.2l0,.13c.58,0,0-.5,0-.71l.41.15L50.35,36c.11,0,.34-.07.4.06.21-.18-.14-.17.08-.33a.06.06,0,0,1,.08,0l-.14-.18c.09,0,.28-.07.24.06a.37.37,0,0,0-.11-.45c-.1-.1-.19-.15-.07-.28l0,0c-.36-.39-.29.06-.76,0a2.68,2.68,0,0,0,.41-.67l-.25.19c0-.05-.09-.13,0-.21-.28,0-.06.12-.26.21,0-.38-.58-.15-.49-.62-.14.2.16.23-.11.32.05-.53-.29,0-.45-.23.09-.26.29-.09.1-.36-.18.44-.43-.13-.63,0,0,.36-.41.16-.71.38,0-.14-.69,0-1,.26l0,0a.48.48,0,0,1,0,.51,1.34,1.34,0,0,0-.07.27c-.19-.11-.26-.18-.27-.37l-.12.24a.35.35,0,0,1,.11.31l-.23-.15c-.09.26.11.6-.16.86.24.08.76,0,.82.33-.13,0-.36-.08-.39-.18s.08.13,0,.17l-.19-.2c-.14.11.17.13.11.23s-.16.05-.3,0,.1-.08,0-.14a.58.58,0,0,1-.38.25c.11,0,.25.07.25.17s-.25,0-.38.13c.11.09-.06.21.22.29,0,.07-.15,0-.24,0,.1.16-.1.58.24.52l0,0v0h0c.18.46-.37.78-.34,1.21l-.1,0c.06.26-.06.54.11.76,0,.07-.22.12-.32.06,0,.2.13.25-.09.47-.13-.22-.17,0-.08-.22-.14.22-.31.23-.11.55-.22-.15-.35.1-.3.23l.21-.12a.67.67,0,0,1-.09.34l-.31-.14c-.5.39.47,1-.28,1.23.19.18.22-.22.46,0-.1.21-.62.33-.64.39-.25.26.41.4.21.68.13,0,.44,0,.49.29s-.55.15-.6,0A.06.06,0,0,1,44.1,43c0-.08-.05-.18-.2-.13l.11.06c-.14.08-.2.39-.38.27.07.19.18.12.27,0-.24.24-.12.44-.3.7.08,0,.22,0,.21,0-.25.39.17.23.15.54-.21.12-.4-.16-.33.16-.16.15-.31,0-.39-.12.16.31-.26.46-.34.6l-.06-.16a.36.36,0,0,1,0,.23l.25,0c-.06.08-.08.15-.17.12.13.12.4,0,.56.24-.14.09.05.37-.27.33.19-.32-.32,0-.29-.34a.22.22,0,0,1-.06.21.08.08,0,0,1-.07-.05c-.36.26.31.23.22.57-.16-.08-.35,0-.33.07,0-.14.31,0,.41.15-.19.19,0,.27,0,.38l.09-.12c.17.09.12.19.13.35-.13,0-.05-.16-.13-.12.27.25-.4.31-.26.6-.14.08-.32-.07-.43,0,.16.32-.3.23-.18.55.25,0,.19-.05.37.2l0-.5.27.37c0-.13-.08-.32,0-.39.16.18.1.15.31.13-.39.11.11.42-.17.58l-.58-.14c-.33.27.16.65-.09,1l.13-.12c.22.11,0,.27,0,.43a.61.61,0,0,0-.41,0c.14,0-.09.31.28.44l-.3.13c-.18.32.46.52.31.84-.18-.15-.36,0-.45-.29,0,.11-.09.2,0,.23-.13,0,.19.37,0,.43.07.07.27.13.22.25l-.09,0c.09,0,.08.22.32.16-.68.2-.18,1-.77,1.14a4.91,4.91,0,0,1,0,.78c-.06,0-.1,0-.07-.06-.25.26.51.31.23.61-.36.1-.13-.22-.27-.14-.65-.1,0,.43-.44.58l0-.07c-.26.13.13.49,0,.77a.29.29,0,0,0-.1,0,1.45,1.45,0,0,1,.32,1c-.23-.14-.11-.16-.37-.16,0,.13.41.06.42.32a1,1,0,0,1-.59.16l0-.24c-.37,0-.06.31-.15.42l-.14-.05c0,.37.34.46.22.84h.12c.33.3-.25.13,0,.4l-.4,0a3.25,3.25,0,0,1,.26.83,2.27,2.27,0,0,1-.45-.75c0,.14-.08.48.09.59,0-.06-.1-.15,0-.19a.72.72,0,0,1,.28.76c-.73-.22-.36.67-1,.76.17.56-.32,1-.37,1.62.62-.15,0,.2.6.23,0,.16,0,.23,0,.24a2.36,2.36,0,0,0-.32.59c-.15.19-.16-.18-.3-.15,0,.52-.22.26-.3.67.2-.13.34.09.4.4a2.5,2.5,0,0,1,.11-.49.6.6,0,0,1,.18.64.47.47,0,0,0,.35.59l-.31,0a4.34,4.34,0,0,0,.79.51.91.91,0,0,0,.94,0c0,.08.09.26-.08.27.85.25,1.45-.35,2.19-.25v.16c.15-.1.16-.35.4-.3,0,.06,0,.16.08.13a2.22,2.22,0,0,1,.37-.48l.07,0v.1l0,.15.11-.06a1.09,1.09,0,0,0,.48-.86c0-.3-.05-.56,0-.81a.7.7,0,0,0,.79-.41l.06,0c.21-.58-.07-1.11-.11-1.67.54-.22.46-1.06.85-1.52-.1.06-.33-.09-.35-.19s-.21-.42.17-.3l0,0c.41,0,.37-.27.43-.47l-.51-.16c.88-.33.06-1.41.79-1.53-.09-.16,0-.31-.15-.46l.27.07a2.31,2.31,0,0,0,.27-.93l.17.13c.08-.23-.72-.49-.68-.72l.43,0c.09-.42.56-.75.29-1.26,0,0,.17.07.17.14.06-.2.46-.7-.12-.76.37.08.14-.43,0-.69l.26.1c-.3-.28-.39-.3-.43-.59,0-.06.23,0,.14.06.2-.18-.21-.23,0-.45l.15.14c.08-.21,0-.22-.19-.38s.17-.4.42-.37c-.14-.07-.31-.23-.21-.34a.19.19,0,0,1,.16.09c.27-.32-.18-.61.14-.8a.34.34,0,0,0,.18,0,1.6,1.6,0,0,1-.17.49c.25.06.35-.16.65.11-.14-.24-.47-.66-.3-.85h.1l0,0s0-.1,0-.16a.42.42,0,0,0,.12-.16c.22,0,.18-.24.22-.36-.28,0-.2-.2-.46-.11,0,0,0,0,0,.11l0,.06,0,0-.05.3c-.12-.13-.21-.25,0-.34l-.4-.27c.42-.07.7-.32.94-.31-.07-.39.1-.86-.36-1.21,0-.11.18-.08.27-.09s0,.13.08.18c-.09-.23.09-.6-.26-.74.23-.21.3.22.33-.14l.09.07c.74-.54-.64-1.33.28-1.91a.24.24,0,0,1-.15.06c.54-.79.13-1.86.85-2.59.17-.22-.06-.3-.2-.49l.31,0-.28-.34c-.16-.42.87-.45.52-1h-.22c.08-.15,0-.54.23-.46,0,0-.19-.1-.07-.14l.16,0L50.33,39c.19-.29.6.19.74-.25,0-.19-.33-.59-.45-.56a.25.25,0,0,1-.29.12l0-.17c-.44-.14-.88-.37-1.28-.07l.21.33-.24,0,0-.23c-.24.08-.08.2,0,.32a.42.42,0,0,0-.27,0l.37.37c-.19,0-.32-.21-.46-.06.17.17.42,0,.5.22-.23.07-.39,0-.25.19a.27.27,0,0,1-.23-.13c.11.17,0,.36.2.49-.28.07,0,.46-.47.34a.76.76,0,0,1,.27.44c-.46-.34-.14.45-.67.26.42.27.06.64.24,1,0,0-.1-.07-.07-.09-.07.15-.23.17-.34.25.38.11.4.39.6.58-.41.11-.41-.23-.78-.25.31.06.22.42.5.42a.75.75,0,0,1-.48.1c.47.15,0,.17.31.36-.29.17-.46-.05-.38.23C47.46,43.4,47.34,43.15,47.34,43.15Zm-.58,6h0l0-.13Zm-.12.49a1,1,0,0,0,.07-.21c.09,0,.19,0,.17.09S46.74,49.57,46.64,49.63Zm2.15-.57c0,.08,0,.1-.1.09V49l0,0Z" transform="translate(0.02 -10.25)"/><path class="cls-2" d="M48.46,48.83s0,0,0,0l-.07,0,.08,0Z" transform="translate(0.02 -10.25)"/><path class="cls-2" d="M45.76,37.41h0Z" transform="translate(0.02 -10.25)"/><polygon class="cls-2" points="44.51 45.97 44.58 45.99 44.53 45.93 44.51 45.97"/><path class="cls-2" d="M47.46,35.18h0Z" transform="translate(0.02 -10.25)"/><path class="cls-2" d="M48.09,34.78l.12.07A.26.26,0,0,0,48.09,34.78Z" transform="translate(0.02 -10.25)"/><path class="cls-2" d="M48.78,34.87l0-.12h0Z" transform="translate(0.02 -10.25)"/><path class="cls-2" d="M44.93,47.19a0,0,0,0,0,0,0C45,47.32,45,47.26,44.93,47.19Z" transform="translate(0.02 -10.25)"/><path class="cls-2" d="M45.32,42.82a1.4,1.4,0,0,1,.09.17C45.45,42.92,45.47,42.86,45.32,42.82Z" transform="translate(0.02 -10.25)"/><polygon class="cls-2" points="44.15 41.72 44.15 41.72 44.14 41.74 44.15 41.72"/><path class="cls-2" d="M45.36,43.18a.15.15,0,0,0,0-.19C45.38,43.05,45.33,43.11,45.36,43.18Z" transform="translate(0.02 -10.25)"/><path class="cls-2" d="M49.6,36.85l0,0,.05,0Z" transform="translate(0.02 -10.25)"/><path class="cls-2" d="M49.63,36.9l0,.05S49.66,36.91,49.63,36.9Z" transform="translate(0.02 -10.25)"/><path class="cls-2" d="M49.7,37.06,49.65,37S49.63,37,49.7,37.06Z" transform="translate(0.02 -10.25)"/><path class="cls-2" d="M49.87,35.84h0Z" transform="translate(0.02 -10.25)"/><path class="cls-2" d="M49.82,35.61c0,.06-.2.15-.13.22h.08C49.62,35.82,50,35.63,49.82,35.61Z" transform="translate(0.02 -10.25)"/><path class="cls-2" d="M49.85,33.86a3.88,3.88,0,0,1,.31.26c0-.12,0-.3.17-.21C50,33.35,50.3,34.15,49.85,33.86Z" transform="translate(0.02 -10.25)"/><path class="cls-2" d="M48.74,33.48c.2,0,0-.16,0-.22C48.63,33.35,48.6,33.38,48.74,33.48Z" transform="translate(0.02 -10.25)"/><path class="cls-2" d="M45,39.46l-.24-.08C44.79,39.52,44.88,39.41,45,39.46Z" transform="translate(0.02 -10.25)"/><polygon class="cls-2" points="46.03 30.8 46.22 30.72 46 30.61 46.03 30.8"/><polygon class="cls-2" points="44.08 31.14 44.05 31.08 44.09 31.31 44.08 31.14"/><path class="cls-2" d="M41.4,52.72l.32,0C41.69,52.65,41.35,52.55,41.4,52.72Z" transform="translate(0.02 -10.25)"/><path class="cls-2" d="M40.54,57.67c-.17,0-.3.13-.17.25C40.42,57.81,40.56,57.73,40.54,57.67Z" transform="translate(0.02 -10.25)"/><polygon class="cls-2" points="46.65 47.86 46.73 47.99 46.69 47.78 46.65 47.86"/><path class="cls-3" d="M72.82,51.6,53,60.24V54.66l13.85-5.44L53,43.85V38.31l19.83,8.56Z" transform="translate(0.02 -10.25)"/><path class="cls-4" d="M72.82,51.6,53,60.24V54.66l13.85-5.44L53,43.85V38.31l19.83,8.56Z" transform="translate(0.02 -10.25)"/><path class="cls-2" d="M72.15,51.6c.09,0,.28,0,.24-.11l-.33-.09Z" transform="translate(0.02 -10.25)"/><path class="cls-2" d="M72.76,50.73a.76.76,0,0,0-.74-.22c.32.15.18.18.56.34,0,.13-.1.23-.23.21.09,0-.07.2.14.27.25-.17.26-.38.05-.61A.33.33,0,0,1,72.76,50.73Z" transform="translate(0.02 -10.25)"/><path class="cls-2" d="M65,43l.06.07A.13.13,0,0,0,65,43Z" transform="translate(0.02 -10.25)"/><path class="cls-2" d="M57.89,39.73a.11.11,0,0,0,.11,0C57.94,39.69,57.89,39.69,57.89,39.73Z" transform="translate(0.02 -10.25)"/><path class="cls-2" d="M56.81,38.86l.06.06S56.84,38.85,56.81,38.86Z" transform="translate(0.02 -10.25)"/><path class="cls-2" d="M65,43l-.15-.17C64.78,42.9,64.9,42.92,65,43Z" transform="translate(0.02 -10.25)"/><path class="cls-2" d="M72,49a.21.21,0,0,0,.08.11L72,49Z" transform="translate(0.02 -10.25)"/><path class="cls-2" d="M68.25,44.1l.06,0,.1-.11Z" transform="translate(0.02 -10.25)"/><path class="cls-2" d="M70.69,45.1s-.18.22-.25.32c.08-.09.14-.13.2-.13A.64.64,0,0,0,70.69,45.1Z" transform="translate(0.02 -10.25)"/><path class="cls-2" d="M73.1,48.41l0,.07Z" transform="translate(0.02 -10.25)"/><path class="cls-2" d="M66.54,43.3a.41.41,0,0,0,0-.1A.31.31,0,0,0,66.54,43.3Z" transform="translate(0.02 -10.25)"/><path class="cls-2" d="M69.48,51.61l0,0S69.5,51.61,69.48,51.61Z" transform="translate(0.02 -10.25)"/><polygon class="cls-2" points="72.87 41.42 72.84 41.45 72.89 41.6 72.87 41.42"/><path class="cls-2" d="M53.8,37.17l0,0C53.92,37.2,53.86,37.18,53.8,37.17Z" transform="translate(0.02 -10.25)"/><path class="cls-2" d="M63.46,49.3c.7,0,.56.12,1.39.09A11.34,11.34,0,0,0,63.46,49.3Z" transform="translate(0.02 -10.25)"/><path class="cls-2" d="M72,48.93v-.11A.2.2,0,0,0,72,48.93Z" transform="translate(0.02 -10.25)"/><path class="cls-2" d="M64.85,49.39h0Z" transform="translate(0.02 -10.25)"/><path class="cls-2" d="M51.78,42.64l.13,0A.24.24,0,0,0,51.78,42.64Z" transform="translate(0.02 -10.25)"/><path class="cls-2" d="M52.18,37.31l0,.1A.15.15,0,0,0,52.18,37.31Z" transform="translate(0.02 -10.25)"/><path class="cls-2" d="M53.52,44.93c.07,0,.09.09.21.1s0,0,0-.05A.17.17,0,0,1,53.52,44.93Z" transform="translate(0.02 -10.25)"/><path class="cls-2" d="M55.7,45.77a.14.14,0,0,0,0-.07h-.07Z" transform="translate(0.02 -10.25)"/><path class="cls-2" d="M63.23,54.48a.9.9,0,0,1,.2.19C63.32,54.5,63.59,54.3,63.23,54.48Z" transform="translate(0.02 -10.25)"/><path class="cls-2" d="M72.12,49a.19.19,0,0,1-.12-.07L72,49Z" transform="translate(0.02 -10.25)"/><path class="cls-2" d="M54.52,42.93a1.36,1.36,0,0,0,.28.15C54.73,43,54.55,43,54.52,42.93Z" transform="translate(0.02 -10.25)"/><path class="cls-2" d="M54.13,55.74s0,0,0,0S54.16,55.76,54.13,55.74Z" transform="translate(0.02 -10.25)"/><path class="cls-2" d="M55.81,43.43a.49.49,0,0,0,.12.26l.06-.06Z" transform="translate(0.02 -10.25)"/><path class="cls-2" d="M63.43,54.67Z" transform="translate(0.02 -10.25)"/><path class="cls-2" d="M65.34,53.12c-.32.13,0,.39,0,.62-.33.25-.28-.18-.48-.3-.2.2-.24.58-.42.65s-.08-.06-.07-.15c-.13.38-.73.34-.87.8a.19.19,0,0,1-.08-.07,1.72,1.72,0,0,1,.25.45c-.14.07-.17.33-.32.13.09,0,.06-.12.07-.21l-.11.16c-.27-.26.16-.2,0-.43-.24.22-.46.63-.72.64-.18-.29.47-.33.06-.48l.39,0c-.47-.38.22,0-.25-.48-.48.11-.43.38-.92.49,0,.21.15.24.12.45-.5.59-.84-.56-1.13.06,0,.26.1.67-.33.61l0-.4c-.45.15,0,.61-.58.57,0-.17.29-.26.21-.28-.42-.15-.13.3-.35.39L59.64,56c-.44.25-.85.7-1.34,1,0-.11,0-.24-.12-.28a4.41,4.41,0,0,1-2.1.64l-.12.38c-.06,0-.16-.08-.12-.16-.29,0,.06.18,0,.33s-.25-.07-.2-.19a3.45,3.45,0,0,1-.7.66c-.16.14-.3.19-.38,0l0-.11c0-.1-.29.79-.38.53l.06-.08a.85.85,0,0,0-.4.13,1,1,0,0,1,.27-.82c-.22.12-.17,0-.14-.09s0-.14-.27-.12a2.71,2.71,0,0,0,.34-.35,1.67,1.67,0,0,0,.26-.58c0-.18-.37-.26-.43-.49h.31l-.33-.3.37-.16-.08-.21c0,.08-.14.18-.22.16-.14-.38.21-.34.37-.29a1,1,0,0,1-.17-.21.14.14,0,0,1,0-.09,2,2,0,0,1,.16.2c-.2-.26.29.23.1,0a1.35,1.35,0,0,1-.16-.19c.21.11.13.14.53-.1l0,.22c.55-.15,1.08-.53,1.67-.76-.25,0-.33-.37-.17-.47l.19.28c0-.24-.23-.05-.09-.37.24,0,.28.29.2.44l.22-.21c.06.08,0,.15,0,.28,0-.24.58.12.62-.27l.05.08c.59-.23.82-.44,1.3-.64-.1-.27.12-.28.18-.55a4.59,4.59,0,0,0,1.28-.2c.25-.25,0-.25.07-.46.12.23.54,0,.38.29A5,5,0,0,0,62,52.16c-.11-.07-.21-.08-.2-.18a.24.24,0,0,1,.34.12l0,0a1.65,1.65,0,0,1,1.25-.31c.61-.06,1.59-.29,1.82-.66l0,0a8.83,8.83,0,0,0,.68-.57c.51-.15,0,.22.54.17a2.38,2.38,0,0,1,1.17-.64c.46-.14,1-.3,1.11-.5a6.42,6.42,0,0,0,2.1-.45c-.93-.35-2.26-.65-2.31-1l-.29.08c-.59,0-.12-.16-.26-.26-.21.07,0,.17-.33.15a17.75,17.75,0,0,1-3.23-1.33l-.82-.41L63,46.18c-.3-.19-.6-.37-.9-.52s-.59.75-1,.13l.28-.24c-1.07,0-1.89-.75-2.92-.79.08,0,.12-.14.2-.1-.1-.3-.7-.29-.77-.11-.14-.07,0-.17,0-.3s-.6.1-.61-.16c0-.05.08-.06.12-.06-.17.06-.57-.25-.55,0-.3-.25-.7-.14-.91-.39-.29.22-.53-.37-.75,0,.19-.42-.46-.57-.76-.46.08-.12,0-.16.1-.32,0,0-.12,0-.28.24.09-.19.07-.18,0-.15s-.3-.06.12-.21c-.12.09-.22-.45-.3-.79a10.81,10.81,0,0,1-.21-1.08c.45,0,0,.78.52.75a9.08,9.08,0,0,0-.34-.86c-.11-.16-.18-.27-.13-.42s.2.15.28.18a.47.47,0,0,1-.08-.34,1,1,0,0,0-.1-.44v0l.06.12,0,.07v0s.1.08-.06-.17v.06a1.66,1.66,0,0,1-.32-.62,3.45,3.45,0,0,0,0-.38c.28.76.46.36.68,1.26a.9.9,0,0,0-.08-.32.5.5,0,0,1,.13.35c.09-.08,0-.36.18-.28,0,.11,0,.14,0,.27,0-.2.17-.35.32-.19,0,0,0,.13-.07.11l.66,0a1.06,1.06,0,0,1,.76.24c-.34.32.13.21,0,.56l.34,0,0-.22c.26.12.59,0,.77.18l-.25.06.51.15-.22-.25c.34-.07.16-.45.47-.2-.09,0,.26.11.31.37h0c.17,0,.36-.11.51.06s-.2.36-.2.45c.25-.23.65.19.94-.05a.52.52,0,0,0-.16.27l.21-.18a.21.21,0,0,1,0,.3c.35.2.08-.48.43-.11,0,0,0,.05-.13.05.39.29.91.22,1.26.5,0,.4-.39-.06-.38.29a8.14,8.14,0,0,1,1.89.42l-.08-.08c.28-.46.31.42.69.31-.09,0-.21.23-.17.18a3.66,3.66,0,0,0,1.48.32l-.13.09c.18.21.57.32.79.48.12-.09.25,0,.25-.23.44,1,1.59.23,2,1.11-.08,0-.24,0-.17.06l.61.13c0-.23,0-.16-.06-.38a.5.5,0,0,1,.46-.06c-.31,0-.14.34-.08.51,0-.08.08-.13.1-.2.13.5.23-.41.52,0l-.07.1c.18,0,.38-.08.53,0,0,.27-.21,0-.31.24.24.08.66-.27.76.06-.13,0-.27,0-.39,0,.1.38.15.32.3.44v0l.33.3-.07-.12c.57-.51.64.14,1.21-.12-.55.24-.17.21-.31.47.06.12.17.27.1.33.28-.14.23.31.62.09,0,.1.2.1.06.3.15,0,0-.16.08-.28.33-.13.33.27.51.33,0,.06,0,.1.15.14.19.21.52.31.68.77-.16.16-.36-.12-.36-.12a.65.65,0,0,0,0,.67c-.09-.05-.16,0-.27.07s.36.13.21.38a1.55,1.55,0,0,1-.39-.19c.09.22.27.44.36.67-.17.06-.26-.14-.37-.22.08.26.16.67.43.75l.09-.16c0,.09-.23.05-.28,0-.21-.23.1-.32.19-.34l.07.17c.57-.17-.1-.66-.06-1l.41.14-.34-.34c.11-.07.34-.12.4,0,.21-.24-.15-.21.08-.41,0,0,.06,0,.07,0L73,48.17c.09,0,.29,0,.23.11a.56.56,0,0,0,0-.55c-.07-.16-.13-.25,0-.4l0,0c-.07-.34-.14-.31-.25-.26a.41.41,0,0,1-.41,0l.34-.34a2.56,2.56,0,0,0,.22-.35l-.34.18s-.16-.1,0-.18c-.39,0-.06.11-.34.21,0-.17-.27-.23-.44-.3s-.28-.14-.22-.37c-.18.17.18.27-.16.3.13-.52-.36-.06-.5-.38.18-.22.35,0,.2-.32-.32.36-.43-.29-.66-.3-.16.33-.5,0-.89-.08.07-.1-.56-.46-.82-.72l0-.05c-.21.31-.5.11-.77.07a.43.43,0,0,1,.34-.29l-.22-.09a.4.4,0,0,1-.36.08l.17-.22c-.31-.12-.73,0-1-.3-.12.23,0,.79-.45.77,0-.13.12-.36.25-.36,0,0-.17,0-.22,0l.26-.15c-.14-.17-.17.14-.3.06.08-.18-.05-.17,0-.31s.09.13.18.08a.63.63,0,0,1-.29-.45c0,.11-.11.24-.23.22-.31-.12,0-.27-.14-.43-.13.09-.26-.12-.39.15-.08,0,0-.18,0-.26-.2.05-.73-.28-.68.08l0,0h0c-.62,0-1-.6-1.53-.7l0-.09c-.34,0-.69-.23-1-.12a.27.27,0,0,1-.06-.35c-.25,0-.32.06-.59-.23.3-.06,0-.18.29,0-.26-.2-.27-.38-.69-.27.2-.18-.1-.39-.27-.38l.13.26A1.42,1.42,0,0,1,61,41l.21-.27c-.45-.63-1.37.16-1.56-.66-.25.15.26.29,0,.48-.26-.16-.36-.72-.45-.76-.31-.34-.55.29-.9,0a.38.38,0,0,1-.41.42c-.26-.16-.15-.61.07-.62a.09.09,0,0,1,.07.11c.1,0,.24,0,.18-.17l-.08.1c-.09-.17-.48-.33-.31-.47-.26,0-.17.14,0,.27-.29-.32-.56-.25-.88-.51,0,.08,0,.23,0,.21-.49-.37-.33.1-.72,0-.13-.26.25-.36-.18-.38-.18-.21.08-.31.2-.36a.53.53,0,0,1-.48-.21,5.24,5.24,0,0,0-.59-.47l.36,0a2.09,2.09,0,0,1-.55-.17l.16.32c-.18-.12-.34-.19-.33-.29-.18.09.11.47-.21.57-.23-.23-.57-.11-.74-.52.72.42-.18-.43.45-.21a1.13,1.13,0,0,1-.47-.21c0-.05,0-.07,0-.07-.88-.68-.23.29-.92,0a1,1,0,0,0-.5-.55c.32.15.34.47.2.56-.34-.24-.41-.2-.45-.16a.93.93,0,0,1,0,.3l.06-.14.06,0a.31.31,0,0,1,0,.08,3.07,3.07,0,0,1,.14.72c-.14-.15-.1-.38-.16-.36.16.37.08.43,0,.54a.5.5,0,0,0-.09.58c-.12.13-.33-.25-.41-.09.23.76-.25.57-.06,1.35.24-.14.18-.15.41.32L52,39.3c.11.29.23.54.34.77,0-.26-.15-.65-.11-.8.2.4.14.32.34.31-.18.07-.13.29-.06.49s.15.37,0,.55l-.59,0a.84.84,0,0,0-.06.4,1,1,0,0,0,.1.32,1.17,1.17,0,0,1,.12.75l.1-.19c.24.08,0,.36.13.55-.2,0-.27.1-.39.19.07,0,.07.06.09.25s.09.37.29.37a4.13,4.13,0,0,0-.26.47c-.06.42.1.57.25.66a1.44,1.44,0,0,1,.81,0c-.34.1-.15.32-.72.27.22.08.41.19.5.09.07.15.74,0,.84.23.11,0,.19-.24.35-.16a.14.14,0,0,1,0,.09c0-.09.3,0,.24-.28.21.74,1.23.43,1.42,1.07a7.27,7.27,0,0,1,1,.24c0,.05,0,.09-.08.05.32.32.44-.44.81-.08.11.39-.3.07-.2.24-.17.63.56.13.72.59h-.08c.14.3.64,0,1,.17a.22.22,0,0,0,0,.09,2.15,2.15,0,0,1,1.28-.07c-.2.19-.21.06-.24.33.18,0,.11-.41.45-.35.06.17.24.37.17.64l-.3-.1c0,.39.39.14.53.26l-.08.13c.48.14.63-.23,1.11,0v-.13c.41-.26.14.29.52.13l-.06.4.5-.06a1.56,1.56,0,0,1,.52,0c-.17.09-.32.14-.45.2a3.25,3.25,0,0,1-.47.1,1.71,1.71,0,0,0,.36.1.5.5,0,0,0,.26-.1c-.07,0-.16.08-.17,0a.84.84,0,0,1,.89-.14c-.38.26-.3.34-.19.41s.27.14-.19.28c.3,0,.42,0,.42.09s-.11.09-.08.12l-.08,0a11.83,11.83,0,0,1,1.52.08c0,.05-.09.07-.19.06a10.09,10.09,0,0,1-1.07,0,4.17,4.17,0,0,1-.51-.09,4.8,4.8,0,0,1-.89-.1c.42.07.55.11.38.09a4.1,4.1,0,0,0,.56.09c.2.09-.08.07-.3,0s-.41-.11-.25,0a.78.78,0,0,0-.22-.12c.09.08,0,0,.17.45a.53.53,0,0,1-.15-.24,4.3,4.3,0,0,0-.69.48,1.3,1.3,0,0,1-.89.38v-.16c-.1.09-.11.34-.31.26,0-.06,0-.16-.07-.14s-.22.37-.41.35l.08-.21c-.7.06-.81.76-1.3,1.06-.16-.41-.7-.35-1-.32l0-.07c-.74.24-1.1.83-1.71,1.25-.59-.28-1.49.37-2.26.39.13,0,.11.32,0,.41s-.31.45-.47.08l.08,0c-.32-.3-.93,0-1.38.21l.35.43a2.72,2.72,0,0,0-.7,0,5.65,5.65,0,0,0,0,1.83c.06.36.09.66-.21.82.14.18.13.39.27.56h-.29c0,.24-.06.42-.07.61s0,.72,0,1.22a1.3,1.3,0,0,1-.2-.15c0,.69.82.37.83.75l-.42.49c0,.61-.15,1.43-.15,2.12a4.49,4.49,0,0,0,1.11-.68.9.9,0,0,1-.33.36c.41-.16,1.7-.42,1.63-1-.06.43,1-.38,1.3-.71l0,.3c.07-.13.12-.23.16-.32a.78.78,0,0,1,.05-.18.7.7,0,0,1,.26-.31c.09,0,.15.17,0,.15.32,0,.1-.33.48-.33l0,.21c.29-.1.23-.18.3-.43a.48.48,0,0,1,.69,0c0-.16,0-.41.23-.41a.19.19,0,0,1,0,.19c.53,0,.55-.59,1-.48.05.08.09.12.12.13a3.51,3.51,0,0,1-.64.24c.1.23.41.15.32.57.16-.28.39-.84.73-.85l.07.06,0,0a.19.19,0,0,0,.17-.12.59.59,0,0,0,.27,0c.11.18.38,0,.53-.09-.12-.26.09-.3-.19-.43,0,0,0,0-.1.09l-.06.06v0l-.35.18c.06-.19.13-.35.35-.28,0-.19,0-.4,0-.5.36.27.83.3,1,.49.38-.33,1-.55,1.08-1.16.1-.11.21.08.29.13s-.14.11-.15.2c.2-.23.73-.37.64-.74.39,0,0,.39.38.14l0,.13c1.1.17,1-1.48,2.3-1.2-.09,0-.13,0-.17-.07,1.23-.17,2.14-1.27,3.43-1.26.35,0,.29-.26.41-.51l.18.25.19-.46c.35-.43,1.08.34,1.46-.36L70.66,53c.22-.06.61-.4.66-.17,0,0,0-.22.11-.16l.07.14.4-.47c.44-.06.19.61.78.38.19-.14.42-.68.3-.74a.29.29,0,0,1-.33-.14l.16-.16c-.15-.44-.19-1-.8-1l-.22.41-.2-.16.28-.13c-.25-.13-.27.09-.33.25a.42.42,0,0,0-.24-.16l-.15.55c-.12-.15,0-.4-.26-.39-.07.25.31.31.11.54-.25-.12-.27-.3-.38,0a.2.2,0,0,1,0-.27c-.11.2-.42.25-.41.51-.27-.16-.54.31-.7-.1a.93.93,0,0,1-.3.53c.07-.61-.59.22-.74-.33,0,.52-.66.52-.93.92,0,0,0-.13.06-.12-.22.05-.34,0-.51-.08.13.37-.15.59-.23.89-.41-.23,0-.49-.26-.79.14.29-.31.49-.12.69-.28-.13-.21,0-.44-.28.16.46-.15.15-.19.5-.37-.1-.25-.39-.5-.12C65.13,53.39,65.34,53.12,65.34,53.12Zm-7,4h0l.14-.08Zm-.61.27a1.4,1.4,0,0,0,.27-.11c.06.08.07.18,0,.21S57.85,57.39,57.73,57.36Zm2.08,1.22a.11.11,0,0,1-.18,0,.59.59,0,0,0,.16-.1v0A.77.77,0,0,1,59.81,58.58Z" transform="translate(0.02 -10.25)"/><path class="cls-2" d="M59.84,58.16l0,0-.09,0v.1Z" transform="translate(0.02 -10.25)"/><path class="cls-2" d="M65.05,43.06h0a.09.09,0,0,1,0,.05Z" transform="translate(0.02 -10.25)"/><polygon class="cls-2" points="54.29 46.2 54.22 46.2 54.28 46.26 54.29 46.2"/><path class="cls-2" d="M68.07,45.42a.25.25,0,0,0,0,.08A.12.12,0,0,0,68.07,45.42Z" transform="translate(0.02 -10.25)"/><path class="cls-2" d="M69.51,46.11l.17.18A1,1,0,0,0,69.51,46.11Z" transform="translate(0.02 -10.25)"/><path class="cls-2" d="M70.59,46.72l.07-.1h0Z" transform="translate(0.02 -10.25)"/><path class="cls-2" d="M54.06,40l0,0Z" transform="translate(0.02 -10.25)"/><path class="cls-2" d="M58.11,41a.68.68,0,0,1-.23.05C58,41.09,58,41.13,58.11,41Z" transform="translate(0.02 -10.25)"/><polygon class="cls-2" points="54.54 32.68 54.54 32.68 54.55 32.68 54.54 32.68"/><path class="cls-2" d="M57.64,40.92a.25.25,0,0,0,.24.11C57.81,41,57.73,40.91,57.64,40.92Z" transform="translate(0.02 -10.25)"/><path class="cls-2" d="M71.94,50.09v.06h0Z" transform="translate(0.02 -10.25)"/><path class="cls-2" d="M72,50.16l0,.07A.07.07,0,0,0,72,50.16Z" transform="translate(0.02 -10.25)"/><path class="cls-2" d="M72.08,50.36,72,50.23S72,50.33,72.08,50.36Z" transform="translate(0.02 -10.25)"/><path class="cls-2" d="M72.07,48.47l-.1,0Z" transform="translate(0.02 -10.25)"/><path class="cls-2" d="M72,48c0,.12-.22.3-.15.46l.08,0C71.82,48.37,72.21,48.08,72,48Z" transform="translate(0.02 -10.25)"/><path class="cls-2" d="M72.15,46.06l.44.27c0-.12,0-.29.22-.21C72.33,45.56,72.78,46.38,72.15,46.06Z" transform="translate(0.02 -10.25)"/><path class="cls-2" d="M71,45.39c.22,0,.06-.15.09-.2C70.93,45.23,70.89,45.24,71,45.39Z" transform="translate(0.02 -10.25)"/><path class="cls-2" d="M62.48,41.71l.12-.23C62.43,41.45,62.56,41.57,62.48,41.71Z" transform="translate(0.02 -10.25)"/><polygon class="cls-2" points="60.35 31.97 60.44 32.18 60.6 32 60.35 31.97"/><polygon class="cls-2" points="60.11 29.88 60.19 29.88 59.89 29.85 60.11 29.88"/><path class="cls-2" d="M55.24,45.85l.06-.31C55.17,45.55,55,45.87,55.24,45.85Z" transform="translate(0.02 -10.25)"/><path class="cls-2" d="M61.63,48c0,.18.16.34.32.24C61.82,48.14,61.72,48,61.63,48Z" transform="translate(0.02 -10.25)"/><polygon class="cls-2" points="51.77 43.57 51.76 43.56 51.88 43.4 51.7 43.52 51.75 43.77 51.77 43.57"/></g></svg>