<svg xmlns="http://www.w3.org/2000/svg" viewBox="0 0 86.64 52.84"><defs><style>.cls-1{fill:#f2b880;}.cls-2{fill:#5d5d5e;}</style></defs><title>contactLogo</title><g id="Isolation_Mode" data-name="Isolation Mode"><rect class="cls-1" x="1.62" y="1.49" width="84.13" height="49.83"/><path class="cls-2" d="M86.4,69.92c.08.14.28.06.24-.33l-.33-.28Z" transform="translate(-1.32 -18.6)"/><path class="cls-2" d="M87,67.3c-.16-.45-.44-1-.74-.69.31.46.18.57.56,1,0,.39-.11.68-.23.62.09.13-.07.6.14.81a2.46,2.46,0,0,0,.05-1.82C86.86,67.13,87,67.27,87,67.3Z" transform="translate(-1.32 -18.6)"/><path class="cls-2" d="M87.53,29.31l0,.24A1.33,1.33,0,0,0,87.53,29.31Z" transform="translate(-1.32 -18.6)"/><path class="cls-2" d="M72.75,19.44c.18,0,.25,0,.26-.07C72.84,19.39,72.71,19.41,72.75,19.44Z" transform="translate(-1.32 -18.6)"/><path class="cls-2" d="M68.73,19.07l.23,0A.33.33,0,0,0,68.73,19.07Z" transform="translate(-1.32 -18.6)"/><path class="cls-2" d="M87.53,29.31l.1-.63C87.52,28.63,87.55,29,87.53,29.31Z" transform="translate(-1.32 -18.6)"/><path class="cls-2" d="M86.21,62.06a1.53,1.53,0,0,0,.09.34l0-.32Z" transform="translate(-1.32 -18.6)"/><path class="cls-2" d="M87.8,39.68v.2a.61.61,0,0,0,.13.15Z" transform="translate(-1.32 -18.6)"/><path class="cls-2" d="M87.85,47.65c0-.18-.27-.24-.39-.31a.61.61,0,0,1,.19.39A.35.35,0,0,0,87.85,47.65Z" transform="translate(-1.32 -18.6)"/><path class="cls-2" d="M87.35,60.28l0,.22Z" transform="translate(-1.32 -18.6)"/><path class="cls-2" d="M87.86,34a.18.18,0,0,0,.1-.07S87.89,33.94,87.86,34Z" transform="translate(-1.32 -18.6)"/><path class="cls-2" d="M77.83,68.6s0,0,0,.05S77.89,68.6,77.83,68.6Z" transform="translate(-1.32 -18.6)"/><path class="cls-2" d="M87.06,70h-.12a.5.5,0,0,0,0,.16Z" transform="translate(-1.32 -18.6)"/><path class="cls-2" d="M61.37,18.71h0C61.6,18.69,61.49,18.69,61.37,18.71Z" transform="translate(-1.32 -18.6)"/><path class="cls-2" d="M1.77,29.17c.25-.76.33,1.25.6.1C2.26,29.38,1.94,28.22,1.77,29.17Z" transform="translate(-1.32 -18.6)"/><path class="cls-2" d="M86.25,61.86v-.33A1.77,1.77,0,0,0,86.25,61.86Z" transform="translate(-1.32 -18.6)"/><path class="cls-2" d="M2.37,29.27h0l0-.12Z" transform="translate(-1.32 -18.6)"/><path class="cls-2" d="M44.42,18.88a.47.47,0,0,0,.18.12S44.55,18.94,44.42,18.88Z" transform="translate(-1.32 -18.6)"/><path class="cls-2" d="M57.05,19.28l-.31,0A1.25,1.25,0,0,0,57.05,19.28Z" transform="translate(-1.32 -18.6)"/><path class="cls-2" d="M37.87,19.28a1.13,1.13,0,0,0-.46,0l.07,0A.54.54,0,0,1,37.87,19.28Z" transform="translate(-1.32 -18.6)"/><path class="cls-2" d="M31,19.28l.13.06.22,0Z" transform="translate(-1.32 -18.6)"/><path class="cls-2" d="M57.09,68.73a1,1,0,0,1,.32.26C57.3,68.79,58.31,68.71,57.09,68.73Z" transform="translate(-1.32 -18.6)"/><path class="cls-2" d="M86.37,62.06a.26.26,0,0,1-.12-.2l0,.22S86.35,62.11,86.37,62.06Z" transform="translate(-1.32 -18.6)"/><path class="cls-2" d="M37.59,21.5l-1.08-.05C36.81,21.48,37.2,21.5,37.59,21.5Z" transform="translate(-1.32 -18.6)"/><path class="cls-2" d="M8.14,68.77l.25,0A.49.49,0,0,0,8.14,68.77Z" transform="translate(-1.32 -18.6)"/><path class="cls-2" d="M33.29,21.5a2.3,2.3,0,0,0-.61-.2.4.4,0,0,0-.13.07Z" transform="translate(-1.32 -18.6)"/><path class="cls-2" d="M57.41,69Z" transform="translate(-1.32 -18.6)"/><path class="cls-2" d="M64.55,68.32c-1,0-.48.36-.7.57-1.23.11-.57-.27-1-.46a19.75,19.75,0,0,1-1.94.43c0-.06-.15-.09,0-.16-.81.29-2.42,0-3.36.38a.29.29,0,0,1-.13-.09.57.57,0,0,1,.15.51c-.47,0-.86.23-1,0a.57.57,0,0,0,.44-.17l-.48.11c-.44-.35.66-.12.66-.38a14,14,0,0,1-2.77.3c-.15-.34,1.69-.11.73-.41l1.12.12c-.86-.53.68,0-.11-.53-1.47-.1-1.65.17-3.12.07-.33.19.11.28-.22.47-2.1.34-1.65-.85-3.19-.4a1.59,1.59,0,0,1-1.65.43l.37-.39c-1.43,0-.81.56-2.31.3.27-.15,1.12-.13.91-.17-1-.31-.69.21-1.43.21l-.16-.34c-1.52.06-3.2.3-4.88.36.09-.1.38-.2,0-.31a39,39,0,0,1-6.59-.24l-.79.29c-.18,0-.33-.13-.14-.19-.8-.11,0,.19-.42.3s-.6-.16-.31-.25a18.12,18.12,0,0,1-5.51.22L27,68.8c-1.15-.12-1.3.6-2.38.33l.21,0c-2.51-.13-5.29.14-7.2-.3-.37.42-2.49-.19-2.65.4a15.55,15.55,0,0,0-3-.6c-.54,0-.8.37-1.47.43l0-.3L9.5,69,9,68.66l-.63.08c.25,0,.53.14.49.23a4.16,4.16,0,0,1-2.4-.38l-1.16.13a6.58,6.58,0,0,0-.9.13.5.5,0,0,1,.1-.14l0,0,.12,0,.24,0-.36.08h0a.11.11,0,0,1,0-.1c0-.08,0-.17-.11,0a.69.69,0,0,1-.18.25.19.19,0,0,0-.06-.1,1,1,0,0,0,.05-.31l-.05-.78.22.19c0-1.72-.11-3.62-.1-5.54-.1.69-.47.53-.5,0L4.08,62c-.2-.36-.12.59-.37-.16,0-.72.37-.48.48-.07l-.11-.87c.09-.05.14.15.27.2-.2-.35.32-1.5,0-2l.1-.05c0-1.92-.11-2.8-.13-4.36-.28,0-.21-.65-.44-1.11a38.21,38.21,0,0,0,.29-3.82c-.14-1-.24-.28-.41-.72C4,49,4,47.58,4.15,48.3c-.05-1.67-.05-2.13-.26-4.23-.11.23-.15.48-.24.35,0-.38.11-.87.23-.81l0,.1c-.39-2.37.74-5.46.21-7.34l0,.1-.28-1.95c0-.89.19.54.35-.12-.43-2.11.06-3.33-.22-5.06.75-1.34-.06-4.76.42-6.58l-.17.11c-.18-.47.1-.57.14-.91-.14.05-.16.5-.26.21l0-.48,0-.15c0-.1,0-.21,0-.31a2.29,2.29,0,0,1,.37,0h.37l.64,0L8,21.41c1.7.1,3.41.22,5.09.29,1.48.05.84-.92,2.71-.5l-.53.34c3-.4,6.14,0,9.08-.33-.18.08-.18.18-.47.18a3.65,3.65,0,0,0,2.31-.19c.45,0,.1.18.38.28.63.14,1.57-.31,1.9-.07.05,0-.18.08-.29.1.4-.12,1.89,0,1.5-.25,1.1.13,2.11-.12,3,0,.57-.31,1.89.15,2.07-.29-.08.46,1.93.37,2.63.15-.24.14.6.15.33.34.8,0,1.53-.09,1.39-.33,1.46.54,2.94-.43,3.77.26,2.36-.24,4.55-.41,6.67-.51-.07.45-2.35,0-2.25.52A30.33,30.33,0,0,1,52.47,21c.51.06-.3.2-.47.27,2-.18,3.89.05,5.69-.2,0,0-.2.09-.38.12.35,0,.82.07.78-.14l-.35.06c-.56-.3,1.41-.62,1.47-.78-.6.59,1.77.15.82.89.23,0,.52-.14.47-.27.34,0,.45.12.1.27,1.27-.11.82-.33,2-.32,0,.1-.24.14-.36.25a4.81,4.81,0,0,1,2.13-.3c0,.06.06.14-.23.14,1.66,0,2.84-.52,4.66-.33-.54.43.62.14.72.51l1-.11-.39-.18a16.53,16.53,0,0,1,2.36-.14l-.64.15,1.61-.07-.91-.14c.87-.19-.1-.47,1-.37a7.66,7.66,0,0,1,1.31.22h0a3.32,3.32,0,0,1,1.5-.16c.17.12-.13.42,0,.5.42-.32,2-.09,2.54-.42-.17.08-.18.27-.12.31l.35-.25c.4.08.45.12.39.27,1.2,0-.38-.47,1-.26-.11,0-.06.05-.29.09,1.43.11,2.76-.16,4.07,0,.39.37-1.14.09-.7.4.56,0,1.14-.06,1.72-.12.41-.05.7-.12,1.14-.17,0,.22.06.47.08.72v.43l0,.56,0-.34c.53.25-.27,1.36,0,2.29,0-.23-.29-.3-.23-.24a30.73,30.73,0,0,0,.3,4.47l-.14-.24c-.12.74-.07,1.95-.13,2.74.13.24.11.7.31.42-.78,2.46.42,4.7-.23,6.88,0-.26-.12-.62-.12-.41l.12,1.86c.24-.15.14-.25.32-.64A2.85,2.85,0,0,1,87,40.39c-.16-.83-.37,0-.5.37.07-.06.15.07.22,0-.41,1,.46.17.19,1.49l-.12-.07A7.32,7.32,0,0,1,87,43.7c-.26.23-.12-.52-.34-.56,0,.75.5,1.49.24,2.17-.08-.32-.08-.78-.15-1.1a2.94,2.94,0,0,0-.29,1.38v-.06l-.14,1.28.08-.33c.7.94.13,1.92.59,3.19-.43-1.24-.25-.21-.55-.3-.09.32-.18.81-.27.67.25.6-.19,1,.17,1.85-.1,0,0,.64-.26.51.08.77.17-.19.29-.12.34,1.2-.4,2.82.06,4.55.19,1.49.51,1.76.68,3.14-.16.47-.36-.38-.36-.38a5.54,5.54,0,0,0,0,2c-.09-.14-.16,0-.27.22,0,.57.36.38.21,1.13a1.86,1.86,0,0,1-.39-.57c.09.68.27,1.34.36,2-.17.19-.26-.42-.37-.66A6.28,6.28,0,0,0,86.71,66l.1-.5c0,.29-.23.15-.28-.06-.21-.67.09-1,.19-1l.06.5c.58-.51-.09-2,0-3l.41.41-.34-1c.1-.22.34-.36.4.13.2-.72-.15-.63.08-1.25,0-.07.06,0,.07,0l-.12-.7c.09.14.29-.12.23.31.24-1.25-.31-2,0-2.49l0,.11c-.14-1.74-.3-.17-.66-1.47l.75-.88-.3-.17c0-.18,0-.53.15-.47-.21-.66-.13.12-.33-.27.28-.86-.13-2.38.36-2.57-.23-.31-.18.82-.34-.1.52-.26-.09-1.06.15-1.85.27.24.12,1,.37.2-.46-.48.1-1.54,0-2.2-.37,0-.15-1.44-.27-2.56A29.19,29.19,0,0,0,87.71,42l.06,0c-.37-.21-.3-1.28-.38-2,.22,0,.31.17.41.59v-.73a1.8,1.8,0,0,1-.22-.88l.27.18A16.21,16.21,0,0,1,87.71,36c-.26-.07-.71,1-.88-.33.13,0,.37-.1.43.25a1.53,1.53,0,0,1-.06-.64l.23.53c.11-.57-.19-.3-.17-.75.2,0,.14-.34.3-.28s-.08.4,0,.58a3.42,3.42,0,0,1,.3-1.35c-.12.05-.27,0-.29-.37,0-1,.23-.34.33-.91-.13-.23,0-.85-.29-.87a.62.62,0,0,1,.22-.45c-.13-.5,0-2.35-.35-1.79l0,.13v-.08h0c-.29-1.65.17-3.43,0-5.07h.1a22,22,0,0,0-.28-2.88c0-.32.18-.86.3-.75,0-.61-.11-.82-.11-1.29a9.46,9.46,0,0,1-1.06-.09c1.12-.17-.28-.15,1.14-.12-.64-.05-1-.11-1.5-.12a5.45,5.45,0,0,0-.7,0,6.17,6.17,0,0,0-.65.13c.36-.25-.73-.32-1.19-.24l.68.18a9.82,9.82,0,0,1-1.44,0l.25-.33c-2-.4-3.59.69-5.1,0-.53.23,1.08.17.61.44A14.19,14.19,0,0,1,76.38,19c-1.26-.18-1.17.49-2.48.36.16.12.32.44-.66.55s-1.12-.5-.55-.59c.22,0,.33,0,.32.07.3-.05.68-.1.32-.23l-.12.12c-.45-.12-1.71-.11-1.42-.3-.69.11-.29.19.22.26-1.17-.18-1.84,0-3.05-.12.2.06.37.2.18.2-1.77-.15-.78.22-2,.28-.68-.18.24-.44-1-.28-.74-.13-.15-.32.14-.42a8,8,0,0,1-2.69-.19l.58-.09a6.06,6.06,0,0,1-.92,0l.33.24c-.34,0-.63,0-.62-.14-.35.15.27.39-.43.6-.45-.12-1.38.13-1.54-.18,1.43.11-.16-.32,1.05-.37a3.07,3.07,0,0,1-.86,0s.05-.07.14-.09c-1.37-.28-.63.36-2,.35.18-.18-.32-.34-.56-.3.58,0,.28.3-.25.43-.91-.13-1,.11-1.46.09l.54.07c-.18.17-.64.15-1.27.21,0-.14.58-.1.35-.16-.7.31-1.59-.32-2.57-.11-.46-.12-.05-.34-.45-.42-1.09.23-1.19-.24-2.34-.05.33.24.39.18-.42.41l1.9-.17-1.22.35c.57,0,1.21-.15,1.55-.11-.58.2-.52.14-.25.34-.78-.36-1.55.2-2.46,0l0-.59c-1.37-.26-2.43.3-4.2.16l.57.1c-.23.23-1.09,0-1.66.13.05-.2-.31-.27-.55-.4,0,.15-1.3,0-1.46.39l-.79-.26c-1.43-.11-1.63.56-3,.49.42-.21-.21-.35.71-.51-.46,0-.87,0-.88.1-.27-.12-1.27.27-1.69.08-.2.09-.26.29-.77.28-.06,0,0-.1,0-.1s-.81.13-.36.35c-1.41-.62-4,.05-5.18-.48-1,.06-2.21.13-3.12.14.06-.06,0-.1.18-.08-1.26-.18-.77.57-2.2.36-.73-.31.76-.17.3-.29-.2-.65-1.72.09-2.68-.29l.23,0c-.73-.22-1.79.25-3,.2,0,0,.06-.06,0-.1a14.8,14.8,0,0,1-3.53.54c.36-.26.52-.14.3-.4-.51,0,.16.42-.88.49-.33-.14-1.08-.26-1.18-.54h1c-.5-.36-1.26,0-1.78-.05l.07-.16c-1.49.05-1.51.45-3.12.42l.17.12c-.88.39-.74-.22-1.61.07l-.27-.4c-.57.1-2,.38-3.06.46a15.87,15.87,0,0,1,2.55-.62,7.42,7.42,0,0,0-2.24.23,1.93,1.93,0,0,1,.75-.08,6.83,6.83,0,0,1-2.78.46c.07-.25-.23-.36-.68-.41C4,19.31,3,19.31,2.14,19.28a6.67,6.67,0,0,1-.31,2.17l.08.86c0,.25,0,.5,0,.76,0,.5,0,1-.05,1.54-.06,1-.15,2.13-.13,3.31.59-.84,0,.68.63.54a2,2,0,0,1,0,.81L2,30.93c-.18.39-.13-.52-.27-.47-.05,1.2-.26.5-.42,1.3.22-.17.31.41.23,1.1l.28-1c.32,1.68-.51,1.45-.19,3.15l-.19-.54c.11.87,0,3.2.48,4-.07.16-.23.36-.28,0-.07,2.07.52,4.62.22,6.23l-.15-.16c.05.39.28.68.13,1.16-.06,0-.15-.16-.16,0a4.31,4.31,0,0,1,.18,1.54l-.17-.43c-.19,2,.41,3.1.51,4.8-.44,0-.58,1.59-.65,2.38L1.5,54A52.64,52.64,0,0,0,2,60.23c-.47,1.35-.2,4.59-.46,6.76.08-.33.34.06.38.45a4.12,4.12,0,0,0,.07.9c0,.43,0,.74-.16.74v-.31a6.69,6.69,0,0,0-.3,2.53H3.27a5.25,5.25,0,0,0,.43-.53,10.43,10.43,0,0,0,2.09.29c.65,0,1.32,0,2,0a6.45,6.45,0,0,1,3,.17c.52-.13,1.16-.13,1.67-.26l0,.28a35.58,35.58,0,0,0,3.92,0l-.36.2c1,0,1.26-.81,2.18-.83l.28.42c1.74,0,3.51.37,5.23,0,0,.06-.08.19-.36.2.82,0,3.17.29,2.88-.29,0,.38,1.79,0,2.74-.13l-.15.28a4,4,0,0,1,1.93-.55c.26,0,.23.22-.12.15.88.15.68-.26,1.75-.12l-.4.18a2,2,0,0,0,1.33-.28c.56-.11,1.71.07,1.84.32a1.45,1.45,0,0,1,1.15-.28c.07.09-.12.15-.22.18,1.51.19,2.24-.32,3.28,0a.24.24,0,0,0,.17.17c-1.19,0-2.16,0-2.07,0,0,.26,1,.3.2.66a9.65,9.65,0,0,1,3-.49.5.5,0,0,1,.12.08l-.09,0a1.44,1.44,0,0,0,.59,0,5.29,5.29,0,0,0,.78.08c.11.21,1.11.11,1.6.12,0-.28.59-.23,0-.46.07,0-.1,0-.42,0a1.06,1.06,0,0,0-.2,0l0,0h-1.2a1.9,1.9,0,0,1,1.31-.1c.25-.18.52-.37.68-.46.66.4,1.93.61,2.11.85,1.47-.16,3.47-.1,4.4-.63.42-.07.48.15.63.23a5,5,0,0,0-.66.12c.84-.13,2.49,0,2.69-.42,1.05.17-.6.34.85.28l-.19.11c2.85.59,4.64-.94,7.8-.18-.22,0-.33-.07-.37-.13,3.6.33,7.43-.31,11,.22a3,3,0,0,0,1.74-.31l.22.3,1-.35c1.5-.25,2.6.74,4.49.26l-.24-.2c.68,0,2.15-.12,2,.11a.48.48,0,0,1,.49-.11l0,.16,1.67-.27c1.3.12-.2.63,1.69.66.7-.06,2-.46,1.74-.57s-.73-.09-.75-.25l.65-.09c.11-.46.61-.94-1-1.26l-1.1.28-.36-.22.93,0a1.5,1.5,0,0,0-1.23.11.71.71,0,0,0-.46-.25l-1.08.44c-.13-.18.48-.36-.24-.46-.51.21.48.41-.35.54-.53-.21-.38-.38-1-.2-.09-.12,0-.2.28-.25-.55.15-1.45.06-1.73.31-.55-.26-1.86.07-1.81-.37a4.81,4.81,0,0,1-1.47.36c.92-.53-1.89,0-1.65-.59-.68.47-2.46.21-3.67.47a.49.49,0,0,1,.3-.09A6,6,0,0,1,70,68.53c-.09.39-1.15.48-1.72.72-.84-.38.51-.46.24-.82,0,.31-1.45.31-1.16.58-.64-.24-.55-.11-.88-.44-.11.49-.6.08-1.12.38-.93-.24-.24-.45-1.26-.31C63.65,68.49,64.55,68.32,64.55,68.32Zm-24.12.85h.49Zm-2,0c.24,0,.55,0,.88,0,.07.1,0,.2-.21.2C39.18,69.31,38.7,69.25,38.4,69.17Zm4.29,2c-.32,0-.43,0-.48-.07l.57,0,0,0A.39.39,0,0,1,42.69,71.12Z" transform="translate(-1.32 -18.6)"/><path class="cls-2" d="M43.26,70.75l.14,0-.2-.06-.11.09Z" transform="translate(-1.32 -18.6)"/><path class="cls-2" d="M87.48,29.59v0a.19.19,0,0,1,0,.09S87.47,29.61,87.48,29.59Z" transform="translate(-1.32 -18.6)"/><polygon class="cls-2" points="9.08 50.04 9.08 50.11 9.26 50.05 9.08 50.04"/><path class="cls-2" d="M86.52,40.76s0,.07-.07.15A.71.71,0,0,0,86.52,40.76Z" transform="translate(-1.32 -18.6)"/><path class="cls-2" d="M86.45,45.59l-.1.68A5,5,0,0,0,86.45,45.59Z" transform="translate(-1.32 -18.6)"/><path class="cls-2" d="M86.32,49.29a.21.21,0,0,0,.12.08h0Z" transform="translate(-1.32 -18.6)"/><path class="cls-2" d="M57.31,21.16l-.15,0C56.83,21.23,57.05,21.21,57.31,21.16Z" transform="translate(-1.32 -18.6)"/><path class="cls-2" d="M74.85,20.51a5.07,5.07,0,0,1-.56.13C74.6,20.66,74.85,20.67,74.85,20.51Z" transform="translate(-1.32 -18.6)"/><polygon class="cls-2" points="36.39 2.9 36.39 2.9 36.27 2.9 36.39 2.9"/><path class="cls-2" d="M73.47,20.63a2.27,2.27,0,0,0,.82,0A3.75,3.75,0,0,0,73.47,20.63Z" transform="translate(-1.32 -18.6)"/><path class="cls-2" d="M86.19,65.37v.18l0,0Z" transform="translate(-1.32 -18.6)"/><path class="cls-2" d="M86.22,65.57l0,.2C86.25,65.68,86.25,65.6,86.22,65.57Z" transform="translate(-1.32 -18.6)"/><path class="cls-2" d="M86.33,66.19l-.08-.42A.65.65,0,0,0,86.33,66.19Z" transform="translate(-1.32 -18.6)"/><path class="cls-2" d="M86.32,60.46l-.1-.06A.14.14,0,0,0,86.32,60.46Z" transform="translate(-1.32 -18.6)"/><path class="cls-2" d="M86.29,59a6.11,6.11,0,0,0-.16,1.39l.09,0C86.06,60.17,86.46,59.31,86.29,59Z" transform="translate(-1.32 -18.6)"/><path class="cls-2" d="M87.55,52.74,87.47,54c.11-.22.25-.51.28.06C88.07,52.48,87.5,54.38,87.55,52.74Z" transform="translate(-1.32 -18.6)"/><path class="cls-2" d="M87.71,48.86c.05.68.15,0,.21,0C87.83,48.47,87.8,48.36,87.71,48.86Z" transform="translate(-1.32 -18.6)"/><path class="cls-2" d="M87.71,20.51l.25,0C87.93,19.7,87.86,20.53,87.71,20.51Z" transform="translate(-1.32 -18.6)"/><polygon class="cls-2" points="81.16 2.17 81.66 2.33 81.9 2.09 81.16 2.17"/><polygon class="cls-2" points="77.99 0.34 78.22 0.31 77.35 0.4 77.99 0.34"/><path class="cls-2" d="M32.26,19l.15.32C32.76,19.29,32.84,18.94,32.26,19Z" transform="translate(-1.32 -18.6)"/><path class="cls-2" d="M11.94,19.35a1.38,1.38,0,0,0-1.14-.1A10.75,10.75,0,0,0,11.94,19.35Z" transform="translate(-1.32 -18.6)"/><polygon class="cls-2" points="3.69 52.56 3.29 52.67 4.06 52.58 3.69 52.56"/><polyline class="cls-1" points="1.62 2.29 44.95 37.92 85.75 2.29"/><path class="cls-2" d="M87.5,21.39c0-.11-.16-.23-.26-.1l.13.33Z" transform="translate(-1.32 -18.6)"/><path class="cls-2" d="M86.29,21.63a.67.67,0,0,0,.28.75c-.07-.36.05-.29,0-.71a.2.2,0,0,1,.34,0c0-.1.24-.11.16-.32a.49.49,0,0,0-.6.45C86.33,21.79,86.32,21.69,86.29,21.63Z" transform="translate(-1.32 -18.6)"/><path class="cls-2" d="M74.17,31.53l.1,0A.19.19,0,0,0,74.17,31.53Z" transform="translate(-1.32 -18.6)"/><path class="cls-2" d="M66.76,37.77c0-.05,0-.1,0-.12S66.72,37.76,66.76,37.77Z" transform="translate(-1.32 -18.6)"/><path class="cls-2" d="M65.27,38.58l.09,0S65.27,38.55,65.27,38.58Z" transform="translate(-1.32 -18.6)"/><path class="cls-2" d="M74.17,31.53l-.26.1C74,31.72,74.06,31.6,74.17,31.53Z" transform="translate(-1.32 -18.6)"/><path class="cls-2" d="M85.19,23.65a.38.38,0,0,0,0-.15l-.08.11Z" transform="translate(-1.32 -18.6)"/><path class="cls-2" d="M77.21,28.52l.06-.05s0-.09,0-.15Z" transform="translate(-1.32 -18.6)"/><path class="cls-2" d="M79.65,26.33c-.07,0,.1.26.16.38a.3.3,0,0,1,0-.26A.49.49,0,0,0,79.65,26.33Z" transform="translate(-1.32 -18.6)"/><path class="cls-2" d="M83.89,23.28l0-.09Z" transform="translate(-1.32 -18.6)"/><path class="cls-2" d="M75.41,30,75.32,30A.15.15,0,0,0,75.41,30Z" transform="translate(-1.32 -18.6)"/><path class="cls-2" d="M5,24.32s0,0,0,0S5,24.3,5,24.32Z" transform="translate(-1.32 -18.6)"/><path class="cls-2" d="M3,20.83l0,0a1.14,1.14,0,0,0,.11-.11Z" transform="translate(-1.32 -18.6)"/><path class="cls-2" d="M62.75,40.3h0C62.81,40.22,62.78,40.26,62.75,40.3Z" transform="translate(-1.32 -18.6)"/><path class="cls-2" d="M43.37,52.63c.08.39-.6-.08-.41.44C43,53,43.57,53,43.37,52.63Z" transform="translate(-1.32 -18.6)"/><path class="cls-2" d="M85.1,23.68a.43.43,0,0,1-.1.09A.3.3,0,0,0,85.1,23.68Z" transform="translate(-1.32 -18.6)"/><path class="cls-2" d="M43,53.07h0l0,0Z" transform="translate(-1.32 -18.6)"/><path class="cls-2" d="M57.61,45a.35.35,0,0,0,.13,0A.2.2,0,0,0,57.61,45Z" transform="translate(-1.32 -18.6)"/><path class="cls-2" d="M61.79,41.9l-.12.06A.23.23,0,0,0,61.79,41.9Z" transform="translate(-1.32 -18.6)"/><path class="cls-2" d="M55.84,47.1c-.07,0-.11,0-.16.1h0C55.73,47.16,55.75,47.11,55.84,47.1Z" transform="translate(-1.32 -18.6)"/><path class="cls-2" d="M53.73,48.94h.07l.06-.07Z" transform="translate(-1.32 -18.6)"/><path class="cls-2" d="M11.71,29.64a.82.82,0,0,1,.06-.28C11.68,29.54,11.31,29.33,11.71,29.64Z" transform="translate(-1.32 -18.6)"/><path class="cls-2" d="M85.08,23.54a.13.13,0,0,1,0,.14l.06-.07S85.12,23.54,85.08,23.54Z" transform="translate(-1.32 -18.6)"/><path class="cls-2" d="M57.21,48.84l-.36.26A1.89,1.89,0,0,0,57.21,48.84Z" transform="translate(-1.32 -18.6)"/><path class="cls-2" d="M27.3,42.4l-.1,0A.1.1,0,0,0,27.3,42.4Z" transform="translate(-1.32 -18.6)"/><path class="cls-2" d="M55.88,50a.67.67,0,0,0-.32,0,.28.28,0,0,0,0,.09Z" transform="translate(-1.32 -18.6)"/><path class="cls-2" d="M11.77,29.36Z" transform="translate(-1.32 -18.6)"/><path class="cls-2" d="M9.08,28c.32.28.38-.15.59-.25.45.24,0,.35,0,.61.31.13.71,0,.88.18,0,.06,0,.1-.09.13.44,0,.78.62,1.31.58a.31.31,0,0,1,0,.11,1.11,1.11,0,0,1,.28-.43c.15.11.42,0,.32.27-.08-.08-.15,0-.24,0l.22.05c-.08.38-.29-.08-.45.12.37.16.9.23,1.07.49-.17.3-.61-.35-.5.13l-.27-.39c-.07.64-.19-.21-.31.44.41.46.64.3,1,.76.23-.06.15-.25.37-.3.88.28,0,1.09.76,1.14.27-.07.59-.36.8.1l-.37.2c.43.4.61-.22.93.38-.18,0-.44-.2-.4-.11.11.49.35,0,.59.21l-.17.3c.52.36,1.21.61,1.79,1-.1.05-.26.06-.2.24A6.66,6.66,0,0,1,19,35.88l.44,0c.05,0,0,.19-.08.18.18.3.13-.13.33-.12a.15.15,0,0,1-.07.28,3.17,3.17,0,0,1,1.89,1.27h-.14c.29.4.79-.12,1,.37h-.1c.72.75,1.77,1.27,2.1,2.11.39-.23.67.8,1.1.38.27.6.07.58.59,1.26.15.16.49-.08.74,0l-.19.24H27l-.08.41.25.1a.24.24,0,0,1,0-.3c.4.15.62.79.52.91l.9.41c-.09.08-.24,0-.39,0,.59.08-.13.31.41.38,0-.09.14-.12.19-.16.06.29.47.63.82.82l-.19.11c.51.49,1.21.87,1.82,1.38a.26.26,0,0,1,.33-.38l-.14.31c.25-.06-.11-.25.29-.25.2.22-.08.42-.28.39l.35.14c-.05.09-.15.08-.24.16.24-.07.27.64.66.51l-.05.09c.61.5,1,.64,1.47,1,.19-.21.34,0,.63-.06a6.43,6.43,0,0,0,1,1.22c.39.15.24-.11.48-.12-.14.22.32.56,0,.51a7.32,7.32,0,0,0,1.51.91c0-.14-.06-.24,0-.28s.21.31.12.39H37.4c1,.32,1.26,2,2.19,2.08h-.05l.8.3c.26.27-.29,0-.18.3.94.22,1,.92,1.75,1.15-.06.94,1.55,1.21,1.81,2.05l.08-.16c.26,0,.12.23.2.35.08-.12-.06-.26.1-.26s.25.17.37.26l.61.48c.4.33.8.68,1.22,1.06l1.08-.82.58-.43.27-.2.18-.11c.45-.29.91-.58,1.35-.89s-.35-.93.51-1.11l0,.39c.67-1.11,1.91-1.65,2.6-2.7,0,.11.06.18,0,.26.35,0,.72-.61.6-.77.15-.1.15.11.3.11s.28-.66.54-.57c.05,0,0,.11,0,.16,0-.2.6-.49.3-.6.43-.2.57-.66,1-.78,0-.38.68-.39.45-.77.28.36.84-.25.92-.6,0,.16.28-.06.32.16.24-.22.41-.48.22-.62.81,0,.62-1.13,1.34-.83a21.44,21.44,0,0,1,1.73-2.19c.27.36-.7.67-.36,1,.5-.69.61-1.29,1.3-1.75.2-.1,0,.22,0,.33.51-.69,1.24-1,1.63-1.69,0,0,0,.12,0,.19.1-.11.3-.17.15-.32l-.07.14c-.37-.07,0-.85,0-1,.2.6.64-.37.84.45a.29.29,0,0,0,0-.34c.14-.06.22,0,.22.18.32-.43,0-.47.39-.77.07.07,0,.16.06.28a1,1,0,0,1,.46-.8c0,.06.11.09,0,.16.49-.47.54-1.15,1.23-1.51.11.47.28-.06.56.2l.23-.35-.24,0c.27-.23.32-.64.63-.75l-.09.29.45-.49-.38.14c.15-.38-.33-.33.09-.56,0,.09.27-.23.55-.19h0a.67.67,0,0,1,.37-.52c.13.05.23.35.31.38-.07-.35.57-.61.52-1a.4.4,0,0,0,.16.27l0-.29c.17,0,.22,0,.3.1.4-.28-.43-.25.14-.48,0,0,0,.06,0,.15.51-.31.75-.87,1.24-1.13.36.18-.3.38,0,.5.54-.56.92-1.4,1.54-1.83l-.13.06c-.27-.47.59-.17.72-.61-.05.09.1.3.08.24a5.55,5.55,0,0,0,1.19-1.43v.17a7.18,7.18,0,0,0,.94-.65c0-.16.14-.27-.08-.35,1.28-.08,1.19-1.58,2.29-1.69-.08.08-.12.26,0,.21l.49-.6c-.2-.14-.17,0-.4-.07a.64.64,0,0,1,.21-.51c-.15.34.25.27.45.27-.07,0-.08-.13-.14-.17.57,0-.25-.4.34-.55l.06.11c.11-.18.15-.42.34-.54.24.14-.09.24.05.41.22-.22.13-.78.51-.77,0,.15-.19.27-.24.41.44,0,.41,0,.61-.16h0l.49-.23-.16,0c-.16-.78.51-.62.61-1.3-.1.66.1.24.27.49.15,0,.37-.08.38,0,0-.35.44-.13.47-.62.07.06.2-.17.32.05.19-.27-.17-.08-.23-.19.15-.57,1.14-.46,1.38-1.27.33-.54.2-.87.52-1.36.25,0,.12.37.12.37a1,1,0,0,0,.63-.55c0,.1.11.12.25.14.15-.17-.12-.37.21-.46a1.45,1.45,0,0,1,.08.45c.15-.25.23-.57.39-.82.17.07,0,.3,0,.45.19-.27.52-.66.42-.93l-.22.07c.08-.09.2.13.17.22-.07.34-.36.19-.44.13l.11-.18c-.53-.29-.55.61-.88.85l-.15-.42-.09.53c-.14,0-.34-.16-.22-.34-.36,0-.1.29-.44.28-.05,0-.05,0,0-.06l-.14.28c0-.1-.23-.19,0-.26-.55.16-.42.78-.78.67l0,0c-.45.57.15.27,0,.89l-.77-.33.15.28c-.06,0-.19.12-.25,0-.07.34.12.07.13.32-.45,0-.65.74-1,.43.06.26.38-.09.2.28-.43-.32-.27.36-.68.39-.1-.27.23-.36-.18-.33.16.47-.54.34-.69.58.23.29-.34.51-.61.9-.06-.11-.78.42-1.19.6l0-.05c.18.33-.2.57-.39.83a.38.38,0,0,1-.08-.46l-.23.2a.52.52,0,0,1-.12.4L77,28.62c-.29.27-.39.77-.9,1,.14.22.77.27.48.76-.11-.09-.28-.26-.21-.39,0,0,0,.19-.16.21v-.32c-.24.08,0,.23-.12.34-.13-.16-.2,0-.28-.16s.18,0,.18-.15a.79.79,0,0,1-.61.14c.08.07.17.2.07.32-.29.28-.26-.09-.5,0,0,.17-.27.23-.08.45-.09.08-.2,0-.29,0-.07.24-.7.67-.32.75l0,0v0h0c-.32.67-1.18.81-1.6,1.35l-.07-.08c-.23.35-.63.64-.71,1-.09.08-.33.05-.36-.07-.19.26-.14.36-.58.53.12-.33-.18,0,.15-.3-.36.2-.53.14-.67.62-.06-.28-.44,0-.53.15l.33,0a2.22,2.22,0,0,1-.45.38l-.14-.32c-.89.24-.66,1.49-1.58,1.39,0,.32.44-.17.48.17-.32.21-.93.11-1,.19-.51.2,0,.68-.53.94a.36.36,0,0,1,.16.59c-.32.21-.68-.07-.56-.3.06-.07.12-.07.14,0,.06-.12.15-.26-.05-.26l0,.12c-.22,0-.6.39-.63.16-.14.27,0,.23.23.13-.48.19-.57.5-1,.74.1,0,.25.05.19.1-.65.37-.1.38-.44.75-.33,0-.2-.39-.48,0-.31.11-.25-.2-.23-.35-.19.47-.74.45-1,.58l.12-.22a1,1,0,0,1-.25.29l.26.09c-.13.06-.22.13-.29.06,0,.21.35.22.27.57-.22,0-.34.47-.6.28.51-.31-.26-.2.08-.56a.53.53,0,0,1-.27.23s0-.07,0-.11c-.61.16,0,.44-.4.82a.23.23,0,0,0-.37-.07c.18-.15.28.15.2.39-.37.14-.23.35-.39.46l.21-.09c.06.18-.1.28-.26.5-.11-.09.12-.23,0-.21,0,.42-.71.18-.87.61-.22,0-.24-.24-.41-.19-.19.47-.53.13-.77.59.26.09.24,0,.14.43l.48-.64-.15.59c.18-.16.28-.44.41-.51,0,.31-.07.25.15.32-.48-.06-.35.58-.79.64l-.38-.45c-.6.17-.55.89-1.2,1.25l.25-.07c.08.24-.32.32-.44.54-.11-.16-.27-.12-.43-.14.11.1-.41.34-.2.68l-.41,0c-.52.3-.14.86-.61,1.18,0-.27-.3-.21-.11-.57-.15.12-.3.21-.21.31-.16,0-.22.55-.47.52,0,.12.11.29-.06.42a.16.16,0,0,1-.06-.08c.06.08-.17.32.12.36-.85-.08-1.2,1.11-1.93,1-.27.32-.6.7-.87,1,0-.06-.06-.08,0-.11-.51.2.14.64-.44.87-.44-.05.12-.34-.1-.31-.49-.43-.47.54-1,.51l0-.09c-.37,0-.39.67-.79,1a.16.16,0,0,0-.06-.08A3,3,0,0,1,49.81,53c-.05-.29.08-.24-.16-.38-.14.17.32.27.05.61-.2,0-.51.09-.72-.09l.29-.27c-.39-.14-.38.35-.58.44l-.08-.13c-.43.44-.18.74-.7,1.15l.13,0c0,.53-.37,0-.45.49l-.34-.23-.27.55a2,2,0,0,1-.29.54A3.38,3.38,0,0,1,47,54.68l-.16.15a.76.76,0,0,0-.14.16.59.59,0,0,0-.07.31c0-.08,0-.2.09-.18a1.16,1.16,0,0,1-.43,1h0c0-1-.55-.7-.5-1.43-.83-.31-1.2-1.14-2-1.72-.11.68-.23-.17-.57.34-.2-.11-.26-.17-.25-.22l-.3-.71c0-.25.25,0,.32-.09-.35-.35,0-.33-.14-.67-.09.21-.33.14-.5-.11l.13.47c-.74-.18-.13-.77-.88-1h.3c-.35-.13-1-.84-1.6-.68,0-.09,0-.28.18-.21-.61-.6-1.8-.8-2.12-1.46l.15-.07c-.15-.07-.39,0-.45-.2,0,0,.14-.08.09-.13s-.49-.07-.6-.27l.25,0c-.52-.68-1.25-.49-1.86-.86.28-.33-.13-.86-.34-1.12l0,0a9.44,9.44,0,0,0-2.31-1.21c-.12-.72-1.33-1.35-1.85-2.13.05.15-.24.25-.39.19s-.64-.14-.36-.43l.06.06c.12-.41-.28-.6-.53-.82l-.38.37c-.19-1.16-2-1.25-1.9-2.09-.25,0-.45-.2-.7-.23l.19-.22a5.93,5.93,0,0,0-1.22-1l.24-.06c-.3-.28-.92.3-1.22.07l.18-.4c-.56-.45-.88-1.2-1.67-1.35,0,0,.14-.13.24-.06-.26-.23-.83-1.06-1.1-.53.23-.3-.55-.5-1-.62l.23-.17c-.48.06-.55.13-1-.08-.06-.1.07-.23.14-.09-.19-.34-.39,0-.63-.36l.24,0c-.28-.25-.31-.16-.6-.13a.63.63,0,0,1-.38-.73.41.41,0,0,1-.55-.08c0-.09.14-.08.18-.08-.35-.54-.91-.34-1.07-.82a.22.22,0,0,0,.05-.17,4.25,4.25,0,0,1,.63.57c.17-.2-.11-.49.36-.56-.37-.05-1.06-.07-1.29-.41a.43.43,0,0,1,0-.11h.05a.32.32,0,0,0-.22-.13,1.06,1.06,0,0,0-.2-.26c.1-.19-.28-.38-.42-.51-.17.22-.34,0-.3.36,0,0,.05,0,.16.07l.08,0h0l.39.3c-.21,0-.41,0-.48-.26l-.51.18c0-.48-.23-1-.13-1.21-.57-.26-1.17-.83-1.8-.66-.18-.06-.06-.24-.05-.35s.19.11.28.08c-.35-.11-.82-.61-1.12-.37-.23-.41.41-.11-.09-.44l.13,0c-.53-1.2-2.07-.49-2.6-1.9,0,.1.06.14,0,.2-.94-1.2-2.56-1.7-3.36-3C7.9,23.87,7.71,24,7.4,24l.13-.29H7c-.64-.2-.35-1.25-1.26-1.38l-.06.22c-.19-.2-.76-.47-.57-.62,0,0-.21.11-.22,0L5,21.76l-.7-.23c-.34-.43.46-.43-.12-1-.27-.14-.93-.17-.92,0a.33.33,0,0,1,.08.4L3,20.85c-.33.33-.79.57-.5,1.23l.54.07,0,.27-.3-.23c0,.3.26.24.46.24a.37.37,0,0,0,0,.31l.62-.06c-.07.18-.38.15-.21.42.29,0,.1-.44.45-.33,0,.3-.12.4.19.42A.19.19,0,0,1,4,23.3c.27,0,.5.34.75.22,0,.35.63.43.33.76a1.19,1.19,0,0,1,.7.1c-.62.17.59.52.15.9.52-.19.92.48,1.47.59,0,0-.14,0-.16,0,.19.21.17.37.25.55.28-.28.67-.07,1-.11,0,.51-.45.23-.6.58.19-.26.67.13.74-.15.06.35.11.23,0,.57.35-.35.25.09.61,0,.14.42-.22.41.2.56C9.48,28.11,9.08,28,9.08,28Zm8.21,5.66h0l-.17-.12Zm.64.52-.27-.24c0-.09.13-.15.19-.09S17.89,34,17.93,34.18Zm-.12-2.62c.12.05.12.12.1.18a.87.87,0,0,0-.2-.12h0A.33.33,0,0,1,17.81,31.56Z" transform="translate(-1.32 -18.6)"/><path class="cls-2" d="M17.39,31.69s0,0-.06,0l0,.1.09,0Z" transform="translate(-1.32 -18.6)"/><path class="cls-2" d="M74.29,31.49h0s0,0,.06,0Z" transform="translate(-1.32 -18.6)"/><polygon class="cls-2" points="25.18 23.32 25.22 23.27 25.12 23.27 25.18 23.32"/><path class="cls-2" d="M78.39,29.19s0,0,.09,0Z" transform="translate(-1.32 -18.6)"/><path class="cls-2" d="M79.92,27.93l.28-.11A2.34,2.34,0,0,0,79.92,27.93Z" transform="translate(-1.32 -18.6)"/><path class="cls-2" d="M81.17,27a.54.54,0,0,0-.06-.11h0Z" transform="translate(-1.32 -18.6)"/><path class="cls-2" d="M63.1,43.25l0,0C63,43.43,63.06,43.35,63.1,43.25Z" transform="translate(-1.32 -18.6)"/><path class="cls-2" d="M68.11,38a1.14,1.14,0,0,1-.09.26C68.13,38.19,68.21,38.13,68.11,38Z" transform="translate(-1.32 -18.6)"/><polygon class="cls-2" points="55.94 30.22 55.93 30.21 55.89 30.25 55.94 30.22"/><path class="cls-2" d="M67.77,38.47a.41.41,0,0,0,.25-.21A.57.57,0,0,0,67.77,38.47Z" transform="translate(-1.32 -18.6)"/><path class="cls-2" d="M86.23,22.78l.06,0a.08.08,0,0,1,0,0Z" transform="translate(-1.32 -18.6)"/><path class="cls-2" d="M86.27,22.7l0-.08A.07.07,0,0,0,86.27,22.7Z" transform="translate(-1.32 -18.6)"/><path class="cls-2" d="M86.39,22.45l-.08.17S86.42,22.54,86.39,22.45Z" transform="translate(-1.32 -18.6)"/><path class="cls-2" d="M84.62,24l0,.09A.21.21,0,0,0,84.62,24Z" transform="translate(-1.32 -18.6)"/><path class="cls-2" d="M84.18,24.44c.13-.08.42-.08.53-.26l0-.08C84.7,24.28,84.17,24.21,84.18,24.44Z" transform="translate(-1.32 -18.6)"/><path class="cls-2" d="M81.42,25.17l.44-.27c-.14,0-.32-.06-.16-.23C81,24.85,82,24.76,81.42,25.17Z" transform="translate(-1.32 -18.6)"/><path class="cls-2" d="M80.12,26.1c.17-.22-.11-.11-.14-.17C79.91,26.12,79.9,26.17,80.12,26.1Z" transform="translate(-1.32 -18.6)"/><path class="cls-2" d="M71.43,33.69l-.15-.21C71.15,33.65,71.35,33.55,71.43,33.69Z" transform="translate(-1.32 -18.6)"/><polygon class="cls-2" points="69.32 17.54 69.58 17.52 69.5 17.28 69.32 17.54"/><polygon class="cls-2" points="67.14 17.02 67.19 16.93 66.98 17.24 67.14 17.02"/><path class="cls-2" d="M53.94,48.43l.25.19C54.27,48.49,54.06,48.2,53.94,48.43Z" transform="translate(-1.32 -18.6)"/><path class="cls-2" d="M47.85,54.17a.3.3,0,0,0-.42.23C47.59,54.29,47.81,54.26,47.85,54.17Z" transform="translate(-1.32 -18.6)"/><polygon class="cls-2" points="28.49 22.78 28.69 22.8 28.39 22.67 28.49 22.78"/></g></svg>