<svg xmlns="http://www.w3.org/2000/svg" viewBox="0 0 87.23 63.73"><defs><style>.cls-1{fill:#966b9d;}.cls-2{fill:#5d5d5e;}.cls-3{fill:#c98686;}.cls-4{fill:#f2b880;}.cls-5{fill:#fff4ec;}</style></defs><title>designLogo</title><g id="Isolation_Mode" data-name="Isolation Mode"><path class="cls-1" d="M86.64,44.39c0,16-18.58,29-41.5,29s-41.5-13-41.5-29,18.58-29,41.5-29c6.44,0,19.07.76,20.75,2.57,4.4,4.78-5.28,11.47-1.47,14.69,2.68,2.28,7.57,1.88,14.9,3.8C85.17,38,86.64,40.57,86.64,44.39Z" transform="translate(-1.33 -12.42)"/><path class="cls-2" d="M85.31,44.39c.17.13.56,0,.47-.26l-.66-.2Z" transform="translate(-1.33 -12.42)"/><path class="cls-2" d="M86.31,42.17a1.3,1.3,0,0,0-1.58-.12c.71.12.46.26,1.28.49a.38.38,0,0,1-.37.55c.18.09-.11.48.32.62a.89.89,0,0,0-.09-1.46C86,42.1,86.18,42.17,86.31,42.17Z" transform="translate(-1.33 -12.42)"/><path class="cls-2" d="M66.35,26l-.17.16A.43.43,0,0,0,66.35,26Z" transform="translate(-1.33 -12.42)"/><path class="cls-2" d="M54.15,14.43c.16,0,.23-.07.24-.13C54.24,14.33,54.12,14.37,54.15,14.43Z" transform="translate(-1.33 -12.42)"/><path class="cls-2" d="M50.68,13.5l.2.05C50.81,13.49,50.73,13.45,50.68,13.5Z" transform="translate(-1.33 -12.42)"/><path class="cls-2" d="M66.35,26l.44-.4C66.61,25.48,66.52,25.8,66.35,26Z" transform="translate(-1.33 -12.42)"/><path class="cls-2" d="M83,39.82a.61.61,0,0,0,.3,0L83,39.75Z" transform="translate(-1.33 -12.42)"/><path class="cls-2" d="M66.13,32l.11.06a1.33,1.33,0,0,0,.22-.2Z" transform="translate(-1.33 -12.42)"/><path class="cls-2" d="M72.34,33.45c-.15-.05-.3.49-.39.73a.54.54,0,0,1,.39-.33A1.32,1.32,0,0,0,72.34,33.45Z" transform="translate(-1.33 -12.42)"/><path class="cls-2" d="M82.91,37.14l.22,0Z" transform="translate(-1.33 -12.42)"/><path class="cls-2" d="M65.29,29.74a.55.55,0,0,0,.21,0A.5.5,0,0,0,65.29,29.74Z" transform="translate(-1.33 -12.42)"/><path class="cls-2" d="M82.66,51.21l.09,0S82.68,51.17,82.66,51.21Z" transform="translate(-1.33 -12.42)"/><path class="cls-2" d="M86.78,44.39l0,.12.31,0Z" transform="translate(-1.33 -12.42)"/><path class="cls-2" d="M44.18,12.66h0C44.38,12.6,44.28,12.61,44.18,12.66Z" transform="translate(-1.33 -12.42)"/><path class="cls-2" d="M1.66,48.32c.37-.79.84,1,1.2-.12C2.66,48.35,1.82,47.38,1.66,48.32Z" transform="translate(-1.33 -12.42)"/><path class="cls-2" d="M82.89,39.68l-.18-.13A.36.36,0,0,0,82.89,39.68Z" transform="translate(-1.33 -12.42)"/><path class="cls-2" d="M2.86,48.2h0l0-.12Z" transform="translate(-1.33 -12.42)"/><path class="cls-2" d="M29.09,15.14a.83.83,0,0,0,.22.2C29.29,15.28,29.23,15.22,29.09,15.14Z" transform="translate(-1.33 -12.42)"/><path class="cls-2" d="M40.36,14l-.28-.05A.79.79,0,0,0,40.36,14Z" transform="translate(-1.33 -12.42)"/><path class="cls-2" d="M23.76,17.79c-.15,0-.23,0-.39.11a.2.2,0,0,0,.08,0C23.49,17.84,23.57,17.77,23.76,17.79Z" transform="translate(-1.33 -12.42)"/><path class="cls-2" d="M18.26,20.44l.15,0,.16-.12Z" transform="translate(-1.33 -12.42)"/><path class="cls-2" d="M72.23,63.56a2,2,0,0,1,.5.28C72.44,63.55,73,63,72.23,63.56Z" transform="translate(-1.33 -12.42)"/><path class="cls-2" d="M83.15,39.57c-.11.09-.18.13-.26.11l.15.07A.3.3,0,0,0,83.15,39.57Z" transform="translate(-1.33 -12.42)"/><path class="cls-2" d="M25.22,22c-.28.09-.57.17-.85.27A5.88,5.88,0,0,0,25.22,22Z" transform="translate(-1.33 -12.42)"/><path class="cls-2" d="M33.22,69.85l.22,0A.22.22,0,0,0,33.22,69.85Z" transform="translate(-1.33 -12.42)"/><path class="cls-2" d="M22,23.44a1.24,1.24,0,0,0-.62-.13.52.52,0,0,0,0,.18Z" transform="translate(-1.33 -12.42)"/><path class="cls-2" d="M72.73,63.84Z" transform="translate(-1.33 -12.42)"/><path class="cls-2" d="M76.4,59.24c-.6.54.21.79.37,1.22-.61.82-.71-.1-1.21-.16-.31.56-.28,1.36-.65,1.64-.11-.07-.2,0-.22-.24-.15.88-1.53,1.21-1.77,2.24a.43.43,0,0,1-.19-.1,2.59,2.59,0,0,1,.67.78c-.32.23-.36.8-.74.47.21-.12.12-.3.13-.48l-.23.4c-.67-.38.34-.51,0-.94-.51.64-1,1.58-1.65,1.74-.44-.53,1.1-.93.1-1l.93-.26c-1.17-.54.52-.22-.64-.86-1.12.45-1,1-2.12,1.4-.06.46.35.45.29.91-1.26,1.41-2-.89-2.72.45-.11.54.12,1.39-.9,1.34l0-.83c-1.11.38-.2,1.27-1.55,1.26.1-.36.77-.58.57-.6-1-.27-.36.63-1,.84l-.35-.6c-1.14.53-2.31,1.44-3.65,1.93,0-.22.2-.49-.17-.6a10.77,10.77,0,0,1-5.41.7l-.55.68c-.15,0-.32-.22-.17-.36-.69-.11,0,.38-.26.66-.37.1-.55-.27-.33-.47-1.08.65-3.23,1.46-4.51.88l.23-.18c-1-.2-1,1.27-2,.74l.17-.1c-2.11-.18-4.47.26-6-.72-.38.81-2-.55-2.29.59-1.12-.74-.76-.87-2.35-1.52-.43-.13-.78.62-1.35.65l.1-.61-.86.49-.25-.8-.54,0c.19.08.37.36.31.52-.87.13-1.85-.86-1.79-1.16-.66,0-1.31,0-2,0,.11-.23.44-.22.73-.31-1.15.33,0-.67-1.05-.37.08.17-.17.33-.23.45A3.46,3.46,0,0,0,27.3,68l.28-.35c-1.28-.56-2.83-.85-4.26-1.51a.52.52,0,0,1-.45.9l.11-.67c-.45.24.34.43-.44.61-.5-.33,0-.84.36-.88L22.16,66c.05-.19.25-.21.39-.41-.44.23-.79-1.12-1.48-.71l.06-.19c-.68-.37-1.2-.6-1.67-.83A10.46,10.46,0,0,1,18,63.11c-.33.45-.68.08-1.25.23-.33-.36-.64-.77-1-1.18A6,6,0,0,0,14.63,61c-.77-.31-.49.21-1,.23.3-.43-.57-1.14.11-1A26.29,26.29,0,0,0,11,58.11c0,.28,0,.49-.17.53-.28-.18-.29-.69-.08-.81l.1,0A4,4,0,0,1,9.28,55.2c-.15-.52-.27-1-.44-1.45a1.94,1.94,0,0,0-.83-1l.09,0A15.74,15.74,0,0,1,7,51.66c-.18-.69.51.24.61-.36a2.77,2.77,0,0,1-1-1.83,4,4,0,0,0-.53-1.78c.64-.65.5-1.5.36-2.43a3.18,3.18,0,0,1,.29-2.57l-.36,0c-.31-.39.25-.41.35-.65-.27,0-.35.34-.52.1a9,9,0,0,1,1.27-4.47,24.24,24.24,0,0,1,2.79-3.83c.72-.85-1.13-1.62.46-2.28l.25.73a7.66,7.66,0,0,1,2.13-2.91,20.8,20.8,0,0,0,2.54-2.6c0,.21.11.36-.07.51.66.05,1.48-1.09,1.26-1.42.32-.18.27.24.57.27.57-.05.71-1.21,1.19-1,.08,0,0,.21-.08.29.13-.39,1.33-.75.77-1.06.89-.25,1.38-1.07,2.16-1.14.14-.76,1.51-.42,1.27-1.27.33.84,1.74,0,2.12-.6-.08.32.57.07.5.51.6-.26,1.09-.64.82-1a1.57,1.57,0,0,0,1.7-.46c.46-.33.88-.61,1.41-.05a23.11,23.11,0,0,1,5.13-2.33c.11.88-1.91.47-1.62,1.4,1.52-.73,2.36-1.67,4-1.71.45.05-.18.42-.3.6,1.6-.63,3.21-.33,4.67-.94,0,.09-.16.19-.31.27.3-.06.7.09.64-.32l-.28.13c-.52-.57,1.1-1.3,1.15-1.62-.45,1.19,1.52.23.76,1.74a.54.54,0,0,0,.38-.55c.29.07.39.23.1.55,1-.24.67-.67,1.64-.68,0,.2-.2.28-.3.52a2,2,0,0,1,1.82-.6c-.05.12,0,.28-.21.27,1.42,0,2.46-1,4-.53-.5.84.51.3.56,1.06l.85-.18-.32-.38c.74.05,1.42-.45,2-.17l-.57.27,1.39,0-.76-.34c.77-.33,0-.95.95-.67-.2.06.74.06,1.09.54h0a1.36,1.36,0,0,1,1.31-.19c.11.26-.2.82-.12,1,.42-.58,1.72,0,2.25-.59a.8.8,0,0,0-.19.61l.37-.46c.31.2.35.29.25.59,1,.23-.18-1,1-.41-.1,0-.06.11-.27.15,1.16.39,2.37.07,3.35.59.1.8-.94,0-.75.66l1.09.11c.19,0,.36,0,.46,0a.91.91,0,0,1,.39.06,1.57,1.57,0,0,1,1,1.3,1.79,1.79,0,0,0,0-.23c.54-.09.48.23.32.55s-.43.63-.23,1c-.06-.17-.56-.26-.45-.21-.25.75-.12,1.8-.54,3.4l-.16-.3a16.84,16.84,0,0,0-1.31,2c.15.31-.07.65.39.61a2.52,2.52,0,0,0-1.19,1.27,3.38,3.38,0,0,0-.24.84,4.76,4.76,0,0,0-.07,1,5.63,5.63,0,0,0,.4,1.82c.22.56.48,1.06.73,1.71-.23-.19-.71-.38-.54-.19a6.83,6.83,0,0,0,1.9,1.1c.09-.49-.08-.37-.23-.88a2,2,0,0,1,1.22.1c-.81,0-.33.68-.08,1,0-.15.17-.25.2-.4.57,1.08.44-.8,1.39.06l-.13.22c.47,0,.93-.22,1.37-.06.08.56-.51.15-.64.57.68.12,1.48-.73,2-.11-.3.1-.7,0-1,.13.52.73.63.59,1.09.77l0,0,1,.46-.25-.21c1-1.25,1.68,0,2.91-.71-1.2.67-.26.46-.44,1,.24.21.63.47.48.62.59-.39.76.52,1.6,0,0,.2.53.12.32.58.67,0-.09-.36,0-.59,1.15-.46,2.17,1.28,3.75.78,1.27,0,1.71-.56,2.95-.36.11.23,0,.35-.22.42a2,2,0,0,1-.37.08,2.24,2.24,0,0,0,1.44.8c-.18.07-.17.26-.16.54.36.2.68-.41.93.2a4.67,4.67,0,0,1-.82.32,5.11,5.11,0,0,1,1.5.54c-.2.3-.58.06-.86.1.47.26,1,.91,1.54.9v-.43c.12.19-.37.29-.52.2-.58-.19-.18-.67-.05-.82a2.42,2.42,0,0,1,.31.25c.4-.47.09-.83-.35-1.05A10.15,10.15,0,0,1,83.52,39c.25-.16.51-.32.78-.46a8.07,8.07,0,0,0-1.11.07c0-.28.09-.75.53-.63-.35-.67-.62,0-.89-.68,0-.09,0-.12.08-.12l-.67,0c.19-.11.15-.59.45-.31-.88-.93-1.91-.08-2.11-.82h.11c-1.57-.17-.33.53-1.6.92l-.37-1.65-.29.56c-.15-.06-.44-.18-.33-.4-.66.28,0,.28-.38.59-.61-.71-2.07-.17-2-1.16-.35.4.64.49-.21.65,0-1.06-.94,0-1.53-.58.3-.49.9-.1.3-.69-.56.83-1.29-.42-1.89-.34-.14.71-1.28.11-2.26.18.1-.22-1.71-.7-2.4-1.2l.06-.11c-.36.66-1.17.29-1.76.14a.89.89,0,0,1,.73-.55l-.47-.21a.78.78,0,0,1-.72.09c.14-.13.27-.26.4-.4-.2-.11-.48-.11-.77-.26a.62.62,0,0,1-.32-.82,3.32,3.32,0,0,0-.93.39c-.32.15-.67.22-.86-.42.27-.08.75-.13.87.12,0-.07-.25-.3-.09-.49a2,2,0,0,0,.45.37c.21-.39-.39-.18-.31-.53.39,0,.33-.2.63-.11,0,.07-.21.22-.06.34a1,1,0,0,1,.76-.64c-.22,0-.51-.16-.45-.45.26-.73.53-.07.89-.39-.18-.28.3-.61-.22-.88.11-.21.37-.13.56-.14,0-.48.87-1.83.08-1.68l-.08.08s0-.05,0-.08h0a4.72,4.72,0,0,1,.9-2.07,4.35,4.35,0,0,0,.84-2.22l.2,0a10.68,10.68,0,0,0-.15-1.58,2,2,0,0,0-.65-1.22c-.11-.24,0-.78.29-.78a6.26,6.26,0,0,0-.67-.64,1.72,1.72,0,0,1-.31-.37c-.12-.14-.28-.3-.48-.56.89.27,0-.46.85.38a1.67,1.67,0,0,0-.24-.32l-.24-.26a1.28,1.28,0,0,0-.46-.41A1.57,1.57,0,0,0,64.69,16c.5-.38-.52-.84-1-.77l.53.5A5.41,5.41,0,0,1,63,15.4l.36-.6c-1.7-1.19-3.41.82-4.57-.69-.51.41.92.44.44.93-.79-.18-1.53-1.22-1.78-1.25-1.07-.46-1.12.86-2.24.53.13.25.21.89-.66,1-.78-.15-.91-1.06-.39-1.22.2,0,.28.07.27.15.26-.06.61-.14.31-.42l-.12.23c-.38-.28-1.48-.32-1.2-.69-.62.19-.28.37.16.52-1-.41-1.61-.1-2.66-.39.17.14.31.43.14.42-1.54-.36-.7.42-1.75.48-.59-.38.24-.86-.83-.59-.64-.26-.12-.63.15-.82-1,.43-1.81-.34-2.37-.43l.51-.19a2,2,0,0,1-.82.1l.29.48c-.3-.09-.56-.09-.55-.29-.31.31.23.79-.38,1.22-.4-.25-1.22.27-1.37-.36,1.28.2-.16-.63.93-.75a1.36,1.36,0,0,1-.78,0c0-.07.05-.13.13-.17-1.25-.53-.55.7-1.82.75.15-.37-.33-.66-.53-.57.51,0,.27.58-.18.87-.83-.23-.87.25-1.29.26l.49.09c-.14.36-.54.36-1.09.52-.07-.28.49-.24.28-.34-.56.67-1.47-.53-2.29,0-.43-.19-.12-.66-.5-.78-.92.58-1.13-.34-2.11.21.38.42.4.3-.24.87l1.63-.6-1,.86c.5-.08,1-.48,1.33-.43-.46.45-.42.33-.12.69-.8-.61-1.29.63-2.15.28l-.19-1.17c-1.31-.28-2,1-3.61,1.09l.54.08c-.09.51-.93.28-1.37.61-.06-.39-.41-.45-.68-.62.1.27-1.14.27-1,1.09l-.83-.29c-1.3.18-1,1.53-2.21,1.81.2-.53-.43-.6.25-1.17-.39.13-.77.19-.68.45-.32-.14-.86.92-1.35.71-.09.23,0,.62-.42.77-.08-.05-.07-.18-.07-.18.07.18-.55.54,0,.78-1.67-.64-3.09,1.56-4.54,1.17-.72.56-1.57,1.22-2.23,1.69,0-.12-.11-.16,0-.21-1.13.32.05,1.3-1.2,1.69-.89-.13.34-.67-.12-.63-.9-.94-1.16,1-2.28,1l.12-.2c-.82.08-1,1.42-1.8,2.07a.26.26,0,0,0-.13-.15,8.46,8.46,0,0,1-1.45,3c-.16-.57.12-.52-.4-.72-.26.39.7.45.21,1.23-.4,0-1,.4-1.5.13l.54-.7c-.83-.1-.73.89-1.09,1.2l-.21-.24c-.75,1.18-.1,1.64-.93,2.83h.29c.26,1.07-.71.35-.6,1.32l-.81-.16c-.08.57-.14,2-.32,2.9a3,3,0,0,1-.24-1.29c0-.46.06-.94.06-1.34A8.5,8.5,0,0,0,3.93,35a1.48,1.48,0,0,0,0,1c0-.22-.07-.55.13-.69A3.89,3.89,0,0,1,4,38c-.7-.32-1,.3-1.25,1.08s-.4,1.69-1.07,2c.29,2-.58,3.81-.23,6.1,1.09-.93.1.65,1.3.34.16.48.18.67.11.73a14.88,14.88,0,0,0-.4,1.66c-.25.44-.38-.42-.64-.31.2,1.14-.38.59-.5,1.44.38-.27.71.22.77.9l.25-1c1.11,1.3-.56,1.67.67,3l-.55-.33c.47.72,1.33,2.85,2.59,3,0,.19-.24.53-.5.26a8.63,8.63,0,0,0,2.05,2.36,6.12,6.12,0,0,1,1.78,2.09l-.32.09c.31.21.83.08.92.62-.11.06-.32.09-.22.23s1.05.31,1.26.77l-.52,0c1.08,1.62,2.67,1.34,4,2.13-.55.69.45,1.8,1,2.33l-.1.09c1.76,1.34,3.53,1.36,5.41,2,.66,1.44,3.58,2.15,5.25,3.3-.23-.25.29-.62.64-.59.38.33,1.39-.16,1.07.58l-.15-.07c.08.86,1.06,1,1.77,1.19l.41-1a4,4,0,0,0,3.15,1.29c1.16.09,2.21.1,2.61.87.51-.18,1.08-.09,1.57-.27l-.11.55a11.47,11.47,0,0,0,3.51.5l-.36.38c.91.11,1.27-1.51,2.09-1.51l.19.86c1.55.08,3.15.86,4.69.06a.41.41,0,0,1-.32.41c.74,0,2.9.49,2.57-.67.06.76,1.62,0,2.42-.43l-.08.56c.64-.77.64-1,1.6-1.27.24,0,.25.42-.07.31.81.19.53-.59,1.5-.42l-.3.4c.8-.07.71-.26,1.08-.74a1.46,1.46,0,0,1,1.72.36.91.91,0,0,1,.89-.76.32.32,0,0,1-.12.4c1.41.11,1.8-1.07,2.82-.75a.46.46,0,0,0,.24.29,10.6,10.6,0,0,1-1.82.35c.11.5,1,.39.46,1.24.62-.54,1.56-1.64,2.43-1.64a.52.52,0,0,1,.16.14l-.07.08a.77.77,0,0,0,.5-.22,2.07,2.07,0,0,0,.71-.06c.22.37,1-.09,1.45-.2-.21-.52.36-.62-.29-.89.07,0-.06.09-.33.2a1,1,0,0,0-.15.11v0l-1,.36c.24-.38.5-.72,1.05-.56.1-.41.21-.83.28-1,.8.55,2,.57,2.34,1,1.13-.77,2.84-1.4,3.13-2.71.27-.29.51.08.71.17-.15.19-.39.29-.43.48.56-.58,2-1.09,1.75-1.84,1-.16-.14.85.94.12l0,.28a3.62,3.62,0,0,0,2.74-2,8.19,8.19,0,0,1,1.09-1.34,3.75,3.75,0,0,1,1.77-.84c-.21,0-.31.08-.42,0A12,12,0,0,0,80.69,61a23.73,23.73,0,0,1,3.36-3.66c.68-.66.35-1,.3-1.66l.63.13c0-.4-.09-.78-.15-1.17,0-.72.67-1,1.19-1.53a2,2,0,0,0,.84-2l-.46.09c.3-.56.29-1.93.73-1.72-.06-.08-.36-.29-.1-.47l.31,0-.26-1.58c.36-1.14,1.23.37,1.48-1.4-.09-.7-.85-1.9-1.07-1.65,0,.25-.22.65-.54.65l-.14-.56c-.93-.13-1.87-.47-2.57.72a8.08,8.08,0,0,1,.52.9l-.48.23c0-.24,0-.48,0-.71-.46.36-.12.64.11,1a.75.75,0,0,0-.53.29c.26.31.49.63.73,1-.37,0-.64-.49-.94,0,.34.47.87-.22,1,.49-.5.32-.82.11-.58.67a.39.39,0,0,1-.43-.33c.18.48-.16,1.11.23,1.47-.32.12-.4.48-.51.77s-.27.48-.67.3A1.91,1.91,0,0,1,83,52.6c-.64-1.1-.69,1.32-1.63.61.58.92-.58,1.86-.72,2.93,0-.09-.09-.26,0-.31-.39.4-.71.35-1,.52.6.53.18,1.3.26,2-1,0-.45-.92-1.14-1.21.53.38-.26,1.28.27,1.46-.69.06-.47.17-1.12-.08.66.75-.19.46-.08,1.18-.87.18-.77-.52-1.15.26-.24,0-.29-.16-.28-.33A1.49,1.49,0,0,1,76.4,59.24ZM60,69.93h0l.39-.14Zm-1.65.44a6.8,6.8,0,0,0,.73-.15c.1.17.09.38-.08.41C59.06,70.48,58.64,70.47,58.35,70.37ZM63,73.11c-.26.16-.38.09-.46,0a4.47,4.47,0,0,0,.47-.22v-.07A.74.74,0,0,1,63,73.11Z" transform="translate(-1.33 -12.42)"/><path class="cls-2" d="M63.27,72.25s0,0,.1-.07a.8.8,0,0,0-.2-.07l0,.2Z" transform="translate(-1.33 -12.42)"/><path class="cls-2" d="M66.15,26.2l0,0a.17.17,0,0,1-.1,0Z" transform="translate(-1.33 -12.42)"/><polygon class="cls-2" points="33.78 57.52 33.75 57.67 33.92 57.57 33.78 57.52"/><path class="cls-2" d="M65.87,34.73a.3.3,0,0,0,.09.19A.51.51,0,0,0,65.87,34.73Z" transform="translate(-1.33 -12.42)"/><path class="cls-2" d="M70.12,35.91l.56.29A3.38,3.38,0,0,0,70.12,35.91Z" transform="translate(-1.33 -12.42)"/><path class="cls-2" d="M73.25,36.7a1.07,1.07,0,0,0,.1-.23h0Z" transform="translate(-1.33 -12.42)"/><path class="cls-2" d="M40.86,17.7l-.11,0C40.48,17.87,40.66,17.81,40.86,17.7Z" transform="translate(-1.33 -12.42)"/><path class="cls-2" d="M55.81,16.7a3.74,3.74,0,0,1-.51.22C55.57,17,55.77,17,55.81,16.7Z" transform="translate(-1.33 -12.42)"/><path class="cls-2" d="M25.31,22h0l-.09,0Z" transform="translate(-1.33 -12.42)"/><path class="cls-2" d="M54.6,16.86a.88.88,0,0,0,.7.06A1.38,1.38,0,0,0,54.6,16.86Z" transform="translate(-1.33 -12.42)"/><path class="cls-2" d="M84.3,41.39s0,.07,0,.11a.16.16,0,0,1,.09,0Z" transform="translate(-1.33 -12.42)"/><path class="cls-2" d="M84.41,41.47l.11.08S84.47,41.46,84.41,41.47Z" transform="translate(-1.33 -12.42)"/><path class="cls-2" d="M84.76,41.75c-.08-.08-.17-.13-.24-.2A.24.24,0,0,0,84.76,41.75Z" transform="translate(-1.33 -12.42)"/><path class="cls-2" d="M82.1,39l-.13.17A.52.52,0,0,0,82.1,39Z" transform="translate(-1.33 -12.42)"/><path class="cls-2" d="M81,38.63c.25.14.46.66.83.71l.1-.13C81.7,39.4,81.44,38.4,81,38.63Z" transform="translate(-1.33 -12.42)"/><path class="cls-2" d="M76.62,34.82l1,.39c-.14-.25-.32-.59.18-.54C76.62,33.74,78,35.2,76.62,34.82Z" transform="translate(-1.33 -12.42)"/><path class="cls-2" d="M73.33,33.89c.6,0,0-.31.1-.42C73,33.6,72.93,33.64,73.33,33.89Z" transform="translate(-1.33 -12.42)"/><path class="cls-2" d="M67.52,18l.48-.2C67.59,17.28,67.84,17.91,67.52,18Z" transform="translate(-1.33 -12.42)"/><path class="cls-2" d="M62.15,18l.34.39.29-.42Z" transform="translate(-1.33 -12.42)"/><polygon class="cls-2" points="58.68 1.58 58.89 1.53 58.1 1.62 58.68 1.58"/><path class="cls-2" d="M19,19.48l.42.48C19.62,19.71,19.35,19.05,19,19.48Z" transform="translate(-1.33 -12.42)"/><path class="cls-2" d="M5.77,32.15a.72.72,0,0,0-.71.81C5.31,32.61,5.72,32.37,5.77,32.15Z" transform="translate(-1.33 -12.42)"/><polygon class="cls-2" points="28.12 61.41 27.7 61.52 28.43 61.54 28.12 61.41"/><circle class="cls-3" cx="17.51" cy="25.78" r="5.19"/><path class="cls-2" d="M23.36,38.2c.09,0,.28,0,.24,0l-.33,0Z" transform="translate(-1.33 -12.42)"/><path class="cls-2" d="M24,37.88a1.8,1.8,0,0,0-.75,0c.32,0,.19,0,.57.08,0,0-.1.08-.22.08.08,0-.07.06.14.08s.25-.14,0-.21A.83.83,0,0,1,24,37.88Z" transform="translate(-1.33 -12.42)"/><path class="cls-2" d="M22.11,33.6v0S22.12,33.61,22.11,33.6Z" transform="translate(-1.33 -12.42)"/><path class="cls-2" d="M19.23,32.38s0,0,0-.07S19.22,32.35,19.23,32.38Z" transform="translate(-1.33 -12.42)"/><path class="cls-2" d="M18.67,32l0,0S18.68,32,18.67,32Z" transform="translate(-1.33 -12.42)"/><path class="cls-2" d="M22.11,33.6v-.14C22,33.55,22.1,33.55,22.11,33.6Z" transform="translate(-1.33 -12.42)"/><path class="cls-2" d="M23.1,37.4l.09,0,0,0Z" transform="translate(-1.33 -12.42)"/><path class="cls-2" d="M23.33,34.35l0,0,.12-.08Z" transform="translate(-1.33 -12.42)"/><path class="cls-2" d="M24,35.22s-.25.11-.36.16c.11-.05.16-.06.19-.05A1.2,1.2,0,0,0,24,35.22Z" transform="translate(-1.33 -12.42)"/><path class="cls-2" d="M24.17,37l0,0Z" transform="translate(-1.33 -12.42)"/><path class="cls-2" d="M22.82,33.74l.06-.08A.16.16,0,0,0,22.82,33.74Z" transform="translate(-1.33 -12.42)"/><path class="cls-2" d="M22.62,39h0Z" transform="translate(-1.33 -12.42)"/><polygon class="cls-2" points="22.77 25.77 22.78 25.79 22.94 25.8 22.77 25.77"/><path class="cls-2" d="M17.54,31.77h0S17.55,31.75,17.54,31.77Z" transform="translate(-1.33 -12.42)"/><path class="cls-2" d="M12.63,39.54c.22-.16.36.1.6-.11C13.12,39.47,12.76,39.37,12.63,39.54Z" transform="translate(-1.33 -12.42)"/><path class="cls-2" d="M23.13,37.38v0S23.12,37.37,23.13,37.38Z" transform="translate(-1.33 -12.42)"/><path class="cls-2" d="M13.23,39.43h0l0,0Z" transform="translate(-1.33 -12.42)"/><path class="cls-2" d="M15.24,32.92l.09.08S15.29,33,15.24,32.92Z" transform="translate(-1.33 -12.42)"/><path class="cls-2" d="M17.06,32.48l0,0A.06.06,0,0,0,17.06,32.48Z" transform="translate(-1.33 -12.42)"/><path class="cls-2" d="M14.75,33.82s-.06,0-.06,0l0,0S14.7,33.81,14.75,33.82Z" transform="translate(-1.33 -12.42)"/><path class="cls-2" d="M14.11,34.53l.05,0v0Z" transform="translate(-1.33 -12.42)"/><path class="cls-2" d="M21.89,40.78l.22.14C22,40.8,22,40.69,21.89,40.78Z" transform="translate(-1.33 -12.42)"/><path class="cls-2" d="M23.26,37.37h-.13l0,0Z" transform="translate(-1.33 -12.42)"/><path class="cls-2" d="M16.25,35.46l-.1,0A.12.12,0,0,0,16.25,35.46Z" transform="translate(-1.33 -12.42)"/><path class="cls-2" d="M17.72,42.08l0,0S17.74,42.05,17.72,42.08Z" transform="translate(-1.33 -12.42)"/><path class="cls-2" d="M16,35.74a.59.59,0,0,0-.19-.09l0,.05Z" transform="translate(-1.33 -12.42)"/><path class="cls-2" d="M22.11,40.92Z" transform="translate(-1.33 -12.42)"/><path class="cls-2" d="M21.94,40c-.05.07.29.22.46.35s-.26-.1-.44-.16c.05.11.3.34.25.38l-.13-.09c.19.23-.12.19.11.49l-.08,0c.15.11.3.23.4.32s.11.22-.08.08c0,0-.05-.09-.1-.15l.05.11c-.3-.19-.05-.13-.24-.3,0,.15.15.43,0,.42-.26-.22,0-.21-.26-.34h.18c-.46-.29.07,0-.41-.34-.16,0,0,.23-.14.25.11.16.2.19.31.35.06.4-.69-.52-.5-.09.12.2.37.54.14.43l-.2-.32c-.13,0,.26.49,0,.37-.06-.14,0-.17,0-.2-.25-.19.08.22,0,.27l-.2-.28c-.09.12-.1.42-.23.55a.59.59,0,0,0-.14-.27c-.1.25-.42.15-.65,0l0,.3S20,42,20,41.92s.06.18.05.3-.1-.15-.1-.24c-.05.27-.26.62-.46.32v-.09c-.12-.1,0,.62-.19.36l0,0c-.26-.11-.55.17-.72-.29-.06.42-.22-.2-.3.38-.1-.31-.05-.41-.2-.63,0,0-.14.34-.22.39l.07-.3-.17.29,0-.37-.07.06a.49.49,0,0,1,0,.23c-.14.12-.16-.26-.11-.42l-.29.18a.63.63,0,0,1,.15-.21c-.22.25.1-.31-.1-.08a1.6,1.6,0,0,1-.1.23c0-.19-.08-.25-.2-.21l.11-.19c-.11-.1-.33-.06-.48-.15,0,.11-.21.42-.28.41l.16-.28c-.14.15,0,.13-.22.3,0-.07.17-.33.26-.4l-.13,0c.06-.09.1-.12.18-.22-.15.15.08-.34-.16-.08l0-.08c-.13-.1-.25-.08-.37-.16-.2.2-.2.12-.39.25,0-.15.07-.39,0-.47s-.2.13-.36.2c.2-.16.1-.25.29-.31a.82.82,0,0,0-.45-.19c-.08.08-.1.13-.18.16s0-.13.15-.19h0c-.48,0,.41-.79-.13-.72h0l-.32-.08c0-.1.2,0,.33-.13-.49,0,0-.31-.35-.39.72-.27-.14-.44.35-.66l-.18,0c-.18,0,.1-.06.14-.09-.14,0-.16.06-.26,0-.24-.38.28-.77.52-1,.07-.1-.87-.3-.42-.36l.3.14c-.29-.39.2-.5,0-.89.06.06.15.1.14.13.23.06.11-.17-.05-.28,0,0,.15.08.25.11s-.19-.29,0-.18a.17.17,0,0,1,.07.08c-.08-.1.12-.12-.12-.25.17,0,0-.24.2-.2-.2-.24.23,0-.08-.34.33.31.38.12.29-.08.07.12.14.07.25.22,0-.05,0-.16-.13-.32.44.32,0-.52.44,0a1.48,1.48,0,0,1,.27-.78c.2.4-.18.16.06.56.06-.26,0-.64.23-.64.07,0,.05.2.07.27.11-.25.35-.09.44-.38a.19.19,0,0,1,0,.13s.1,0,0-.15l0,.06c-.14-.27,0-.64-.05-.79.08.58.22.09.29.84a.53.53,0,0,0,0-.28s.07.11.07.27c.09-.14,0-.34.13-.35a2.07,2.07,0,0,1,0,.25c0-.2.06-.4.17-.33s0,.14,0,.14c.16-.06.25-.54.47-.37,0,.44.07.14.08.51l.1-.11,0-.18c.08,0,.18-.26.25-.13L19,33.8l.17-.06-.09-.15c.11-.19,0-.47.15-.36,0,0,.1,0,.12.24h0c.06-.11.13-.23.19-.13s-.08.41-.08.49c.1-.3.23-.06.35-.37a1,1,0,0,0-.08.31l.09-.24c0,.09,0,.13,0,.28.12.08.07-.47.18-.24,0,0,0,.06-.06.09.12.14.34-.08.44.09-.09.37-.14,0-.2.36.19,0,.55-.28.69-.1v0c.26-.46,0,.3.22.12a1.13,1.13,0,0,0-.14.19c.07.15.3,0,.57,0l-.1.1c0,.15.13.18.16.28.1-.09.13,0,.23-.22-.31.76.69,0,.39.69,0,0-.13,0-.12.05l.23.06c.17-.16.09-.11.2-.26s.24-.1.28,0c-.19,0-.28.23-.36.35l.17-.14c-.25.35.38-.27.25,0l-.1.07c.08,0,.25,0,.26,0-.21.17-.14,0-.32.15.06.05.52-.16.34.06-.08,0-.11,0-.2,0-.2.25-.14.21-.15.29h0l-.05.19.06-.07c.65-.27.22.1.68,0-.44.07-.23.1-.5.23a.52.52,0,0,1-.21.18c.25-.05-.13.17.24.1-.09,0,0,.06-.21.15.1,0,.14-.09.26-.13.36,0-.28.42.22.43.22.1.54,0,.75.17a.55.55,0,0,1-.36,0c-.12.12-.07.17.05.23a.68.68,0,0,0-.26.07c0,.06.36,0,.23.09h-.4c.1,0,.29.1.39.16a.78.78,0,0,1-.38,0,.66.66,0,0,0,.46.2l.09-.07s-.23,0-.28,0c-.22-.05.08-.11.17-.13l.07.05c.56-.13-.12-.22-.11-.33l.42,0-.36-.05a.67.67,0,0,1,.4-.07c.18-.13-.16,0,0-.17h.07L24,36.91c.09,0,.28-.08.24,0,.19-.22-.37-.17-.08-.32h0c-.2-.18-.3.06-.69,0l.67-.36-.29.09s0-.08.12-.11c-.22,0-.12.06-.32.08.23-.21-.23-.22.2-.44-.22.07-.11.17-.31.13.46-.25-.14-.08,0-.27s.17.06.33-.14c-.43.15,0-.23-.13-.27-.31.18-.23-.09-.4-.15.11-.06,0-.33,0-.53l.05,0c-.31.2-.33,0-.46,0a.71.71,0,0,1,.37-.2l-.07-.07a.35.35,0,0,1-.25.05l.22-.16c-.1-.09-.41,0-.4-.23-.18.18-.41.59-.65.61.09-.11.25-.28.33-.29s-.12,0-.1,0l.21-.12c0-.12-.16.12-.19.06.13-.14.06-.13.17-.24s0,.09.06,0a.43.43,0,0,1,.07-.34c-.07.09-.18.2-.23.18s.12-.21.12-.34c-.11.08-.09-.08-.27.15,0,0,0-.14.08-.21-.13.06-.28-.16-.4.14v0h0c-.33.1-.28-.39-.53-.4l0-.08c-.16,0-.29-.07-.46.08,0,0,0-.21.06-.31-.12,0-.17.12-.24-.08.16-.12,0-.15.14-.08-.09-.12-.07-.28-.29-.08.13-.22,0-.33-.08-.29l0,.21a.21.21,0,0,1-.18-.08l.13-.3c-.19-.47-.66.53-.72-.17-.12.22.12.19,0,.44-.11-.06-.17-.55-.21-.56-.16-.21-.23.45-.4.31a.72.72,0,0,1-.13.54c-.11-.05-.12-.5,0-.6s0,0,0,.07a.18.18,0,0,0,.06-.22l0,.12c-.05-.12-.23-.12-.18-.31-.11.11-.05.19,0,.26-.16-.18-.26,0-.44-.13,0,.06.06.2,0,.2-.25-.13-.1.23-.26.29-.1-.17,0-.43-.15-.27-.11-.12-.05-.31,0-.41-.15.23-.33-.11-.43-.14l.07-.11a.14.14,0,0,1-.13.07l.09.23c-.06,0-.1,0-.12-.13,0,.17.1.39,0,.61-.09-.1-.17.16-.25-.14.22.06-.09-.31.08-.39,0,0-.07.05-.13,0a.13.13,0,0,1,0-.09c-.27-.23,0,.37-.22.41,0-.17-.13-.31-.16-.26s.11.27.08.42c-.17-.1-.11.14-.18.14l.09,0c0,.18,0,.17-.1.25-.05-.12,0-.11,0-.16,0,.33-.32-.23-.38,0-.1-.09-.12-.31-.21-.37-.06.27-.26-.15-.34.1.14.19.12.14.12.4l.17-.27v.39c.07,0,.09-.22.15-.19,0,.21,0,.15.1.32-.24-.29-.1.27-.31.11l-.26-.53c-.31-.15-.17.42-.45.42l.12.05c.09.22-.12.11-.13.23a1,1,0,0,0-.29-.29c.09.12-.16.11.06.44l-.25-.14c-.23,0,.16.57,0,.64-.1-.2-.25-.24-.26-.45,0,0-.12.06,0,.16-.11-.06.05.32-.12.22,0,.08.18.23.12.27a.21.21,0,0,1-.07-.07c.06.07,0,.17.21.28-.57-.28-.32.4-.82.2A2.19,2.19,0,0,1,14,35s-.08,0-.06-.06c-.24,0,.43.4.16.44s-.1-.17-.23-.18c-.57-.31-.05.24-.44.17l0,0c-.25,0,.1.34,0,.47a.31.31,0,0,0-.09-.05,1.06,1.06,0,0,1,.32.64c-.22-.12-.1-.11-.35-.17,0,.08.39.13.42.27a1.77,1.77,0,0,1-.56,0,.51.51,0,0,1,0-.13c-.36,0,0,.17-.12.22l-.14,0c0,.22.37.32.29.52h.12c.36.19-.23,0,0,.22l-.4,0a3.79,3.79,0,0,1,.4.47,1.79,1.79,0,0,1-.57-.42.3.3,0,0,0,.18.34s-.13-.09-.06-.11c.29.13.44.26.42.41-.76-.07-.21.38-.79.51.29.28-.08.6,0,1,.56-.23,0,.1.63,0,0,.06,0,.09,0,.1l-.3.31c-.16.1-.15,0-.28,0,0,.19-.23.14-.36.31.21-.09.32,0,.27.1l.23-.22c.37.14-.43.36,0,.5h-.21c.15.09.17.48.68.38-.06.05-.2.15-.26.12.07.34.77.35.64.71l-.14.06c.07,0,.29-.07.2.07s-.13.06-.12.09.3,0,.28.08l-.18,0c0,.37.6.12.84.21a.62.62,0,0,0-.23.71l0,0c.23.3.7.15,1,.19-.12.51.44.54.61.92a.48.48,0,0,1,.23-.32c0,.11.31-.19.13.17l0,0c-.11.39.08.37.19.42l.22-.49c0,.41.23.43.43.4s.39-.07.4.28c.1-.1.2-.09.29-.21l0,.28a.8.8,0,0,0,.58.12l-.07.2c.16,0,.25-.8.38-.82l0,.43c.25,0,.54.36.77,0,0,.06,0,.18,0,.2.12,0,.52.23.39-.34.06.37.28,0,.37-.19l0,.28c0-.38,0-.48.15-.61,0,0,.08.21,0,.15.15.11,0-.28.2-.17V44c.12,0,.09-.1.09-.32s.24,0,.34.21c0-.15,0-.36,0-.32a.41.41,0,0,1,0,.18c.27.11.15-.42.39-.23.05.09.07.12.1.14-.16.07-.29.11-.28.09.1.24.25.22.28.59,0-.23,0-.69.2-.64a.22.22,0,0,1,.06.07v0s.06,0,.06-.08a.18.18,0,0,0,.14,0c.12.18.2,0,.27,0-.16-.24-.06-.25-.25-.4,0,0,0,0,0,.07s0,0,0,0v0l-.13.11c0-.16,0-.29.1-.19l-.16-.43c.28.29.56.36.71.54.08-.26.36-.38.11-.88,0-.09.14.07.21.12s0,.08,0,.15c0-.18.23-.27,0-.55.22,0,.18.3.28.11l.06.1c.35.06.3-.23.24-.49s-.13-.5.31-.46a.25.25,0,0,1-.14,0c.57-.25.24-1,.88-1.23.15-.1-.07-.19-.21-.32l.3.06-.3-.24c-.21-.24.82-.16.39-.52h-.21c.05-.08-.07-.29.16-.25,0,0-.21-.05-.1-.08l.16,0c-.08-.08-.16-.17-.25-.25.12-.16.62.08.67-.19a.83.83,0,0,0-.56-.25s-.1.09-.26.09l-.08-.08a3.23,3.23,0,0,0-1.27.09l.28.12-.23,0v-.09c-.21,0,0,.08.1.13l-.25,0,.44.15c-.18,0-.35-.08-.46,0,.19.07.41,0,.53.1-.22,0-.38,0-.22.07a.55.55,0,0,1-.24-.06c.14.07,0,.14.28.21-.26,0,0,.2-.4.1.1,0,.32.17.32.22-.49-.22-.07.17-.61,0,.44.2.13.27.34.47,0,0-.1-.06-.08-.06s-.19,0-.29,0a1.88,1.88,0,0,1,.59.45c-.38-.09-.4-.24-.74-.37.29.13.23.26.48.35a1.28,1.28,0,0,1-.43-.12c.43.23.06.09.29.27-.26,0-.41-.21-.33,0A.55.55,0,0,1,21.94,40Zm-1.06,2.14h0l0,0Zm-.19.09.09,0c0,.09.08.18.06.19S20.75,42.29,20.69,42.23Zm1.38,1.48c0,.06-.06,0-.1,0l.06-.07,0,0A.38.38,0,0,1,22.07,43.71Z" transform="translate(-1.33 -12.42)"/><path class="cls-2" d="M22,43.35s0,0,0,0l-.06,0,0,.08Z" transform="translate(-1.33 -12.42)"/><path class="cls-2" d="M22.12,33.66h0s0,0,0,0Z" transform="translate(-1.33 -12.42)"/><polygon class="cls-2" points="16.63 29.58 16.61 29.64 16.64 29.59 16.63 29.58"/><path class="cls-2" d="M22.44,35.27a.12.12,0,0,0-.05,0Z" transform="translate(-1.33 -12.42)"/><path class="cls-2" d="M22.69,35.73l-.05.11A.19.19,0,0,0,22.69,35.73Z" transform="translate(-1.33 -12.42)"/><path class="cls-2" d="M22.77,36.14l.11,0h0Z" transform="translate(-1.33 -12.42)"/><path class="cls-2" d="M17.64,34.27h0C17.62,34.34,17.63,34.32,17.64,34.27Z" transform="translate(-1.33 -12.42)"/><path class="cls-2" d="M19.39,33.47s-.05.09-.07.12S19.37,33.63,19.39,33.47Z" transform="translate(-1.33 -12.42)"/><polygon class="cls-2" points="14.93 23.03 14.92 23.03 14.92 23.04 14.93 23.03"/><path class="cls-2" d="M19.23,33.58c0,.06.06.05.09,0S19.26,33.54,19.23,33.58Z" transform="translate(-1.33 -12.42)"/><path class="cls-2" d="M23.13,37.74v0h0Z" transform="translate(-1.33 -12.42)"/><path class="cls-2" d="M23.16,37.75l0,0S23.19,37.75,23.16,37.75Z" transform="translate(-1.33 -12.42)"/><path class="cls-2" d="M23.27,37.81l-.07,0S23.19,37.81,23.27,37.81Z" transform="translate(-1.33 -12.42)"/><path class="cls-2" d="M23.17,37.22l-.1,0Z" transform="translate(-1.33 -12.42)"/><path class="cls-2" d="M23.1,37.08s-.19.14-.11.17h.08C22.92,37.25,23.28,37.07,23.1,37.08Z" transform="translate(-1.33 -12.42)"/><path class="cls-2" d="M24.06,36l0,.19c.09-.07.21-.16.27-.1C24.53,35.74,24.1,36.19,24.06,36Z" transform="translate(-1.33 -12.42)"/><path class="cls-2" d="M24,35.43c.09.06.14-.07.2-.1C24.05,35.33,24,35.33,24,35.43Z" transform="translate(-1.33 -12.42)"/><path class="cls-2" d="M21.22,32.88l.11-.23C21.25,32.65,21.29,32.74,21.22,32.88Z" transform="translate(-1.33 -12.42)"/><polygon class="cls-2" points="18.82 21.46 18.82 21.63 18.91 21.41 18.82 21.46"/><polygon class="cls-2" points="18.89 19.6 18.93 19.57 18.79 19.63 18.89 19.6"/><path class="cls-2" d="M14,34.24l.26.18C14.27,34.35,14,34.11,14,34.24Z" transform="translate(-1.33 -12.42)"/><path class="cls-2" d="M13.05,37c-.16,0-.27.06-.13.13S13.08,37,13.05,37Z" transform="translate(-1.33 -12.42)"/><polygon class="cls-2" points="15.28 31.8 15.19 31.88 15.33 31.84 15.28 31.8"/><circle class="cls-4" cx="22.7" cy="41.38" r="5.19"/><path class="cls-2" d="M28.55,53.81c.09,0,.28,0,.24,0l-.33,0Z" transform="translate(-1.33 -12.42)"/><path class="cls-2" d="M29.15,53.49a1.65,1.65,0,0,0-.75,0c.32,0,.19,0,.57.07,0,.05-.1.09-.23.08.09,0-.07.07.14.09s.26-.14.05-.21A.83.83,0,0,1,29.15,53.49Z" transform="translate(-1.33 -12.42)"/><path class="cls-2" d="M27.3,49.2v.06A.11.11,0,0,0,27.3,49.2Z" transform="translate(-1.33 -12.42)"/><path class="cls-2" d="M24.41,48s0,0,.05-.07S24.41,48,24.41,48Z" transform="translate(-1.33 -12.42)"/><path class="cls-2" d="M23.86,47.62l0,0S23.86,47.59,23.86,47.62Z" transform="translate(-1.33 -12.42)"/><path class="cls-2" d="M27.3,49.2v-.13C27.23,49.15,27.28,49.16,27.3,49.2Z" transform="translate(-1.33 -12.42)"/><path class="cls-2" d="M28.29,53l.09,0,0,0Z" transform="translate(-1.33 -12.42)"/><path class="cls-2" d="M28.52,50l0,0,.11-.07Z" transform="translate(-1.33 -12.42)"/><path class="cls-2" d="M29.2,50.83s-.25.11-.36.16c.11-.05.16-.06.19-.05Z" transform="translate(-1.33 -12.42)"/><path class="cls-2" d="M29.36,52.58l.05,0Z" transform="translate(-1.33 -12.42)"/><path class="cls-2" d="M28,49.35l.06-.09Z" transform="translate(-1.33 -12.42)"/><path class="cls-2" d="M27.8,54.64h.05S27.81,54.63,27.8,54.64Z" transform="translate(-1.33 -12.42)"/><polygon class="cls-2" points="27.96 41.38 27.97 41.4 28.13 41.4 27.96 41.38"/><path class="cls-2" d="M22.72,47.38h0S22.74,47.36,22.72,47.38Z" transform="translate(-1.33 -12.42)"/><path class="cls-2" d="M17.82,55.15c.22-.16.36.1.59-.12C18.31,55.07,18,55,17.82,55.15Z" transform="translate(-1.33 -12.42)"/><path class="cls-2" d="M28.32,53v0S28.31,53,28.32,53Z" transform="translate(-1.33 -12.42)"/><path class="cls-2" d="M18.41,55h0l0,0Z" transform="translate(-1.33 -12.42)"/><path class="cls-2" d="M20.43,48.53l.09.08A.38.38,0,0,0,20.43,48.53Z" transform="translate(-1.33 -12.42)"/><path class="cls-2" d="M22.25,48.09l-.05,0Z" transform="translate(-1.33 -12.42)"/><path class="cls-2" d="M19.94,49.43s-.06,0-.06,0l0,0S19.89,49.42,19.94,49.43Z" transform="translate(-1.33 -12.42)"/><path class="cls-2" d="M19.3,50.14l.05,0v0Z" transform="translate(-1.33 -12.42)"/><path class="cls-2" d="M27.08,56.39l.21.14C27.14,56.41,27.14,56.3,27.08,56.39Z" transform="translate(-1.33 -12.42)"/><path class="cls-2" d="M28.44,53a.22.22,0,0,1-.12,0s0,0,0,0Z" transform="translate(-1.33 -12.42)"/><path class="cls-2" d="M21.44,51.07l-.1,0A.19.19,0,0,0,21.44,51.07Z" transform="translate(-1.33 -12.42)"/><path class="cls-2" d="M22.91,57.69l0,0S22.93,57.66,22.91,57.69Z" transform="translate(-1.33 -12.42)"/><path class="cls-2" d="M21.17,51.34a.62.62,0,0,0-.18-.08l0,.05Z" transform="translate(-1.33 -12.42)"/><path class="cls-2" d="M27.3,56.53h0Z" transform="translate(-1.33 -12.42)"/><path class="cls-2" d="M27.13,55.61c-.06.07.29.22.46.35s-.26-.1-.44-.17c.05.11.3.35.25.39a.51.51,0,0,1-.13-.09c.19.23-.12.19.11.49l-.08,0c.15.11.3.23.4.32s.11.22-.09.08c0,0,0-.09-.09-.15l0,.11c-.29-.19,0-.13-.23-.3,0,.14.15.43,0,.42-.25-.22,0-.21-.25-.34h.17c-.45-.29.08,0-.4-.35-.17,0,0,.24-.14.26.11.16.2.19.31.35.06.4-.69-.53-.5-.09.12.2.37.54.14.43L26.47,57c-.12,0,.27.49,0,.37-.07-.14,0-.17,0-.2-.25-.19.07.22,0,.27l-.2-.28c-.09.11-.1.42-.23.55a.7.7,0,0,0-.14-.27c-.11.24-.42.15-.65,0l0,.3s-.07-.12-.07-.17.05.17.05.29-.1-.14-.1-.24c-.05.27-.26.63-.46.33v-.09c-.12-.1,0,.62-.19.36l0,0c-.26-.11-.55.17-.72-.29-.07.42-.22-.2-.3.38-.11-.31,0-.41-.2-.63,0,0-.14.34-.22.39l.06-.3L23,58,23,57.6l-.08.06a.46.46,0,0,1,0,.23c-.14.12-.17-.26-.11-.42l-.29.17a.55.55,0,0,1,.15-.2c-.22.25.1-.31-.1-.08a1.63,1.63,0,0,1-.11.23c0-.19-.07-.25-.19-.21l.11-.19c-.12-.1-.33-.06-.48-.16,0,.12-.21.42-.28.42l.16-.28c-.14.15,0,.13-.22.3,0-.08.17-.33.26-.4l-.13,0c.05-.08.1-.11.17-.21-.14.15.09-.34-.16-.09l.06-.08c-.14-.09-.25-.07-.37-.15-.2.2-.2.12-.39.25,0-.15.06-.39,0-.47s-.2.13-.36.2c.19-.17.1-.26.28-.31-.12-.11-.17-.12-.44-.19-.08.08-.1.12-.18.16s0-.13.15-.19h0c-.48,0,.41-.79-.14-.72h0L20,55.22c0-.1.2,0,.33-.13-.49-.05,0-.31-.35-.39.72-.27-.14-.44.34-.66l-.17,0c-.18,0,.1-.06.13-.09-.13,0-.15.05-.25,0-.24-.38.28-.77.51-1,.08-.1-.87-.31-.41-.36l.3.14c-.3-.39.19-.5,0-.89.06,0,.15.1.13.12.24.07.12-.16-.05-.27.05,0,.16.08.26.11s-.19-.29,0-.18a.17.17,0,0,1,.07.08c-.08-.1.12-.12-.12-.25.16,0,0-.24.2-.2-.2-.24.23,0-.08-.34.33.31.37.12.28-.08.08.11.14.07.25.22,0-.05,0-.16-.12-.32.44.32-.05-.52.44,0a1.48,1.48,0,0,1,.27-.78c.2.4-.19.16.06.56.05-.26,0-.64.23-.64.07,0,.05.2.07.27.1-.25.35-.09.44-.38a.29.29,0,0,1,0,.13s.1,0,0-.16l0,.07c-.15-.27,0-.64-.06-.79.09.58.23.09.3.84a.58.58,0,0,0,0-.28c.05,0,.07.11.07.27.1-.14,0-.34.13-.36a2.09,2.09,0,0,1,0,.26c0-.2.06-.4.17-.33s0,.13,0,.14c.16-.07.25-.54.46-.37,0,.43.07.14.09.51l.09-.11,0-.18c.09,0,.18-.26.26-.13l-.08.15.18-.07-.09-.14c.11-.19,0-.47.14-.36s.11,0,.13.23h0c.06-.12.13-.23.19-.13s-.08.41-.08.49c.09-.3.22-.06.35-.37a1,1,0,0,0-.08.3l.09-.23c0,.09,0,.13,0,.28s.07-.48.17-.24a.28.28,0,0,1-.05.09c.12.14.34-.08.44.09-.09.37-.15,0-.2.36.19,0,.55-.28.69-.1v0c.26-.47,0,.29.22.12a1.13,1.13,0,0,0-.14.19c.07.15.29,0,.57,0l-.1.1c0,.15.13.18.16.28.1-.09.13,0,.23-.22-.31.76.68,0,.39.69,0,0-.13,0-.12.05l.23.06c.16-.16.09-.11.19-.26s.25-.1.28-.06c-.18,0-.28.24-.36.36l.18-.14c-.26.34.37-.28.25,0l-.1.07c.08,0,.24,0,.25,0-.2.17-.13,0-.31.15.05.05.52-.16.34.06-.09,0-.11,0-.2,0-.21.24-.14.21-.15.29h0l-.05.19.06-.08c.64-.26.22.11.68,0-.44.07-.23.1-.5.22a.54.54,0,0,1-.21.19c.25-.05-.13.17.23.1-.08,0,0,.06-.21.15.11,0,.15-.09.26-.13.37,0-.27.42.23.43.22.1.54,0,.74.17a.52.52,0,0,1-.35,0c-.12.12-.08.17,0,.22a.7.7,0,0,0-.26.08c0,.05.35,0,.22.09h-.39c.1,0,.29.1.39.16a.91.91,0,0,1-.38,0,.65.65,0,0,0,.45.2l.1-.07s-.23,0-.28,0c-.22,0,.07-.11.17-.13l.07.05c.56-.13-.13-.22-.11-.33l.42,0-.36-.05c.1,0,.33-.12.4-.07.18-.13-.17,0,0-.17h.07l-.14-.06c.09,0,.28-.08.24,0,.19-.23-.37-.17-.08-.32h0c-.2-.18-.3.06-.69,0l.67-.35-.3.09s0-.08.13-.11c-.22,0-.12.06-.32.08.23-.21-.23-.22.2-.44-.23.06-.12.17-.31.13.46-.25-.14-.08,0-.27s.17.06.34-.14c-.43.15,0-.23-.13-.27-.31.18-.23-.09-.41-.15.12-.06,0-.33,0-.53l.05,0c-.31.2-.33,0-.46,0a.73.73,0,0,1,.36-.2L28.54,50a.33.33,0,0,1-.25.06l.22-.16c-.11-.1-.41,0-.4-.23-.19.18-.42.59-.65.61.09-.11.25-.28.32-.29s-.11,0-.1,0l.22-.12c0-.12-.17.11-.19.06s.06-.13.17-.24,0,.09.06,0a.46.46,0,0,1,.06-.34c-.07.08-.17.19-.23.18s.13-.21.13-.34c-.11.08-.09-.08-.28.15,0,0,.05-.14.09-.21-.14.06-.28-.17-.4.13v0h0c-.33.1-.28-.39-.54-.4l.05-.08c-.16,0-.29-.08-.46.07,0,0,0-.2.06-.3-.12,0-.17.12-.25-.08.16-.12,0-.15.15-.08-.09-.12-.07-.28-.3-.08.14-.22,0-.34-.07-.29l0,.21a.24.24,0,0,1-.19-.08l.14-.3c-.19-.47-.66.53-.73-.17-.11.22.12.18,0,.44-.1-.06-.16-.55-.21-.56-.16-.21-.23.45-.39.31,0,.12,0,.43-.13.54-.11-.05-.12-.51,0-.6s0,0,0,.07a.18.18,0,0,0,.06-.22l0,.12c0-.12-.24-.12-.19-.31-.1.11,0,.19,0,.26-.16-.18-.26,0-.43-.13,0,.06.06.2,0,.2-.25-.14-.1.23-.26.29-.1-.18,0-.43-.15-.27-.12-.12-.05-.32,0-.41-.14.23-.32-.12-.42-.15l.07-.1a.17.17,0,0,1-.13.07l.08.23c-.05,0-.1,0-.11-.13,0,.16.1.39,0,.61-.09-.11-.17.16-.25-.14.22.06-.09-.31.08-.39,0,0-.07,0-.13,0a.08.08,0,0,1,0-.08c-.26-.23,0,.37-.22.41,0-.18-.13-.31-.15-.27s.11.28.07.43c-.16-.1-.1.13-.17.14l.09,0c0,.17,0,.17-.1.25,0-.13,0-.11,0-.16,0,.33-.31-.23-.37,0-.1-.09-.13-.3-.21-.36-.07.27-.26-.15-.35.09.15.2.13.14.12.4l.18-.27v.4c.07,0,.08-.22.15-.2,0,.21,0,.16.09.32-.23-.28-.09.28-.3.12l-.26-.54c-.31-.15-.17.43-.46.43l.13.05c.09.22-.12.11-.13.23a1.13,1.13,0,0,0-.29-.29c.09.12-.16.11.05.44l-.24-.14c-.23,0,.16.57,0,.64-.1-.2-.26-.25-.26-.45,0,0-.12.06,0,.16-.11-.07,0,.32-.12.22,0,.08.17.23.11.27L20,49.68c.07.07,0,.17.22.28-.57-.28-.32.4-.82.2a1.67,1.67,0,0,1-.14.43s-.08-.06-.05-.06c-.24,0,.42.39.15.44s-.09-.18-.23-.19c-.56-.31,0,.25-.44.18v-.05c-.25,0,.1.35,0,.47l-.09,0a1,1,0,0,1,.32.64c-.22-.13-.1-.11-.36-.17,0,.08.4.13.42.27a1.77,1.77,0,0,1-.56,0l0-.14c-.36,0,0,.18-.12.23l-.15,0c0,.22.38.32.3.52h.12c.36.19-.23,0,0,.22l-.39,0a3.5,3.5,0,0,1,.39.46,1.59,1.59,0,0,1-.56-.41.29.29,0,0,0,.17.34s-.12-.09-.05-.12c.29.14.44.27.42.41-.76-.06-.22.39-.79.52.29.28-.08.6,0,.95.57-.23,0,.09.63,0,.05.07.05.1,0,.11l-.3.31c-.16.1-.15,0-.28,0s-.24.14-.36.3c.2-.08.32,0,.26.11l.24-.22c.37.14-.43.36,0,.5h-.21c.15.09.18.48.68.38-.05.05-.19.15-.25.12.06.33.77.35.64.7l-.14.07c.07,0,.28-.07.2.07s-.13.06-.13.09.31,0,.28.08l-.17,0c0,.37.6.12.83.21a.65.65,0,0,0-.23.71l0,0c.23.29.69.15,1.05.18-.13.52.44.54.61.93a.46.46,0,0,1,.23-.32c0,.11.31-.19.13.17l0,0c-.11.39.08.37.19.42l.22-.49c0,.41.23.43.43.4s.39-.08.4.28c.1-.11.19-.09.29-.21l-.05.28a.8.8,0,0,0,.58.12l-.07.2c.16,0,.25-.81.38-.82l0,.43c.24,0,.53.36.77,0,0,.07,0,.19,0,.21.12,0,.52.22.39-.34.06.37.27,0,.36-.19l0,.28c0-.38,0-.48.14-.61.05,0,.09.21,0,.15.16.11,0-.28.21-.17v.18c.13,0,.1-.09.1-.32s.23,0,.34.22c0-.15-.05-.36.05-.32a.41.41,0,0,1,0,.18c.27.11.15-.42.39-.23a.35.35,0,0,0,.1.14c-.16.07-.29.11-.29.09.1.24.26.21.29.59,0-.23,0-.69.2-.65a.28.28,0,0,1,.06.08v0s.06,0,.06-.08a.18.18,0,0,0,.14,0c.11.18.2,0,.26,0-.15-.23-.05-.24-.24-.39,0,0,0,0,0,.06s0,0,0,0v0l-.13.11c0-.16,0-.29.1-.19l-.16-.44c.28.29.55.37.71.55.08-.26.36-.39.1-.88,0-.09.15.07.22.12s0,.08,0,.15c0-.18.23-.27,0-.55.22,0,.18.3.28.11l.06.1c.35.06.3-.24.24-.49s-.13-.51.31-.46a.24.24,0,0,1-.14,0c.57-.25.24-1,.88-1.23.15-.1-.07-.19-.21-.32l.3.06-.3-.24c-.21-.24.82-.16.39-.52h-.21c.05-.08-.08-.29.15-.25,0,0-.2-.06-.09-.08l.16,0a3,3,0,0,0-.25-.25c.12-.16.62.08.67-.19a.83.83,0,0,0-.56-.25s-.1.09-.26.09l-.08-.08a3.22,3.22,0,0,0-1.27.09l.28.12-.23,0V54c-.21,0,0,.08.1.12a1,1,0,0,0-.25,0l.44.14c-.19,0-.36-.08-.47,0,.2.07.42,0,.54.09-.22,0-.39,0-.22.08a.55.55,0,0,1-.24-.06c.13.07,0,.14.28.21-.26,0,0,.2-.4.1.1,0,.32.16.32.22-.49-.22-.07.17-.61,0,.44.2.12.27.33.47,0,0-.1-.06-.07-.06s-.2,0-.29,0a1.71,1.71,0,0,1,.58.45c-.37-.09-.39-.24-.73-.37.29.13.23.25.48.35a1.13,1.13,0,0,1-.43-.13c.43.24.05.09.29.28-.26,0-.41-.21-.33,0A.55.55,0,0,1,27.13,55.61Zm-1.07,2.14h0l0,0Zm-.18.09.08,0c.05.09.09.18.07.18S25.94,57.9,25.88,57.84Zm1.38,1.48s-.07,0-.1,0a.18.18,0,0,0,.05-.07v0A.53.53,0,0,1,27.26,59.32Z" transform="translate(-1.33 -12.42)"/><path class="cls-2" d="M27.14,59s0,0,0,0l-.06,0,0,.08Z" transform="translate(-1.33 -12.42)"/><path class="cls-2" d="M27.31,49.26h0l0,0Z" transform="translate(-1.33 -12.42)"/><polygon class="cls-2" points="21.82 45.18 21.8 45.25 21.83 45.2 21.82 45.18"/><path class="cls-2" d="M27.62,50.88l0,0Z" transform="translate(-1.33 -12.42)"/><path class="cls-2" d="M27.88,51.34l-.05.11Z" transform="translate(-1.33 -12.42)"/><path class="cls-2" d="M28,51.74l.11-.05h0Z" transform="translate(-1.33 -12.42)"/><path class="cls-2" d="M22.83,49.88h0C22.81,50,22.82,49.93,22.83,49.88Z" transform="translate(-1.33 -12.42)"/><path class="cls-2" d="M24.58,49.08a1.25,1.25,0,0,1-.08.12S24.56,49.23,24.58,49.08Z" transform="translate(-1.33 -12.42)"/><polygon class="cls-2" points="20.11 38.64 20.11 38.64 20.1 38.65 20.11 38.64"/><path class="cls-2" d="M24.41,49.19c0,.06.06.05.09,0S24.45,49.15,24.41,49.19Z" transform="translate(-1.33 -12.42)"/><path class="cls-2" d="M28.31,53.35v0h0Z" transform="translate(-1.33 -12.42)"/><path class="cls-2" d="M28.35,53.36l0,0S28.38,53.36,28.35,53.36Z" transform="translate(-1.33 -12.42)"/><path class="cls-2" d="M28.46,53.42l-.08,0S28.38,53.41,28.46,53.42Z" transform="translate(-1.33 -12.42)"/><path class="cls-2" d="M28.36,52.83l-.1,0Z" transform="translate(-1.33 -12.42)"/><path class="cls-2" d="M28.29,52.69s-.19.14-.11.17h.08C28.1,52.86,28.47,52.68,28.29,52.69Z" transform="translate(-1.33 -12.42)"/><path class="cls-2" d="M29.25,51.58l0,.19c.09-.07.21-.16.26-.1C29.72,51.35,29.28,51.8,29.25,51.58Z" transform="translate(-1.33 -12.42)"/><path class="cls-2" d="M29.16,51c.09.06.14-.07.2-.1C29.24,50.94,29.21,50.94,29.16,51Z" transform="translate(-1.33 -12.42)"/><path class="cls-2" d="M26.4,48.49l.12-.23C26.44,48.26,26.48,48.35,26.4,48.49Z" transform="translate(-1.33 -12.42)"/><polygon class="cls-2" points="24 37.07 24.01 37.24 24.1 37.02 24 37.07"/><polygon class="cls-2" points="24.08 35.21 24.12 35.18 23.97 35.24 24.08 35.21"/><path class="cls-2" d="M19.21,49.85l.25.18C19.45,50,19.19,49.72,19.21,49.85Z" transform="translate(-1.33 -12.42)"/><path class="cls-2" d="M18.24,52.57c-.16,0-.27,0-.13.13S18.27,52.6,18.24,52.57Z" transform="translate(-1.33 -12.42)"/><polygon class="cls-2" points="20.47 47.41 20.38 47.49 20.52 47.45 20.47 47.41"/><circle class="cls-5" cx="39.51" cy="49.07" r="5.19"/><path class="cls-2" d="M45.37,61.49c.08,0,.28,0,.24,0l-.34,0Z" transform="translate(-1.33 -12.42)"/><path class="cls-2" d="M46,61.18a1.72,1.72,0,0,0-.74,0c.31,0,.18.05.56.08,0,.05-.1.08-.22.08.09,0-.07.07.14.09s.26-.15,0-.21A.85.85,0,0,1,46,61.18Z" transform="translate(-1.33 -12.42)"/><path class="cls-2" d="M44.12,56.89v0A0,0,0,0,0,44.12,56.89Z" transform="translate(-1.33 -12.42)"/><path class="cls-2" d="M41.23,55.68a.07.07,0,0,0,0-.07A.1.1,0,0,0,41.23,55.68Z" transform="translate(-1.33 -12.42)"/><path class="cls-2" d="M40.67,55.3l0,0S40.68,55.28,40.67,55.3Z" transform="translate(-1.33 -12.42)"/><path class="cls-2" d="M44.12,56.89v-.13C44.05,56.84,44.1,56.85,44.12,56.89Z" transform="translate(-1.33 -12.42)"/><path class="cls-2" d="M45.1,60.7l.1,0,0,0Z" transform="translate(-1.33 -12.42)"/><path class="cls-2" d="M45.33,57.64l0,0,.12-.07Z" transform="translate(-1.33 -12.42)"/><path class="cls-2" d="M46,58.52s-.25.1-.36.16a.3.3,0,0,1,.19,0Z" transform="translate(-1.33 -12.42)"/><path class="cls-2" d="M46.18,60.27l0,0Z" transform="translate(-1.33 -12.42)"/><path class="cls-2" d="M44.82,57l.06-.08Z" transform="translate(-1.33 -12.42)"/><path class="cls-2" d="M44.62,62.32l.05,0Z" transform="translate(-1.33 -12.42)"/><polygon class="cls-2" points="44.77 49.07 44.79 49.09 44.94 49.09 44.77 49.07"/><path class="cls-2" d="M39.54,55.07h0S39.55,55,39.54,55.07Z" transform="translate(-1.33 -12.42)"/><path class="cls-2" d="M34.64,62.84c.22-.16.36.1.59-.12C35.13,62.76,34.77,62.67,34.64,62.84Z" transform="translate(-1.33 -12.42)"/><path class="cls-2" d="M45.14,60.67a0,0,0,0,1,0,0S45.13,60.67,45.14,60.67Z" transform="translate(-1.33 -12.42)"/><path class="cls-2" d="M35.23,62.72h0l0,0Z" transform="translate(-1.33 -12.42)"/><path class="cls-2" d="M37.25,56.21a.38.38,0,0,0,.09.09Z" transform="translate(-1.33 -12.42)"/><path class="cls-2" d="M39.06,55.77l-.05,0Z" transform="translate(-1.33 -12.42)"/><path class="cls-2" d="M36.76,57.12s-.07,0-.07,0h0S36.71,57.11,36.76,57.12Z" transform="translate(-1.33 -12.42)"/><path class="cls-2" d="M36.11,57.83l.06,0v0Z" transform="translate(-1.33 -12.42)"/><path class="cls-2" d="M43.9,64.08l.21.14C44,64.1,44,64,43.9,64.08Z" transform="translate(-1.33 -12.42)"/><path class="cls-2" d="M45.26,60.67h-.12l0,0Z" transform="translate(-1.33 -12.42)"/><path class="cls-2" d="M38.25,58.76l-.1,0A.15.15,0,0,0,38.25,58.76Z" transform="translate(-1.33 -12.42)"/><path class="cls-2" d="M39.73,65.38l0,0S39.74,65.35,39.73,65.38Z" transform="translate(-1.33 -12.42)"/><path class="cls-2" d="M38,59A.64.64,0,0,0,37.8,59l.05,0Z" transform="translate(-1.33 -12.42)"/><path class="cls-2" d="M44.11,64.22Z" transform="translate(-1.33 -12.42)"/><path class="cls-2" d="M43.94,63.3c0,.07.29.22.46.35s-.26-.1-.44-.17c.06.11.31.35.26.38a.34.34,0,0,1-.13-.09c.19.24-.13.19.1.5l-.08,0c.16.11.3.23.4.31s.12.23-.08.08c0,0,0-.08-.09-.14l0,.11c-.29-.2,0-.13-.24-.3,0,.14.16.43,0,.42-.25-.23,0-.21-.25-.34h.17c-.46-.3.07,0-.41-.35-.16,0,0,.23-.14.26.11.15.21.19.31.35.07.4-.69-.53-.49-.09.11.19.37.54.14.43l-.21-.33c-.13.05.27.49,0,.37-.06-.14,0-.17,0-.19-.25-.19.07.22,0,.26l-.2-.27c-.1.11-.1.42-.23.55a.7.7,0,0,0-.15-.28c-.1.25-.41.15-.65,0l0,.3s-.07-.12-.07-.18,0,.18,0,.3-.11-.15-.1-.24c-.05.27-.27.63-.47.33l0-.09c-.12-.1,0,.61-.19.36v-.06c-.25-.1-.55.18-.71-.28-.07.42-.22-.2-.3.38-.11-.32-.05-.42-.2-.64,0,0-.15.35-.23.39l.07-.3-.16.3.05-.37-.08.06a.46.46,0,0,1,0,.23c-.14.11-.17-.27-.12-.42l-.29.17a.69.69,0,0,1,.15-.2c-.21.25.1-.31-.1-.08a.74.74,0,0,1-.1.22c0-.18-.08-.24-.19-.21l.1-.18c-.11-.11-.32-.06-.48-.16,0,.12-.2.42-.27.42l.16-.28c-.15.15,0,.13-.22.3,0-.08.17-.34.26-.4l-.13,0c0-.08.1-.11.17-.21-.15.14.09-.34-.16-.09l.06-.08c-.14-.09-.26-.07-.38-.15-.19.2-.19.12-.39.25,0-.16.07-.39,0-.47s-.21.13-.36.2c.19-.17.09-.26.28-.32-.12-.1-.17-.11-.45-.18a.67.67,0,0,1-.18.16s.05-.14.15-.2h0c-.47,0,.42-.8-.13-.73h0l-.33-.07c0-.1.2,0,.33-.13-.48-.05,0-.31-.34-.4.72-.26-.14-.43.34-.65l-.18,0c-.17,0,.1-.06.14-.09-.14,0-.16.05-.25,0-.25-.38.28-.77.51-1,.08-.1-.87-.31-.42-.37l.31.15c-.3-.39.19-.5,0-.89.06.05.14.1.13.12.24.07.12-.17-.05-.27,0,0,.16.08.26.11s-.19-.29,0-.18a.32.32,0,0,1,.06.07c-.07-.09.13-.11-.12-.25.17,0,0-.24.2-.19-.19-.25.23,0-.08-.34.33.31.38.11.29-.08.08.11.14.06.25.22.05,0,0-.16-.12-.33.44.32,0-.52.43,0a1.45,1.45,0,0,1,.28-.77c.19.4-.19.15.06.56.05-.26,0-.64.22-.64s.06.19.07.27c.11-.25.36-.1.45-.38a.48.48,0,0,1,0,.12s.09,0,0-.15l0,.06c-.14-.27,0-.63,0-.79.08.59.22.1.3.85a.57.57,0,0,0,0-.28s.07.1.07.27c.09-.15,0-.34.13-.36a2.09,2.09,0,0,1,0,.26c0-.2,0-.4.16-.33s0,.13,0,.13c.15-.06.25-.54.46-.36,0,.43.07.14.08.51l.1-.11,0-.19c.09,0,.18-.25.25-.13l-.07.15.17-.06-.09-.14c.11-.19,0-.48.15-.37,0,0,.1,0,.13.24h0c.06-.11.12-.22.18-.12s-.07.4-.07.49c.09-.3.22-.06.34-.37a1.41,1.41,0,0,0-.07.3l.09-.24a.47.47,0,0,1,0,.28c.11.08.06-.47.17-.23,0,0,0,.06-.05.09.12.14.34-.09.43.09-.08.37-.14,0-.2.36.2,0,.55-.28.7-.1l0-.06c.26-.46,0,.3.22.13,0,0-.17.24-.13.19.07.14.29,0,.56,0l-.09.1c0,.14.12.18.15.28.11-.09.13-.05.23-.22-.3.75.69,0,.4.68,0,0-.14,0-.12.05l.23.07c.16-.17.08-.12.19-.27s.24-.09.28,0c-.18,0-.28.24-.36.35a1.92,1.92,0,0,1,.17-.13c-.25.34.38-.28.26,0l-.11.07c.09,0,.25-.05.26,0-.2.18-.14,0-.32.15.06.06.52-.15.34.07-.08,0-.11,0-.19,0-.21.24-.15.21-.16.28h0l-.05.19.05-.07c.65-.27.23.11.69,0-.45.07-.23.09-.51.22-.06.07-.12.16-.2.19.24-.06-.13.17.23.1-.09,0,0,.06-.21.14.1,0,.15-.08.26-.12.37,0-.27.41.22.43.23.09.55,0,.75.17a.63.63,0,0,1-.36,0c-.12.11-.07.16,0,.22a.63.63,0,0,0-.26.08s.36,0,.23.08a2.54,2.54,0,0,1-.39,0,3.89,3.89,0,0,1,.38.16.87.87,0,0,1-.37,0,.61.61,0,0,0,.45.19l.09-.06s-.23,0-.28,0c-.22,0,.08-.12.18-.13l.07,0c.55-.13-.13-.22-.11-.32l.41,0-.35-.06c.1,0,.32-.11.39-.06.19-.13-.16-.05,0-.17a.06.06,0,0,1,.07,0L46,60.21c.08,0,.28-.08.23,0,.19-.22-.36-.17-.08-.31h0c-.2-.17-.3.07-.69,0l.68-.35-.3.08s0-.07.13-.11c-.23,0-.12.06-.32.09.22-.21-.23-.22.2-.44-.23.06-.12.17-.32.13.46-.25-.13-.08,0-.27s.17.06.34-.15c-.43.16,0-.23-.13-.26-.32.17-.23-.09-.41-.15.12-.06,0-.34,0-.53l.05,0c-.31.2-.33,0-.46,0,.17-.14.25-.19.36-.2l-.07-.08a.3.3,0,0,1-.24.06l.22-.17c-.11-.09-.42,0-.41-.22-.18.18-.41.59-.64.6.09-.1.25-.28.32-.29s-.12,0-.1,0l.21-.12c0-.13-.16.11-.19.06.14-.15.07-.14.18-.25s0,.1,0,.06a.5.5,0,0,1,.07-.35c-.07.09-.18.2-.23.19s.12-.21.13-.34c-.11.08-.09-.08-.28.15,0,0,.05-.14.09-.21-.14.06-.29-.17-.41.13v0h0c-.33.11-.29-.38-.54-.39l0-.09c-.17,0-.29-.07-.46.08,0,0,0-.2.05-.3-.12,0-.17.12-.24-.08.16-.13,0-.16.15-.08-.09-.13-.07-.29-.3-.08.13-.22,0-.34-.08-.29l0,.2a.24.24,0,0,1-.18-.07l.13-.31c-.18-.47-.65.53-.72-.16-.12.21.12.18,0,.44-.11-.07-.16-.56-.21-.56-.16-.21-.23.45-.39.31,0,.11,0,.43-.14.54-.11,0-.11-.51,0-.6s.05,0,0,.07a.17.17,0,0,0,.06-.22l0,.12c-.06-.13-.24-.12-.19-.31a.15.15,0,0,0,0,.25c-.16-.17-.26,0-.43-.13,0,.07,0,.21,0,.21-.26-.14-.11.23-.26.29-.11-.18,0-.44-.16-.28-.11-.11,0-.31,0-.41-.14.23-.32-.11-.43-.14l.08-.11a.17.17,0,0,1-.14.08l.09.23c-.06,0-.1,0-.12-.13,0,.16.1.38,0,.61-.08-.11-.16.15-.25-.15.23.07-.08-.3.09-.38,0,0-.07,0-.13,0a.08.08,0,0,1,0-.08c-.26-.23,0,.37-.22.41,0-.18-.13-.31-.16-.27s.12.28.08.43c-.16-.1-.11.13-.18.13l.1,0c0,.17,0,.17-.11.25,0-.13.05-.12,0-.16,0,.32-.31-.24-.37,0-.11-.09-.13-.31-.22-.36-.06.26-.26-.16-.34.09.15.2.12.14.12.4l.18-.27,0,.39c.07,0,.09-.21.15-.19,0,.21,0,.16.1.32-.24-.28-.1.28-.31.11l-.25-.53c-.31-.15-.18.43-.46.43l.12,0c.1.21-.11.1-.13.23a.87.87,0,0,0-.28-.29c.08.12-.16.1,0,.44l-.24-.15c-.24,0,.16.58,0,.65-.1-.2-.26-.25-.26-.45-.05,0-.12.05,0,.16-.11-.07,0,.31-.13.21,0,.09.18.24.12.28l-.07-.07c.07.06,0,.17.21.28-.56-.29-.31.39-.81.2a1.67,1.67,0,0,1-.14.43s-.08-.06-.05-.07c-.25,0,.42.4.15.45s-.09-.18-.23-.19c-.57-.31,0,.24-.44.18l0,0c-.24,0,.11.35,0,.47l-.09,0a1.16,1.16,0,0,1,.32.64c-.23-.13-.11-.11-.36-.17,0,.08.4.12.42.27a1.56,1.56,0,0,1-.56,0l0-.13c-.37,0-.05.17-.12.22l-.15-.05c0,.23.38.32.3.52h.12c.35.18-.24,0,0,.22l-.39,0a3.5,3.5,0,0,1,.39.46,1.42,1.42,0,0,1-.56-.42.28.28,0,0,0,.17.34s-.12-.08-.06-.11c.29.14.44.27.43.41-.77-.06-.22.39-.79.52.28.28-.09.59,0,.94.57-.22,0,.1.63,0,.05.07.05.1,0,.11l-.3.31c-.15.1-.15,0-.28,0s-.23.14-.35.3c.2-.08.31,0,.26.1l.23-.22c.37.14-.42.37,0,.51h-.21c.15.08.17.48.68.38,0,0-.19.15-.26.11.07.34.78.36.64.71l-.13.06c.06,0,.28-.07.2.07s-.14.07-.13.1.31,0,.28.08l-.18,0c0,.37.61.11.84.21a.63.63,0,0,0-.23.71l0,0c.24.29.7.14,1,.18-.12.52.45.54.61.92a.48.48,0,0,1,.24-.31c0,.11.31-.19.13.17l0,0c-.12.38.07.36.19.41l.21-.48c0,.41.24.43.44.4s.38-.08.39.28c.11-.11.2-.09.3-.21l-.06.28a.81.81,0,0,0,.59.12l-.08.19c.16,0,.26-.8.38-.81l0,.42c.25,0,.54.36.77,0,0,.06,0,.19,0,.2.12,0,.52.23.4-.33.05.37.27,0,.36-.2l0,.28c0-.37,0-.47.14-.6s.09.21,0,.15c.16.11,0-.28.2-.17v.18c.13,0,.09-.1.09-.32s.24,0,.35.22c0-.15,0-.37,0-.32A.29.29,0,0,1,43,67c.28.1.15-.42.4-.23a.55.55,0,0,0,.09.14c-.15.07-.28.11-.28.09.1.23.25.21.29.59,0-.24,0-.7.2-.65l.06.07v0s0,0,.06-.07.09,0,.13,0c.12.17.2,0,.27,0-.15-.23,0-.24-.25-.4,0,0,0,0,0,.07s0,0,0,0v0l-.14.1c0-.15,0-.28.11-.18l-.16-.44c.28.29.55.37.71.55.08-.26.36-.39.1-.88,0-.09.15.07.22.12s0,.08,0,.15c0-.18.22-.28,0-.56.22,0,.18.3.28.12l.06.1c.35.06.29-.24.24-.5s-.13-.5.31-.45a.33.33,0,0,1-.14,0c.56-.24.24-1,.88-1.23.14-.09-.07-.19-.22-.32l.3.07L46.2,63c-.21-.24.82-.16.38-.53h-.2c0-.08-.08-.3.15-.25,0,0-.21-.06-.09-.08l.15,0a2,2,0,0,0-.25-.25c.13-.16.63.08.67-.19a.78.78,0,0,0-.55-.25s-.1.09-.26.09l-.08-.08a3,3,0,0,0-1.27.09l.27.11-.22,0v-.09c-.22,0,0,.08.1.12a.69.69,0,0,0-.25,0l.43.14c-.18,0-.35-.08-.46,0,.2.07.41,0,.54.09-.22,0-.39,0-.22.07a.44.44,0,0,1-.24-.06c.13.07,0,.15.28.22-.27,0,0,.19-.4.1.1,0,.31.16.32.22-.49-.22-.08.17-.61,0,.44.19.12.27.33.47,0,0-.1-.06-.07-.06s-.2,0-.3,0a1.77,1.77,0,0,1,.59.45c-.38-.09-.39-.25-.73-.37.29.12.22.25.47.35a1.37,1.37,0,0,1-.42-.13c.42.24,0,.09.28.28-.25,0-.41-.21-.33-.06A.56.56,0,0,1,43.94,63.3Zm-1.06,2.13h0l0,0Zm-.19.1a.16.16,0,0,0,.09,0c0,.08.09.18.06.18S42.75,65.59,42.69,65.53ZM44.07,67c0,.06-.06,0-.09,0L44,66.9v0Z" transform="translate(-1.33 -12.42)"/><path class="cls-2" d="M44,66.64v0l-.05,0,0,.08Z" transform="translate(-1.33 -12.42)"/><path class="cls-2" d="M44.12,57h0s0,0,0,0Z" transform="translate(-1.33 -12.42)"/><polygon class="cls-2" points="38.63 52.87 38.62 52.94 38.65 52.88 38.63 52.87"/><path class="cls-2" d="M44.44,58.56l0,.06Z" transform="translate(-1.33 -12.42)"/><path class="cls-2" d="M44.69,59l0,.12A.27.27,0,0,0,44.69,59Z" transform="translate(-1.33 -12.42)"/><path class="cls-2" d="M44.77,59.43l.11,0h0Z" transform="translate(-1.33 -12.42)"/><path class="cls-2" d="M39.65,57.56v0C39.62,57.64,39.64,57.61,39.65,57.56Z" transform="translate(-1.33 -12.42)"/><path class="cls-2" d="M41.4,56.76l-.08.13S41.38,56.92,41.4,56.76Z" transform="translate(-1.33 -12.42)"/><polygon class="cls-2" points="36.93 46.33 36.93 46.33 36.92 46.33 36.93 46.33"/><path class="cls-2" d="M41.23,56.88s.06,0,.09,0S41.26,56.84,41.23,56.88Z" transform="translate(-1.33 -12.42)"/><path class="cls-2" d="M45.13,61v0h.05Z" transform="translate(-1.33 -12.42)"/><path class="cls-2" d="M45.17,61.05l0,0S45.2,61.05,45.17,61.05Z" transform="translate(-1.33 -12.42)"/><path class="cls-2" d="M45.27,61.1l-.07,0S45.19,61.1,45.27,61.1Z" transform="translate(-1.33 -12.42)"/><path class="cls-2" d="M45.17,60.52h0Z" transform="translate(-1.33 -12.42)"/><path class="cls-2" d="M45.11,60.37c0,.05-.19.14-.12.18l.08,0C44.92,60.55,45.28,60.37,45.11,60.37Z" transform="translate(-1.33 -12.42)"/><path class="cls-2" d="M46.06,59.27v.18c.09-.06.21-.15.26-.09C46.53,59,46.1,59.49,46.06,59.27Z" transform="translate(-1.33 -12.42)"/><path class="cls-2" d="M46,58.73c.08.06.14-.07.19-.1C46.06,58.62,46,58.63,46,58.73Z" transform="translate(-1.33 -12.42)"/><path class="cls-2" d="M43.22,56.17l.11-.23C43.25,56,43.29,56,43.22,56.17Z" transform="translate(-1.33 -12.42)"/><polygon class="cls-2" points="40.82 44.76 40.82 44.92 40.92 44.71 40.82 44.76"/><polygon class="cls-2" points="40.89 42.9 40.93 42.87 40.79 42.93 40.89 42.9"/><path class="cls-2" d="M36,57.53l.26.19C36.27,57.64,36,57.41,36,57.53Z" transform="translate(-1.33 -12.42)"/><path class="cls-2" d="M35.06,60.25c-.16,0-.28.06-.13.14S35.09,60.29,35.06,60.25Z" transform="translate(-1.33 -12.42)"/><polygon class="cls-2" points="37.29 55.1 37.19 55.18 37.33 55.13 37.29 55.1"/></g></svg>