<svg xmlns="http://www.w3.org/2000/svg" viewBox="0 0 89.83 71.16"><defs><style>.cls-1{fill:#c98686;}.cls-2{fill:#5d5d5e;}</style></defs><title>homeLogo</title><g id="menuIcons"><polygon class="cls-1" points="71.63 66.75 21.34 66.75 21.34 37.62 8.64 37.62 46.48 3.51 84.32 37.62 71.63 37.62 71.63 66.75"/><path class="cls-2" d="M69.77,76.17c.26.12.84,0,.73-.29l-1-.24Z" transform="translate(-0.14 -9.42)"/><path class="cls-2" d="M71.61,73.87a2.5,2.5,0,0,0-2.24-.61c.95.4.56.49,1.69.92.12.35-.32.6-.68.54.25.12-.22.53.4.72.77-.45.8-1,.17-1.6C71.17,73.71,71.43,73.84,71.61,73.87Z" transform="translate(-0.14 -9.42)"/><path class="cls-2" d="M79.2,48.43l-.38-.12A1.05,1.05,0,0,0,79.2,48.43Z" transform="translate(-0.14 -9.42)"/><path class="cls-2" d="M74.88,35.8a.25.25,0,0,0,.32,0C75,35.75,74.91,35.71,74.88,35.8Z" transform="translate(-0.14 -9.42)"/><path class="cls-2" d="M73,32.62a1.86,1.86,0,0,0,.11.19C73.1,32.69,73.07,32.59,73,32.62Z" transform="translate(-0.14 -9.42)"/><path class="cls-2" d="M79.2,48.43l1,.31C80.05,48.42,79.64,48.5,79.2,48.43Z" transform="translate(-0.14 -9.42)"/><path class="cls-2" d="M69.21,69.25a.68.68,0,0,0,.26.3,2.31,2.31,0,0,1-.1-.28Z" transform="translate(-0.14 -9.42)"/><path class="cls-2" d="M74,50.61v.1c.12.07.25.16.41.24C74.23,50.85,74.1,50.73,74,50.61Z" transform="translate(-0.14 -9.42)"/><path class="cls-2" d="M74.11,56.57c0-.16-.8-.22-1.17-.28.35.09.51.21.58.35A2.9,2.9,0,0,0,74.11,56.57Z" transform="translate(-0.14 -9.42)"/><path class="cls-2" d="M72.63,67.68l.12.2S72.68,67.74,72.63,67.68Z" transform="translate(-0.14 -9.42)"/><path class="cls-2" d="M75.42,49.42l.17.3A2.14,2.14,0,0,0,75.42,49.42Z" transform="translate(-0.14 -9.42)"/><path class="cls-2" d="M63.64,72.21a.75.75,0,0,0,0,.15C63.68,72.27,63.69,72.21,63.64,72.21Z" transform="translate(-0.14 -9.42)"/><path class="cls-2" d="M71.77,76.38l-.12.05c0,.16,0,.32,0,.47Z" transform="translate(-0.14 -9.42)"/><path class="cls-2" d="M68.9,27.48s0,0,0,0C69.1,27.55,69,27.5,68.9,27.48Z" transform="translate(-0.14 -9.42)"/><path class="cls-2" d="M19.66,32.53c1,.11-.16,1.46,1.15,1.4C20.52,33.75,20.61,32.33,19.66,32.53Z" transform="translate(-0.14 -9.42)"/><path class="cls-2" d="M69.32,69.07a1.4,1.4,0,0,1,0-.29A.46.46,0,0,0,69.32,69.07Z" transform="translate(-0.14 -9.42)"/><path class="cls-2" d="M20.81,33.93h0Z" transform="translate(-0.14 -9.42)"/><path class="cls-2" d="M57.48,17.87a1,1,0,0,0-.13.37A.71.71,0,0,0,57.48,17.87Z" transform="translate(-0.14 -9.42)"/><path class="cls-2" d="M64.93,26.2l-.13-.27A.62.62,0,0,0,64.93,26.2Z" transform="translate(-0.14 -9.42)"/><path class="cls-2" d="M52.4,14.89c-.07-.15,0-.27-.26-.32a.5.5,0,0,0,0,.12C52.25,14.65,52.36,14.68,52.4,14.89Z" transform="translate(-0.14 -9.42)"/><path class="cls-2" d="M46.17,10.09c0,.06.09.08.13.12l.21-.25Z" transform="translate(-0.14 -9.42)"/><path class="cls-2" d="M45.39,72.61a3,3,0,0,1,.27.76C45.57,72.77,46.45,72.56,45.39,72.61Z" transform="translate(-0.14 -9.42)"/><path class="cls-2" d="M69.69,69.25c-.22,0-.32-.09-.37-.18a1.17,1.17,0,0,0,.05.2A.56.56,0,0,0,69.69,69.25Z" transform="translate(-0.14 -9.42)"/><path class="cls-2" d="M47.76,19.67l-.62-.73A3.39,3.39,0,0,0,47.76,19.67Z" transform="translate(-0.14 -9.42)"/><path class="cls-2" d="M24.91,57l.1.22A.18.18,0,0,0,24.91,57Z" transform="translate(-0.14 -9.42)"/><path class="cls-2" d="M46.77,18.77a3,3,0,0,0,0-.75c0,.08,0,.14-.05.25A4.29,4.29,0,0,1,46.77,18.77Z" transform="translate(-0.14 -9.42)"/><path class="cls-2" d="M45.67,73.38h0Z" transform="translate(-0.14 -9.42)"/><path class="cls-2" d="M52,71.38c-.91,0-.43,1.08-.62,1.72-1.08.31-.5-.82-.87-1.38-.68.29-1.2,1.31-1.7,1.26,0-.18-.14-.25,0-.47-.72.88-2.13,0-3,1.15a.62.62,0,0,1-.11-.28,5.26,5.26,0,0,1,.12,1.52c-.4,0-.75.7-.91,0,.25,0,.28-.27.39-.5l-.43.31c-.38-1,.59-.36.59-1.13-.83.34-1.81,1.2-2.44.91-.14-1,1.49-.34.64-1.25l1,.39c-.75-1.61.6.11-.09-1.61-1.3-.29-1.45.52-2.75.23-.29.56.1.83-.19,1.4-1.85,1-1.45-2.56-2.81-1.21-.35.68-.49,2-1.45,1.29l.33-1.15c-1.26-.12-.72,1.65-2,.88.24-.45,1-.38.8-.52-.85-.91-.6.65-1.26.65l-.13-1c-1.34.16-2.82.9-4.3,1.09.08-.31.33-.63,0-.94a6.72,6.72,0,0,1-2.93.06,12.8,12.8,0,0,1-1.45-.35.79.79,0,0,1-.19-.44,4.48,4.48,0,0,1-.48.88c-.05,0,.11-.39.22-.56,0-.34-.28.55-.56.9-.2.06.13-.51.35-.77a4,4,0,0,1-1.3.86c-.3-.11-.36-.74.19-1.24l.26,0c.18-.23-.27-.14-.67-.18s-.72-.17-.31-.45l.15.09a.6.6,0,0,0,.06-.25l0-.42c0-.29,0-.57,0-.85l0-1.68a4.66,4.66,0,0,1,.81-3c-1.27-.32.56-2.18-1.21-2.32.88-1.27,1.2-.91,1.79-2.68.08-.48-1.11-.71-1.29-1.3h.92l-1-.8,1.11-.42L25,57.21a.72.72,0,0,1-.68.43c-.42-.86.64-2.1,1.12-2.12l-.79-2c.38,0,.5.38.74.65-.94-1.08,1-.19.11-1.19-.21.14-.55-.07-.74-.09a1.23,1.23,0,0,0,.32-.48,1.32,1.32,0,0,0,.09-.3l0-.16c0-.05,0-.18,0-.27a11.32,11.32,0,0,0-.14-2.37l.64.1A56.6,56.6,0,0,0,25.52,43c-.86,0-1.71.07-2.54.07.89.3-.34,1.4-1.13,1.51.13-.33.25-.65.36-1-.91.61.56.37-.95,1.11-.86-.11-.06-1.11.81-1.43l-1.53.34c.06-.29.45-.45.73-.82-.45.31-.92.06-1.53-.13a1.68,1.68,0,0,0-1.82.21l0-.3-1.14,0h0l.12,0a2,2,0,0,1,.37.12,1.56,1.56,0,0,0,.54.21,8.16,8.16,0,0,1-1.51,1.34,3.87,3.87,0,0,1,.93-.56,2.7,2.7,0,0,1,.92-.3l-.56.24c-.71.22-1.5.58-2.43.87,2-.78,2.11-1,3.32-1.31,0-.07,0-.12-.13-.16a3.85,3.85,0,0,1-.64-.19,13.18,13.18,0,0,1-1.48.37c-.09-.09.92-.39,1.56-.47h.12c-.37-.06-.16-.26.23-.43A6,6,0,0,1,19.5,42c.95-.19,1.35.06.81-.53l.05.06a1.46,1.46,0,0,1-.15-.43,1.14,1.14,0,0,1,0-.27l.18-.44c.68-.43,0,.75.79.71.52-2.19,2.3-1.82,2.86-3.48,2.4.9,3-2.92,5.16-2.92l-.42-.33c-.05-.66.57-.11.88-.22-.31-.28-.66-.06-.66-.44,2.16-2.82,5.88-4.25,8.86-6.29,1.06-.77-1.3-2.54.78-2.7l.31,1.05c1.17-2.65,4-3.59,5.29-6.07,0,.27.23.5,0,.66.89.17,1.53-1.32,1.14-1.76.33-.21.45.3.78.41.17.14,0-.06,0-.27s-.07-.42.1-.08a1.34,1.34,0,0,1,.09.3c-.1-.37.19-.05-.06-.94.16.16.21-.1.32-.31.07,0,.16,0,.19.35.12-.51.22-.27.28-.13s.12.21.43-.39c-.49,1.38-.5,1,.77,1.31-.43.16.11.67-.45.93.53.45,1.18.7,1.56.1-.13,2.07,2.8.76,1.94,2.79a36.74,36.74,0,0,1,5.4,2.79c-1,1-1.63-1.28-2.52-.17,1.69.77,3.23.6,4.32,2,.22.44-.58.26-.85.33,1.69.77,2.46,2.39,4.13,2.89-.09.1-.31.08-.5.05.26.18.41.63.79.15l-.33-.08c.22-1,2.16-.55,2.52-.87-1.57,1,.86,1.38-1.25,2.47a.83.83,0,0,0,.85-.33c.15.29.06.53-.48.68,1,.49,1.19-.26,1.93.43-.2.22-.43.17-.74.36.77-.09,1.54-.18,2,.58-.16.1-.24.34-.42.16,1.14.92,2.89.53,3.7,2-1.21.64.12.68-.56,1.57l.86.33.11-.64c.55.53,1.59.37,1.83,1.08l-.73,0,1.2.79-.31-.85c.95.08.89-1.11,1.43-.2-.23,0,.55.52.4,1.27h0c.48,0,1-.08,1.13.42-.22.27-1.11.66-1.26.85a1,1,0,0,1,1,.12,2.17,2.17,0,0,0,1.33.32,3.66,3.66,0,0,0-1.16.22c.34,0,.69-.06,1.06-.07-.1.24-.24.27-.86.34.13.21.57.14.94.06s.66-.11.59.24c-.14-.05-.28,0-.54-.1.1.3.55.55,1.06.85s1,.63,1,.84c-2-.3-1-.52-2.56-.66.46.27,1.44.71,2.45,1.24a6.88,6.88,0,0,1,2.08,1.38l.17,0a9.32,9.32,0,0,1,1.62.71,16.3,16.3,0,0,1-1.74-.5c-.68-.22-1.1-.37-.68-.09-.13-.12-1.74-.89-1.38-.71-.42-.13-.32,0-.24.16a.58.58,0,0,1-.13.73c-.07-.13-.15-.27-.24-.41-.56-.36-.81-.21-1.09-.39a.49.49,0,0,1-.05.23c0,.06-.15.11-.2.17s-.16.24,0,.53a4,4,0,0,0-3.36-.71,13.1,13.1,0,0,1-2.55.62,1.34,1.34,0,0,1-.6,1.27c0-.31-.36-1.05-.36-.79l.38,2.55c.69.16.42-.1,1-.21a2.86,2.86,0,0,1,.73,1.52c-.23-.46-.51-.6-.78-.55a1.82,1.82,0,0,0-.72.46c.21,0,.44.19.66.22-1.24.79,1.39.45.56,1.58L71,51.77c.18.47.67.84.56,1.32-.8.2-.37-.46-1-.49,0,.66,1.52,1.31.72,1.9-.23-.28-.23-.68-.45-1-.94.65-.7.73-.85,1.21l0,0-.43,1.12.26-.28c2.09.83.38,1.69,1.75,2.8-1.3-1.08-.75-.18-1.66-.26-.25.28-.54.72-.79.59.73.53-.58.88.49,1.63-.29,0,0,.56-.76.44.23.69.51-.16.88-.1,1,1.06-1.22,2.48.15,4,.57,1.31,1.56,1.55,2.05,2.77-.47.41-1.07-.34-1.07-.34a1.52,1.52,0,0,0,0,1.78c-.26-.12-.48,0-.8.2.07.5,1.06.33.63,1a4.27,4.27,0,0,1-1.18-.5c.27.59.82,1.18,1.08,1.79-.51.16-.77-.37-1.1-.59.23.69.46,1.78,1.27,2l.28-.44c0,.25-.69.12-.84-.06-.63-.59.28-.85.58-.88l.19.43c1.71-.44-.28-1.75-.18-2.62l1.25.36-1-.9c.33-.19,1-.32,1.21.12.62-.63-.44-.56.24-1.1a.16.16,0,0,1,.22,0l-.37-.61c.26.12.88-.1.7.27.72-1.1-.94-1.77,0-2.19l.08.09c-.43-1.52-.92-.14-2-1.29l2.26-.77L72.4,63c0-.16.1-.47.47-.41-.63-.59-.4.1-1-.24.83-.76-.39-2.1,1.06-2.27-.69-.27-.53.73-1-.08,1.57-.23-.26-.94.46-1.63.81.21.38.87,1.1.17-1.37-.42.3-1.35,0-1.93-1.09,0-.46-1.27-.82-2.26.18,0,.33-.43.49-1l.23-.92a2.3,2.3,0,0,1,.27-.72l.19,0c-1.11-.16-.9-.89-1.13-1.5a3.55,3.55,0,0,1,1.22.8v-.35a1.55,1.55,0,0,1-.66-.83c.27.2.55.4.82.58,0-.32-.58-1.12-.59-1.66a1.42,1.42,0,0,1,.63.18,16.51,16.51,0,0,0-1.45-1.43c-.52-.5-.93-1-.46-1.23.38.42,1,1.13.82,1.3,0-.06.06-.35.37-.17a4.34,4.34,0,0,0,.14.7c.62.31-.24-.58.17-.52.39.59.52.42.76.89,0,.06-.41-.24-.35,0a2.46,2.46,0,0,1,1.26.91c-.19-.34-.4-.8-.2-.88.57,0,.46.72.81,1,0-.41.36,0,.29-.87.17,0,.21.42.27.66,0-.05.15-.09.29-.12l.49-.08,1-.12c.64-.1,1-.27.35-.74l-.19-.06.08,0h0c.77-.44,1.67-.31,2.94-.12a12.08,12.08,0,0,0,3.48.24l.58.3c.44-.24,1.47-.24,1.73-.45a15.69,15.69,0,0,0-1.54-.87c-.2-.18.8,0,1.75.38-1.21-.79-2-1-1.81-1.55,1.8.93.76.08,1.53.87-.29-.6.38-.63-2.21-1.88,1.87.66,1.14-.26.24-.76a2.3,2.3,0,0,1-.35.41,5.57,5.57,0,0,1-1.3-1.2l2,.44c0-.41-.52-.91-1.18-1.36a20.3,20.3,0,0,0-2.18-1.23c-1.46-.76-2.42-1.21-2.12-2.31-1.26-.19.55,1.16-.85,1A2.38,2.38,0,0,1,79,38.65a2.38,2.38,0,0,0-.21-1.18,1.68,1.68,0,0,0-1.67-.86c-.31,0-.49.08-.72,0a.73.73,0,0,1-.56-.39,1.22,1.22,0,0,1-1.53.83c-.51-.64.27-1.77.84-1.64a.21.21,0,0,1,.07.34c.28.07.63.19.65-.31l-.31.19c-.06-.53-.9-1.25-.32-1.51-.68-.15-.58.26-.37.7-.43-1.07-1.19-1.09-1.75-2.06,0,.26-.17.67-.29.56-.87-1.38-1,0-1.86-.56-.08-.8,1-.81-.07-1.19-.23-.71.53-.79.92-.84-1.18-.14-1-1.55-1.37-2l.57.13a1.5,1.5,0,0,1-.71-.42L70,29.2c-.14-.29-.33-.46-.13-.68-.54.14-.61,1-1.5,1.1-.05-.53-1.16-.53-.63-1.32.72,1.08.53-.8,1.42-.2a.84.84,0,0,1-.55-.52c0-.11.16-.11.26-.1-.33-1.43-1.12.42-2-.43.48-.29.46-.94.24-1,.36.34-.42.82-1,.81-.31-.84-.85-.35-1.13-.67l.23.47c-.48.28-.73,0-1.26-.29.25-.34.57.13.55-.14-1.09.28-.4-1.65-1.46-1.76-.06-.54.64-.77.54-1.19-1.18-.14-.29-1.24-1.42-1.5-.26.73-.11.63-1.11.67l1.58.75-1.49.05c.36.34,1.09.38,1.23.67-.77.09-.61,0-.83.6.21-1.26-1.43-.45-1.54-1.53l1.2-1.3c-.36-1.39-2.19-.75-3-2.12l.17.56c-.63.38-.78-.57-1.35-.7.43-.41.34-.78.43-1.2-.28.35-.82-.79-1.72,0v-1c-.72-1.08-2.19.29-3-.67.71-.23.58-.91,1.49-.71-.3-.28-.49-.6-.77-.3.07-.43-1.37-.16-1.27-.82-.3.08-.76.5-1.06.16a.54.54,0,0,1,.2-.22c-.17.25-.89-.26-1,.56a3.3,3.3,0,0,0-1.56-2.54,6.33,6.33,0,0,1-2.12-2.3.61.61,0,0,1-.32-.14c-.95,1.12-2,2.31-2.78,3.08,0-.21-.13-.28.06-.36-1.46.57.17,2.14-1.18,2.52-1.12-.28.15-.83-.39-.83-1.43-1.33-.95,1.21-2.34.93l.08-.22c-.92-.06-.68,1.6-1.56,2.21a.51.51,0,0,0-.19-.23,5.42,5.42,0,0,1-1.23,3.27c-.28-.78.07-.61-.59-1.06-.27.39.93.84.4,1.61-.5-.11-1.23.05-1.85-.5l.61-.61c-1.05-.5-.8.77-1.26.94l-.27-.39c-.88,1-.1,1.88-1.21,2.76l.35.17c.21,1.38-.92-.06-.91,1.1l-1-.72A13,13,0,0,1,30,26.7a7.68,7.68,0,0,1,.44-2.88c-.39.33-1.22,1.22-1,1.83.07-.23.07-.61.34-.61a2.77,2.77,0,0,1-.9,2.65c-1.4-1.83-2.33,1.32-4.07.49C24,30,21.91,30.27,20.46,31.76c1.74.84-.42.44.91,1.72-.28.41-.44.51-.55.45L19,34.1c-.62-.17.07-.61-.24-.89-.88.61-.85-.28-1.7-.17.55.39.36.94-.26,1.16l1.2.06c-.44,1.72-2-.29-2.44,1.43l0-.75a18.07,18.07,0,0,1-2,2.18c-.85,1-1.53,2-1.13,2.58-.4.07-1.23.15-.94-.29a13.8,13.8,0,0,0-2.92,3.43A7.58,7.58,0,0,1,5.49,45.7l-.7,0c-.21.36,1,.26-.5,1a2.65,2.65,0,0,0-1,.29c.06.15.57.54-.56,1.21-.23,0-.46,0-.67-.07C.2,49.4,0,50,.24,50.32c2.48-.42,4.8-1,6.37-1.11-1.29.66-1.45,1.09-1,1.39a6.81,6.81,0,0,0,2.16.57l-.29.19a34.36,34.36,0,0,0,6.94-.56l1.48-.28.7-.14.11-.14a2.29,2.29,0,0,1,.64-.5c0,.82.18.9.44,1a1.26,1.26,0,0,1-.44.87c.24-.16,1-.46,1.16-.34-.13.13.1.17.21.27s.1.17-.5.22l0-.06-.64.16c-.14.05-.21,0-.25.25a8.71,8.71,0,0,0,0,1.14l1.59.12c-2.31,1.88.85,4.94-1.22,6,.4.46.39,1,.79,1.47l-.85,0a9.28,9.28,0,0,0-.12,3.45l-.61-.32c-.05.88,2.45,1.11,2.5,1.93l-1.27.24c0,1.53-1.09,3.09.06,4.61-.19,0-.55-.07-.61-.32a4.36,4.36,0,0,1-.12.73l0,.23,0,.41c0,.28,0,.56,0,.83,0,1.07.24,1.81,1.11,1.29-.57.18-.6.91-.42,1.67a7.09,7.09,0,0,0,.81,1.91l-.84.46c.72.22,1.09.09,1.34.37a7.87,7.87,0,0,1,1.27-.31c.22.11-.27.67-.55.45.81.44,1.47-.79,2.44-.34l-.82.53c1.14.06,1.24-.22,2.08-.84a1.52,1.52,0,0,1,1.25.07,1.44,1.44,0,0,1,.84.89,2.24,2.24,0,0,1,.52-.68.54.54,0,0,1,.64-.18.56.56,0,0,1-.2.55c1.33.57,2-1,2.89-.15a.83.83,0,0,0,.15.5,7.28,7.28,0,0,1-1.82-.13c0,.77.85.91.17,2,.69-.58,1.86-1.84,2.69-1.48a1.16,1.16,0,0,1,.11.27l-.09.09a.54.54,0,0,0,.53-.13,1.57,1.57,0,0,0,.68.23c.1.64,1,.35,1.41.38,0-.84.52-.71,0-1.41.06.07-.08.11-.37.14-.06,0-.14,0-.18.09l0-.08c-.28,0-.64,0-1.06.06.34-.43.69-.79,1.16-.32.22-.54.46-1.1.59-1.36.58,1.17,1.71,1.81,1.86,2.54,1.3-.48,3.06-.32,3.87-1.9.37-.2.43.45.56.7-.21.16-.46.14-.58.36.74-.4,2.19-.15,2.36-1.26.93.5-.52,1,.76.84l-.17.34c2.51,1.77,4.08-2.83,6.86-.56-.19-.14-.29-.2-.33-.39,3.18,1,6.55-.94,9.68.65.89.32,1-.39,1.53-.92l.19.9.93-1c1.32-.77,2.29,2.22,3.95.77L65,77.48c.6.12,1.9-.36,1.8.35.06-.12.19-.64.43-.32l0,.47,1.47-.81c1.14.34-.18,1.88,1.48,2,.62-.18,1.77-1.38,1.53-1.69a.81.81,0,0,1-.65-.77l.56-.25c.11-1.4.54-2.83-.85-3.8l-1,.85-.31-.68.82,0c-.47-.64-.76-.07-1.09.31a1.16,1.16,0,0,0-.4-.74l-.95,1.33c-.12-.54.42-1.08-.22-1.38-.44.62.43,1.22-.31,1.63-.46-.64-.32-1.15-.87-.61a.68.68,0,0,1,.26-.75c-.49.43-1.28.18-1.53.93-.49-.79-1.64.2-1.59-1.12a2.52,2.52,0,0,1-1.3,1.09c.82-1.58-1.66-.09-1.45-1.79-.6,1.42-2.17.63-3.23,1.42.06-.11.17-.34.27-.27-.6-.11-.77-.54-1.16-.81-.08,1.17-1,1.44-1.51,2.17-.74-1.14.44-1.38.21-2.47,0,1-1.27,1-1,1.74-.57-.7-.49-.34-.78-1.31-.1,1.47-.52.25-1,1.15-.81-.73-.21-1.38-1.1-.93C51.16,71.9,52,71.38,52,71.38ZM30.71,73.92v0l.44-.05Zm-1.78,0a4.6,4.6,0,0,0,.77,0c.07.29,0,.59-.18.57C29.62,74.35,29.2,74.18,28.93,73.93Zm3.77,5.85c-.28.12-.37,0-.41-.22l.49-.1,0-.11A1.57,1.57,0,0,1,32.7,79.78Z" transform="translate(-0.14 -9.42)"/><path class="cls-2" d="M33.21,78.67a.45.45,0,0,1,.12-.06,1.08,1.08,0,0,0-.17-.19l-.1.26Z" transform="translate(-0.14 -9.42)"/><path class="cls-2" d="M78.76,48.29l.06,0a.48.48,0,0,1-.17-.12Z" transform="translate(-0.14 -9.42)"/><polygon class="cls-2" points="25.18 49.56 24.97 49.56 25.16 49.72 25.18 49.56"/><path class="cls-2" d="M70.13,50a.26.26,0,0,0-.22.11S70,50.1,70.13,50Z" transform="translate(-0.14 -9.42)"/><path class="cls-2" d="M69.94,54.75l-.3.6A2.52,2.52,0,0,0,69.94,54.75Z" transform="translate(-0.14 -9.42)"/><path class="cls-2" d="M69.52,58a2.06,2.06,0,0,0,.36.06h0Z" transform="translate(-0.14 -9.42)"/><path class="cls-2" d="M61.32,30.54a.33.33,0,0,0-.12-.05C60.87,30.41,61.07,30.5,61.32,30.54Z" transform="translate(-0.14 -9.42)"/><path class="cls-2" d="M74.12,39.42a2.62,2.62,0,0,1-.64,0C73.64,39.62,73.79,39.77,74.12,39.42Z" transform="translate(-0.14 -9.42)"/><path class="cls-2" d="M47.83,19.75h0l-.08-.07Z" transform="translate(-0.14 -9.42)"/><path class="cls-2" d="M73,38.89a.63.63,0,0,0,.52.49C73.35,39.19,73.21,39,73,38.89Z" transform="translate(-0.14 -9.42)"/><path class="cls-2" d="M69.13,72.16l0,.16.14,0Z" transform="translate(-0.14 -9.42)"/><path class="cls-2" d="M69.24,72.34l.1.18C69.34,72.43,69.33,72.37,69.24,72.34Z" transform="translate(-0.14 -9.42)"/><path class="cls-2" d="M69.55,72.88l-.21-.36A.28.28,0,0,0,69.55,72.88Z" transform="translate(-0.14 -9.42)"/><path class="cls-2" d="M69.53,67.84l-.31,0A.73.73,0,0,0,69.53,67.84Z" transform="translate(-0.14 -9.42)"/><path class="cls-2" d="M69.44,66.53c-.07.31-.66.79-.46,1.22l.24,0C68.76,67.59,70,66.83,69.44,66.53Z" transform="translate(-0.14 -9.42)"/><path class="cls-2" d="M73.22,61.05,73,62.15c.33-.19.77-.45.84.05C74.79,60.82,73.09,62.49,73.22,61.05Z" transform="translate(-0.14 -9.42)"/><path class="cls-2" d="M73.69,57.64c.15.59.47,0,.66,0C74.05,57.28,74,57.19,73.69,57.64Z" transform="translate(-0.14 -9.42)"/><path class="cls-2" d="M88.06,47.69l1.91.68C89.18,47.81,89.25,48.13,88.06,47.69Z" transform="translate(-0.14 -9.42)"/><path class="cls-2" d="M76.53,42.64l-.63.07,1.32.24Z" transform="translate(-0.14 -9.42)"/><polygon class="cls-2" points="82.01 30.92 82.4 31.13 81.1 30.33 82.01 30.92"/><path class="cls-2" d="M47.43,9.42l.06,1.32C47.84,10.83,48.11,9.65,47.43,9.42Z" transform="translate(-0.14 -9.42)"/><path class="cls-2" d="M32.37,22.83c-.46-.22-1-.11-1,.44C31.75,23.05,32.3,23.06,32.37,22.83Z" transform="translate(-0.14 -9.42)"/><polygon class="cls-2" points="17.61 44.81 17.29 44.45 17.55 45.13 17.61 44.81"/></g></svg>