<?xml version="1.0" encoding="utf-8"?>
<!-- Generator: Adobe Illustrator 22.0.1, SVG Export Plug-In . SVG Version: 6.00 Build 0)  -->
<svg version="1.1" xmlns="http://www.w3.org/2000/svg" xmlns:xlink="http://www.w3.org/1999/xlink" x="0px" y="0px"
	 viewBox="0 0 323.3 190.5" style="enable-background:new 0 0 323.3 190.5;" xml:space="preserve">
<style type="text/css">
	.st0{fill:#C98686;}
	.st1{fill:#F2B880;}
	.st2{fill:#464647;}
</style>
<g id="Layer_1">
</g>
<g id="logo">
	<g>
		<g>
			<path class="st0" d="M25.3,83c3.1-2.6,5.2-6,6.2-10.4c1-4.4,1.6-12.3,1.6-23.9c0.1-11.5,0.5-19.8,1.3-24.9
				c0.8-5.1,2.9-9,5.2-12.6C49.8-4.5,74.4,2.6,74.4,2.6s-26.9,0.1-20.1,49C60.8,98.5,25,92.3,19.4,94.9c5.6,2.4,39.6,8.4,34.4,36
				c-11.1,59,20.6,56.3,20.6,56.3s-17,7.7-31.6-5.5c-2.2-2-4.2-4.5-5.8-7.8c-1.6-3.2-2.6-7.6-3.2-13c-0.3-3.4-0.5-10.4-0.6-21.1
				c-0.1-10.7-0.6-18.2-1.6-22.6c-1-4.4-3.1-7.9-6.2-10.4C22.2,104.2,2,94.9,2,94.9S22.2,85.6,25.3,83z"/>
		</g>
		<g>
			<path class="st1" d="M323.3,94.9c0,0-20.2,9.3-23.3,11.8c-3.1,2.6-5.2,6-6.2,10.4c-1,4.4-1.6,11.9-1.6,22.6
				c-0.1,10.7-0.3,17.7-0.6,21.1c-0.6,5.4-1.6,9.8-3.2,13c-1.6,3.2-3.6,5.8-5.8,7.8c-14.6,13.3-31.6,5.5-31.6,5.5
				s31.7,2.6,20.6-56.3c-5.2-27.6,28.8-33.6,34.4-36c-5.6-2.7-41.4,3.6-34.9-43.3c6.8-48.9-20.1-49-20.1-49s24.6-7.1,34.7,8.6
				c2.3,3.6,4.4,7.5,5.2,12.6c0.8,5.1,1.2,13.4,1.3,24.9c0.1,11.5,0.6,19.5,1.6,23.9c1,4.4,3.1,7.9,6.2,10.4
				C303.1,85.6,323.3,94.9,323.3,94.9z"/>
		</g>
		<path class="st2" d="M244.8,120.2c-15.3-14.8-26.6-18.1-30.2-20c8.4-1.8,23.2-0.4,30.2-9.3c3.7-4.7,6.2-11.8,6.2-19.1
			c0-3.6-0.6-7-1.8-10.2c-1.2-3.2-3-6-5.4-8.4c-2.4-2.4-5.1-4.3-8.2-5.6c-2.5-1.2-5.4-1.9-8.6-2.3c-3.2-0.4-16.1-0.6-20.6-0.6h-53
			c-4.3,0-7.4,1-9.3,2.9c-0.2,0.2-0.3,0.4-0.4,0.6c-0.1,0.1-0.1,0.1-0.2,0.1c-1.9,2-2.8,5-2.8,9.1v33.7c0,0-42.6-43.4-43.9-44.4
			C71.7,26.6,63.1,54,75.2,62.6l28.8,22.9c0,0-17.2,19.4-32.5,40C52.4,151.2,79,151.6,82,151.6c10.6,0,14.6-9.1,15.8-11.1
			c1.2-2,2.3-3.8,3.2-5.4l20.1-37.7l19.6,17.6l-0.3,27.5c0,13.5,17.3,28.3,20.8,28.3c3.1,0,20.7-14.8,20.7-28.3l0-27.3h7
			c3.5,0,10.6-0.4,13,0.2c6.1,1.4,8.4,3.4,10.9,5.7c8,7.7,9.9,12.9,15.8,23.6C237.5,160.7,279,153.1,244.8,120.2z M168.6,139
			c-1.3,2.7-2.9,4.8-4.8,6.4c-1.9,1.6-10.5,4.1-10.5,4.1s12.4-7.8,9.5-15.6c-2.1,0-3.8-0.6-5.3-1.9c-1.5-1.3-2.2-3-2.2-5.3
			c0-2,0.7-3.6,2.2-5c1.5-1.3,3.2-2,5.2-2c1.5,0,2.9,0.4,4.1,1.2c1.2,0.8,2.2,2,2.9,3.6c0.7,1.6,1,3.5,1,5.8
			C170.6,133.4,169.9,136.3,168.6,139z M168.7,96.9c-1.9,1.9-3.9,2.8-6.2,2.8c-1.7,0-3.2-0.4-4.6-1.2c-1.4-0.8-2.5-1.9-3.3-3.2
			c-0.8-1.3-1.2-2.9-1.2-4.6c0-2.8,0.9-5.1,2.7-6.6c1.8-1.6,3.9-2.3,6.5-2.3c2.4,0,4.6,0.8,6.3,2.4c1.8,1.6,2.6,3.8,2.6,6.6
			C171.5,93,170.5,95.1,168.7,96.9z M199.7,90.5h-17.8V57.4h18.4c6.8,0,11.4,0.5,13.7,1.5c2.5,1,5.6,1.5,5.6,14.2
			C219.5,87.3,204.4,90.5,199.7,90.5z"/>
	</g>
</g>
</svg>
